SplineFontDB: 1.0
FontName: DBThaiText-Oblique
FullName: DBThaiText Oblique
FamilyName: DBThaiText
Weight: Medium
Copyright: Typeface (c) The Monotype Corporation plc. Data (c) The Monotype Corporation plc/Type Solutions Inc. 1990-1992. All Rights Reserved\n\nModified by TLWG
Version: 1.1 : May 12, 2003
ItalicAngle: -12
UnderlinePosition: -477
UnderlineWidth: 205
Ascent: 1638
Descent: 410
NeedsXUIDChange: 1
FSType: 0
PfmFamily: 33
TTFWeight: 500
TTFWidth: 5
Panose: 2 0 6 3 0 0 0 0 0 0
LineGap: 184
VLineGap: 0
ScriptLang: 2
 1 latn 1 dflt 
 1 thai 1 dflt 
LangName: 1033 "" "" "" "PfaEdit : DBThaiTextOblique : 13-0-2003" 
Encoding: ThaiWin
UnicodeInterp: none
DisplaySize: -72
AntiAlias: 1
FitToEm: 1
WinInfo: 144 8 2
BeginPrivate: 2
BlueValues 37 [-33 9 0 0 744 782 786 804 1010 1029]
OtherBlues 11 [-272 -270]
EndPrivate
BeginChars: 292 257
StartChar: .notdef
Encoding: 0 -1 0
Width: 1090
Flags: W
HStem: -54 144<242 936> 1746 144<479 1172>
DStem: 479 1890 594 1746 66 -54 242 90 1172 1746 1349 1890 820 90 936 -54
Fore
66 -54 m 1
 479 1890 l 1
 1349 1890 l 1
 936 -54 l 1
 66 -54 l 1
242 90 m 1
 820 90 l 1
 1172 1746 l 1
 594 1746 l 1
 242 90 l 1
EndSplineSet
EndChar
StartChar: exclam
Encoding: 33 33 3
Width: 359
Flags: W
HStem: 0 21G<145 263> 991 20G<360 478>
DStem: 175 143 293 143 145 0 263 0 360 1011 478 1011 254 514 372 514
Fore
281 231 m 1
 224 231 l 1
 254 514 l 5
 360 1011 l 1
 478 1011 l 1
 372 514 l 1
 281 231 l 1
175 143 m 1
 293 143 l 1
 263 0 l 1
 145 0 l 1
 175 143 l 1
EndSplineSet
EndChar
StartChar: quotedbl
Encoding: 34 34 4
Width: 463
Flags: W
HStem: 991 20G<276 394 493 611>
DStem: 276 1011 394 1011 243 854 361 854 493 1011 611 1011 460 854 578 854
Fore
234 672 m 1
 243 854 l 1
 276 1011 l 5
 394 1011 l 1
 361 854 l 1
 291 672 l 1
 234 672 l 1
451 672 m 1
 460 854 l 1
 493 1011 l 1
 611 1011 l 1
 578 854 l 1
 508 672 l 1
 451 672 l 1
EndSplineSet
EndChar
StartChar: numbersign
Encoding: 35 35 5
Width: 728
Flags: W
HStem: -24 21G<57 161 337 441> 267 112<54 170 324 450 604 719> 591 111<175 300 447 577 730 834>
DStem: 170 267 279 267 57 -24 161 -24 300 591 406 591 215 379 324 379 450 973 556 973 341 702 447 702 450 267 556 267 337 -24 441 -24 577 591 686 591 495 379 604 379 728 973 836 973 621 702 730 702
Fore
450 973 m 1
 556 973 l 1
 447 702 l 1
 621 702 l 1
 728 973 l 1
 836 973 l 1
 730 702 l 1
 857 702 l 1
 834 591 l 1
 686 591 l 1
 604 379 l 1
 743 379 l 1
 719 267 l 1
 556 267 l 1
 441 -24 l 1
 337 -24 l 1
 450 267 l 1
 279 267 l 1
 161 -24 l 1
 57 -24 l 1
 170 267 l 1
 31 267 l 1
 55 379 l 1
 215 379 l 1
 300 591 l 1
 153 591 l 1
 176 702 l 1
 341 702 l 1
 450 973 l 1
406 591 m 1
 324 379 l 1
 495 379 l 1
 577 591 l 1
 406 591 l 1
EndSplineSet
EndChar
StartChar: dollar
Encoding: 36 36 6
Width: 728
Flags: W
HStem: 900 176<523 589.558>
VStem: 52 115<192 229> 171 113<652 710> 619 123<309 344> 694 114<777 804>
DStem: 288 -26 373 -24 258 -168 342 -168 389 448 470 435 309 71 394 73 486 903 569 900 416 572 497 559
Fore
800 729 m 1
 689 729 l 1
 692 747 694 763 694 777 c 0
 694 806 687 829 675 846 c 1
 656 882 622 900 569 900 c 1
 497 559 l 1
 569 537 618 519 646 504 c 1
 676 491 703 465 725 426 c 1
 736 403 742 376 742 344 c 0
 742 321 739 296 733 268 c 0
 718 196 681 135 624 83 c 0
 566 31 508 0 451 -9 c 2
 373 -24 l 5
 342 -168 l 1
 258 -168 l 1
 288 -26 l 1
 229 -13 186 -1 159 9 c 0
 127 22 98 51 74 97 c 1
 60 121 52 153 52 192 c 0
 52 222 57 257 65 296 c 1
 171 296 l 1
 169 271 167 249 167 229 c 0
 167 216 168 205 169 194 c 0
 170 168 181 143 202 120 c 1
 221 100 258 84 309 71 c 1
 389 448 l 1
 316 474 l 2
 288 483 264 495 245 508 c 1
 228 517 211 532 193 552 c 1
 178 578 171 612 171 652 c 0
 171 681 175 715 183 751 c 1
 209 832 252 892 309 932 c 0
 364 970 430 994 507 1002 c 1
 523 1076 l 1
 607 1076 l 1
 591 1002 l 1
 667 994 725 969 764 927 c 0
 790 902 804 871 806 835 c 0
 807 825 808 814 808 804 c 0
 808 778 805 753 800 729 c 1
416 572 m 1
 486 903 l 1
 443 900 403 886 366 859 c 1
 323 825 298 791 290 755 c 0
 286 739 284 724 284 710 c 0
 284 682 292 657 309 634 c 0
 331 601 366 581 416 572 c 1
470 435 m 1
 394 73 l 1
 417 75 443 83 471 95 c 1
 500 104 529 124 557 152 c 0
 586 182 604 219 613 265 c 0
 617 281 619 296 619 309 c 0
 619 341 609 364 589 379 c 0
 564 399 525 417 470 435 c 1
EndSplineSet
EndChar
StartChar: percent
Encoding: 37 37 7
Width: 1161
Flags: W
HStem: -25 97<880 902> 352 97<958 980> 480 97<309 332> 857 97<387 410>
VStem: 115 100<664 685> 504 99<747 769> 686 100<160 181> 1073 98<241 261>
DStem: 984 986 1078 986 220 -25 315 -25
Fore
984 986 m 1
 1078 986 l 1
 315 -25 l 1
 220 -25 l 1
 984 986 l 1
121 716 m 0
 135 782 170 839 226 884 c 0
 285 931 346 954 410 954 c 0
 476 954 527 931 564 884 c 0
 590 851 603 812 603 769 c 0
 603 752 601 734 597 716 c 0
 583 651 547 595 490 549 c 0
 434 503 374 480 309 480 c 0
 246 480 195 503 157 549 c 0
 129 582 115 620 115 664 c 0
 115 680 117 698 121 716 c 0
692 213 m 0
 706 279 741 335 797 380 c 0
 853 426 913 449 980 449 c 0
 1023 449 1060 439 1092 418 c 0
 1124 396 1147 367 1160 332 c 0
 1167 309 1171 285 1171 261 c 0
 1171 246 1170 230 1166 213 c 0
 1152 148 1118 92 1061 45 c 0
 1005 -2 944 -25 880 -25 c 0
 816 -25 765 -2 726 45 c 0
 699 78 686 117 686 160 c 0
 686 177 688 195 692 213 c 0
218 716 m 0
 216 705 215 695 215 685 c 0
 215 659 223 637 240 619 c 1
 261 591 291 577 330 577 c 0
 370 577 407 591 441 619 c 0
 472 645 492 678 500 716 c 0
 502 727 504 737 504 747 c 0
 504 761 501 775 496 787 c 0
 489 809 476 826 456 838 c 0
 438 851 415 857 389 857 c 0
 349 857 313 844 282 818 c 0
 248 790 227 756 218 716 c 0
789 213 m 0
 787 202 786 191 786 181 c 0
 786 155 794 132 810 114 c 1
 832 86 862 72 900 72 c 0
 937 72 973 86 1009 114 c 1
 1041 142 1061 175 1069 213 c 0
 1072 224 1073 234 1073 243 c 0
 1073 269 1064 292 1048 310 c 0
 1026 338 997 352 960 352 c 0
 921 352 885 338 852 310 c 1
 819 286 798 253 789 213 c 0
EndSplineSet
EndChar
StartChar: ampersand
Encoding: 38 38 8
Width: 870
Flags: W
HStem: -32 112<287 333> 1 21G<676 829> 889 97<551 579>
VStem: 59 124<172 220> 290 120<731 753> 649 117<796 812>
DStem: 402 467 516 527 566 189 650 302
Fore
829 1 m 5
 676 1 l 5
 612 103 l 5
 575 76 l 5
 561 64 542 51 518 36 c 4
 499 23 476 11 452 -1 c 5
 392 -21 336 -32 287 -32 c 4
 232 -32 187 -19 149 6 c 4
 89 46 59 101 59 172 c 0
 59 189 61 207 64 226 c 4
 75 287 98 340 136 385 c 4
 173 431 218 468 271 498 c 6
 353 547 l 5
 321 615 l 6
 300 658 290 697 290 733 c 0
 290 746 291 758 294 770 c 4
 310 845 356 904 432 948 c 4
 476 974 525 986 579 986 c 4
 641 986 690 967 723 927 c 4
 752 892 766 854 766 812 c 0
 766 799 765 786 762 772 c 4
 754 733 735 696 704 661 c 4
 670 620 635 591 599 573 c 5
 516 527 l 5
 650 302 l 5
 692 360 718 414 729 465 c 5
 841 465 l 5
 834 433 816 390 788 337 c 4
 761 288 733 246 703 211 c 5
 829 1 l 5
645 832 m 4
 643 850 633 864 615 874 c 5
 600 884 579 889 551 889 c 4
 522 889 495 882 471 867 c 4
 449 852 431 829 418 800 c 5
 413 774 410 753 410 736 c 0
 410 723 412 713 415 705 c 4
 419 692 438 662 468 613 c 5
 504 625 540 644 575 670 c 4
 614 697 637 731 646 772 c 4
 648 780 649 789 649 798 c 0
 649 809 647 820 645 832 c 4
566 189 m 5
 402 467 l 5
 344 434 l 6
 329 425 307 410 279 388 c 5
 258 368 238 345 221 319 c 4
 202 289 190 258 183 228 c 5
 183 225 183 223 183 220 c 0
 183 192 194 163 216 131 c 4
 238 97 277 80 333 80 c 4
 367 80 401 87 434 101 c 4
 464 111 508 141 566 189 c 5
EndSplineSet
EndChar
StartChar: quotesingle
Encoding: 39 39 9
Width: 249
Flags: W
HStem: 991 20G<276 394>
DStem: 276 1011 394 1011 243 854 361 854
Fore
234 672 m 1
 243 854 l 1
 276 1011 l 5
 394 1011 l 1
 361 854 l 1
 291 672 l 1
 234 672 l 1
EndSplineSet
EndChar
StartChar: parenleft
Encoding: 40 40 10
Width: 433
Flags: W
HStem: 1008 20G<516 594>
VStem: 132 112<130 209>
Fore
516 1028 m 1
 594 1028 l 1
 501 912 429 800 379 690 c 0
 326 580 290 475 269 375 c 0
 252 297 244 216 244 130 c 0
 244 108 244 86 245 63 c 0
 250 -51 273 -165 316 -279 c 1
 238 -279 l 1
 217 -239 198 -191 180 -136 c 0
 163 -85 151 -30 141 30 c 0
 136 75 132 134 132 209 c 0
 134 265 141 320 153 375 c 0
 168 447 194 524 232 607 c 0
 271 692 314 768 361 836 c 0
 414 914 466 978 516 1028 c 1
EndSplineSet
EndChar
StartChar: parenright
Encoding: 41 41 11
Width: 438
Flags: W
HStem: 1008 20G<249 325>
VStem: 322 110<565 642>
Fore
249 1028 m 1
 325 1028 l 1
 353 978 377 914 400 836 c 0
 416 777 427 700 431 604 c 0
 432 591 432 578 432 565 c 0
 432 501 425 437 412 375 c 0
 395 298 370 222 334 147 c 0
 291 55 247 -22 204 -83 c 0
 146 -166 94 -232 47 -279 c 1
 -29 -279 l 1
 33 -202 87 -124 131 -43 c 1
 175 32 212 106 239 178 c 0
 264 246 283 312 297 375 c 0
 308 428 315 476 318 519 c 0
 321 556 322 597 322 642 c 0
 322 653 322 664 321 675 c 0
 319 737 312 796 301 852 c 0
 286 917 268 976 249 1028 c 1
EndSplineSet
EndChar
StartChar: asterisk
Encoding: 42 42 12
Width: 508
Flags: W
DStem: 335 764 389 720 214 641 272 592 402 990 487 990 374 835 449 835
Fore
197 808 m 1
 240 888 l 1
 374 835 l 1
 402 990 l 1
 487 990 l 1
 449 835 l 1
 604 886 l 1
 616 800 l 1
 458 764 l 1
 525 639 l 1
 446 590 l 1
 389 720 l 1
 272 592 l 1
 214 641 l 1
 335 764 l 1
 197 808 l 1
EndSplineSet
EndChar
StartChar: plus
Encoding: 43 43 13
Width: 762
Flags: W
HStem: 450 97<137 405 522 790>
DStem: 405 450 502 450 344 163 441 163 486 835 583 835 425 547 522 547
Fore
486 835 m 5
 583 835 l 5
 522 547 l 5
 810 547 l 5
 790 450 l 5
 502 450 l 5
 441 163 l 5
 344 163 l 5
 405 450 l 5
 118 450 l 5
 138 547 l 5
 425 547 l 5
 486 835 l 5
EndSplineSet
EndChar
StartChar: comma
Encoding: 44 44 14
Width: 365
Flags: W
Fore
288 74 m 4
 274 9 245 -40 201 -75 c 5
 155 -108 110 -128 66 -134 c 5
 46 -134 36 -131 36 -125 c 0
 36 -124 36 -124 36 -123 c 4
 37 -119 40 -115 45 -111 c 5
 63 -105 89 -93 127 -72 c 4
 161 -53 183 -29 193 0 c 5
 174 -4 l 5
 148 -9 l 5
 99 -3 74 20 74 61 c 0
 74 69 75 78 77 88 c 4
 82 115 95 138 116 157 c 4
 135 176 161 185 192 185 c 4
 258 185 291 158 291 105 c 0
 291 95 290 85 288 74 c 4
EndSplineSet
EndChar
StartChar: hyphen
Encoding: 45 45 15
Width: 435
Flags: W
HStem: 347 102<132 441>
Fore
462 449 m 1
 441 347 l 1
 112 347 l 1
 133 449 l 1
 462 449 l 1
EndSplineSet
EndChar
StartChar: period
Encoding: 46 46 16
Width: 366
Flags: W
HStem: -47 20G<135 162.5>
Fore
70 72 m 4
 76 98 90 122 114 142 c 4
 138 162 164 171 190 171 c 4
 205 171 220 167 237 158 c 4
 250 149 259 136 265 121 c 4
 269 112 271 102 271 92 c 0
 271 86 270 79 268 72 c 4
 263 46 248 23 224 3 c 5
 202 -17 177 -27 148 -27 c 4
 122 -27 100 -17 85 3 c 4
 73 17 68 33 68 51 c 0
 68 58 69 65 70 72 c 4
EndSplineSet
EndChar
StartChar: slash
Encoding: 47 47 17
Width: 364
Flags: W
HStem: -17 21G<-37 38>
DStem: 508 996 583 996 -37 -17 38 -17
Fore
-37 -17 m 5
 508 996 l 5
 583 996 l 5
 38 -17 l 5
 -37 -17 l 5
EndSplineSet
EndChar
StartChar: zero
Encoding: 48 48 18
Width: 786
Flags: W
HStem: -11 116<366 390> 902 119<558 585>
VStem: 123 120<260 310> 709 121<702 737>
Fore
366 -11 m 0
 317 -11 271 1 231 25 c 0
 194 47 164 85 143 139 c 1
 129 179 123 229 123 288 c 0
 123 295 123 302 123 310 c 0
 127 380 136 445 149 506 c 4
 162 569 181 635 207 704 c 0
 233 771 263 829 300 878 c 1
 341 926 386 962 436 986 c 0
 484 1010 534 1021 585 1021 c 0
 637 1021 683 1010 724 986 c 1
 764 960 792 924 809 878 c 0
 823 840 830 793 830 737 c 0
 830 672 820 595 802 506 c 0
 766 341 717 219 652 139 c 1
 612 86 567 48 516 25 c 0
 464 1 414 -11 366 -11 c 0
390 105 m 0
 461 105 523 139 573 208 c 0
 583 220 595 242 611 274 c 1
 628 313 639 350 648 382 c 1
 662 423 674 464 682 504 c 0
 690 542 696 582 700 625 c 1
 705 659 709 694 709 728 c 0
 709 730 709 731 709 733 c 0
 707 764 704 786 699 800 c 0
 678 868 632 902 560 902 c 0
 529 902 497 894 466 878 c 0
 432 860 402 834 377 800 c 0
 363 780 343 738 316 675 c 1
 293 608 277 551 267 504 c 0
 257 457 249 400 244 332 c 0
 243 318 243 304 243 292 c 0
 243 255 245 227 251 208 c 0
 264 173 283 149 307 133 c 0
 334 114 362 105 390 105 c 0
EndSplineSet
EndChar
StartChar: one
Encoding: 49 49 19
Width: 768
Flags: W
HStem: 0 21G<362 481>
DStem: 512 706 693 999 362 0 481 0
Fore
481 0 m 5
 362 0 l 5
 512 706 l 5
 285 706 l 5
 306 803 l 5
 374 811 427 821 462 833 c 4
 493 844 518 860 537 883 c 4
 559 911 583 949 611 999 c 5
 693 999 l 5
 481 0 l 5
EndSplineSet
EndChar
StartChar: two
Encoding: 50 50 20
Width: 768
Flags: W
HStem: 0 116<178 688> 891 108<559 606>
VStem: 722 128<735 763>
Fore
584 410 m 6
 400 324 l 5
 355 301 312 272 271 238 c 4
 218 196 186 155 178 116 c 5
 713 116 l 5
 688 0 l 5
 21 0 l 5
 40 61 62 120 86 177 c 5
 104 212 135 251 179 293 c 4
 225 338 289 381 370 420 c 6
 541 507 l 6
 639 556 697 617 716 692 c 4
 720 707 722 722 722 738 c 0
 722 759 718 781 710 803 c 4
 694 835 674 857 648 869 c 4
 620 884 589 891 559 891 c 4
 486 888 429 866 389 825 c 4
 350 782 321 725 303 653 c 5
 182 653 l 5
 196 712 218 767 245 819 c 4
 269 867 307 905 357 933 c 5
 395 960 434 977 472 986 c 4
 513 995 558 999 606 999 c 4
 688 996 750 973 792 930 c 4
 831 887 850 832 850 765 c 0
 850 764 l 4
 850 763 l 0
 850 735 849 715 846 700 c 4
 833 640 800 584 748 531 c 4
 693 475 638 435 584 410 c 6
EndSplineSet
EndChar
StartChar: three
Encoding: 51 51 21
Width: 768
Flags: W
HStem: -14 114<353 371> 908 111<541 579>
VStem: 98 119<225 257> 649 128<353 375> 713 126<785 819>
Fore
102 310 m 5
 221 310 l 5
 218 257 l 5
 217 250 217 242 217 235 c 0
 217 219 218 203 222 188 c 4
 228 162 242 143 263 130 c 5
 286 109 317 100 356 100 c 4
 360 100 363 100 367 100 c 0
 516 100 608 163 640 290 c 5
 644 310 l 6
 647 327 649 343 649 357 c 0
 649 393 638 421 614 440 c 4
 583 466 533 479 464 479 c 5
 405 476 l 5
 428 584 l 5
 519 587 584 598 624 617 c 4
 668 639 696 684 708 751 c 4
 712 769 713 786 713 801 c 0
 713 837 701 863 677 878 c 4
 643 898 598 908 541 908 c 5
 497 899 461 888 433 872 c 4
 406 855 386 837 373 817 c 5
 358 797 347 774 338 748 c 5
 324 695 l 5
 208 698 l 5
 230 799 273 878 338 936 c 4
 401 991 481 1019 579 1019 c 4
 635 1019 684 1009 730 989 c 4
 775 968 805 936 823 894 c 4
 834 868 839 840 839 807 c 0
 839 784 836 759 831 733 c 4
 820 684 802 646 776 620 c 4
 750 593 714 566 670 537 c 5
 720 514 752 482 767 443 c 4
 773 422 777 399 777 373 c 0
 777 350 774 324 768 296 c 5
 759 242 732 186 683 127 c 4
 637 73 579 35 512 14 c 4
 459 -2 411 -12 371 -14 c 4
 354 -14 324 -11 281 -5 c 5
 199 14 147 50 124 102 c 4
 106 140 98 186 98 240 c 0
 98 262 99 285 102 310 c 5
EndSplineSet
EndChar
StartChar: four
Encoding: 52 52 22
Width: 768
Flags: W
HStem: 0 21G<452 568> 235 116<206 502 643 765>
DStem: 502 235 618 235 452 0 568 0 622 800 780 999 527 351 643 351 690 999 622 800 99 368 206 351
Fore
502 235 m 5
 71 235 l 5
 99 368 l 5
 690 999 l 5
 780 999 l 5
 643 351 l 5
 790 351 l 5
 765 235 l 5
 618 235 l 5
 568 0 l 5
 452 0 l 5
 502 235 l 5
527 351 m 5
 622 800 l 5
 206 351 l 5
 527 351 l 5
EndSplineSet
EndChar
StartChar: five
Encoding: 53 53 23
Width: 768
Flags: W
HStem: -20 119<358 386> 555 116<467 502> 891 122<339 831>
VStem: 626 149<390 432>
DStem: 339 1013 412 891 145 468 313 614
Fore
258 468 m 5
 145 468 l 5
 339 1013 l 5
 857 1013 l 5
 831 891 l 5
 412 891 l 5
 313 614 l 5
 368 652 431 671 502 671 c 4
 549 671 591 665 630 650 c 4
 726 611 775 538 775 432 c 0
 775 400 770 364 761 326 c 4
 745 263 714 202 667 140 c 5
 627 93 577 54 520 24 c 5
 481 7 430 -8 366 -20 c 5
 318 -20 273 -15 231 -3 c 4
 187 11 154 32 129 61 c 5
 104 84 89 108 83 132 c 5
 76 153 71 177 71 206 c 0
 71 207 l 6
 71 257 l 5
 198 257 l 5
 203 219 217 182 240 146 c 5
 267 114 316 99 386 99 c 5
 503 114 580 177 614 288 c 5
 622 326 626 360 626 390 c 0
 626 434 617 468 600 492 c 4
 569 534 524 555 467 555 c 4
 394 555 324 526 258 468 c 5
EndSplineSet
EndChar
StartChar: six
Encoding: 54 54 24
Width: 768
Flags: W
HStem: -11 108<365 397> 535 111<486 526> 762 21G<717 839> 908 114<587 613>
VStem: 108 120<260 286> 647 129<372 390> 721 121<788 813>
Fore
839 762 m 5
 717 762 l 5
 719 774 721 785 721 795 c 0
 721 819 714 839 700 855 c 4
 679 882 650 900 613 908 c 5
 508 908 426 865 366 778 c 4
 316 704 283 633 268 564 c 5
 265 529 l 5
 288 546 309 562 329 579 c 4
 347 594 365 605 383 612 c 4
 407 624 428 632 447 637 c 4
 467 643 493 646 526 646 c 4
 582 646 630 634 666 612 c 4
 703 589 732 560 750 524 c 4
 766 489 775 456 775 425 c 0
 775 419 774 414 774 408 c 5
 776 400 776 392 776 382 c 0
 776 367 774 348 770 327 c 4
 762 291 753 266 740 249 c 5
 720 195 692 151 654 117 c 5
 608 71 566 39 526 20 c 4
 479 -1 425 -11 365 -11 c 4
 317 -11 272 0 230 22 c 4
 192 40 165 69 149 108 c 5
 122 158 108 212 108 270 c 0
 108 276 109 281 109 286 c 4
 114 354 127 436 147 532 c 4
 165 616 193 692 229 759 c 4
 280 852 339 918 407 958 c 5
 475 1000 543 1022 611 1022 c 4
 686 1022 745 998 788 950 c 4
 809 926 824 900 835 870 c 4
 839 856 842 837 842 813 c 0
 842 798 841 781 839 762 c 5
579 186 m 5
 608 217 629 259 640 310 c 4
 645 332 647 354 647 375 c 0
 647 404 642 433 633 462 c 6
 630 468 l 6
 611 513 563 535 486 535 c 4
 455 535 424 528 396 516 c 4
 364 501 338 485 316 466 c 4
 273 430 245 383 234 327 c 4
 230 311 228 294 228 278 c 0
 228 245 236 213 250 181 c 5
 280 125 328 97 393 97 c 4
 402 97 l 0
 468 97 526 127 579 186 c 5
EndSplineSet
EndChar
StartChar: seven
Encoding: 55 55 25
Width: 768
Flags: W
HStem: 0 21G<160 294> 883 116<244 758>
Fore
221 883 m 5
 245 999 l 5
 913 999 l 5
 891 895 l 5
 747 737 l 5
 700 687 641 612 569 512 c 4
 454 356 362 185 294 0 c 5
 160 0 l 5
 219 128 266 222 301 283 c 4
 325 326 375 399 451 502 c 5
 628 726 l 5
 758 883 l 5
 221 883 l 5
EndSplineSet
EndChar
StartChar: eight
Encoding: 56 56 26
Width: 768
Flags: W
HStem: -34 20G<333.5 350.5 360.5 401> -14 21G<348 363> 490 105<453 491> 910 108<549 583>
VStem: 86 131<213 252> 222 125<695 715> 642 129<337 355> 707 127<789 815>
Fore
376 960 m 4
 436 999 501 1018 572 1018 c 4
 658 1018 727 999 777 960 c 4
 800 944 817 914 828 870 c 4
 832 852 834 833 834 815 c 0
 834 794 831 774 827 753 c 4
 816 699 795 657 763 629 c 5
 741 605 706 577 657 545 c 5
 687 540 716 512 744 463 c 4
 762 430 771 393 771 351 c 0
 771 326 768 299 762 271 c 5
 730 183 673 110 590 53 c 5
 514 8 439 -14 363 -14 c 0
 348 -14 l 4
 319 -14 279 -6 229 11 c 4
 194 24 164 45 138 75 c 4
 103 111 86 157 86 213 c 0
 86 231 88 250 92 271 c 4
 105 350 134 409 176 448 c 5
 193 474 237 507 308 545 c 5
 266 584 l 5
 244 612 l 5
 237 622 232 635 227 648 c 5
 223 663 222 679 222 695 c 0
 222 714 224 733 228 753 c 4
 246 838 295 907 376 960 c 4
671 875 m 4
 649 899 613 910 562 910 c 4
 507 910 463 897 427 870 c 4
 388 842 363 803 352 753 c 4
 349 738 347 725 347 713 c 0
 347 704 348 697 350 690 c 4
 359 627 401 595 475 595 c 4
 480 595 485 595 489 595 c 0
 558 595 612 616 649 656 c 4
 678 687 696 719 703 753 c 4
 706 766 707 778 707 789 c 0
 707 823 695 852 671 875 c 4
622 418 m 4
 590 466 540 490 474 490 c 0
 462 490 l 5
 390 490 331 465 283 416 c 4
 251 383 230 340 219 286 c 5
 218 274 217 263 217 252 c 0
 217 214 225 184 243 163 c 5
 260 137 303 117 371 102 c 5
 419 105 469 116 517 136 c 5
 582 173 621 225 635 291 c 4
 639 312 642 330 642 344 c 0
 642 352 641 359 640 365 c 4
 636 390 630 407 622 418 c 4
EndSplineSet
EndChar
StartChar: nine
Encoding: 57 57 27
Width: 768
Flags: W
HStem: -14 119<341 356> 905 114<550 583>
VStem: 100 126<198 220> 716 114<721 739>
Fore
103 241 m 5
 228 241 l 5
 227 233 226 225 226 218 c 0
 226 194 234 172 250 152 c 4
 274 127 305 111 341 105 c 5
 444 105 524 145 580 225 c 5
 596 251 616 287 638 334 c 5
 660 387 673 422 677 440 c 5
 679 476 l 5
 643 439 601 409 552 384 c 4
 531 374 504 365 470 360 c 5
 363 365 l 5
 301 374 253 400 219 445 c 4
 186 488 169 538 167 595 c 5
 170 621 174 648 180 678 c 5
 203 762 l 5
 223 810 254 854 291 891 c 4
 344 941 388 974 424 991 c 5
 468 1009 522 1019 583 1019 c 4
 586 1019 590 1019 594 1019 c 0
 696 1019 765 978 800 897 c 5
 820 855 830 798 830 724 c 0
 830 689 828 649 823 606 c 5
 807 516 l 5
 784 424 l 5
 771 374 749 315 717 246 c 4
 670 151 606 82 529 41 c 4
 478 14 420 -5 355 -14 c 5
 311 -14 269 -10 229 0 c 5
 196 12 169 30 150 53 c 4
 116 94 100 142 100 198 c 0
 100 212 101 226 103 241 c 5
369 822 m 4
 338 790 317 747 305 693 c 4
 301 671 298 650 298 629 c 0
 298 597 304 566 316 537 c 4
 337 489 382 465 450 465 c 0
 459 465 l 4
 487 465 520 474 555 490 c 4
 586 503 611 520 630 540 c 5
 672 575 699 620 710 675 c 4
 714 694 716 712 716 730 c 0
 716 764 710 797 696 828 c 4
 686 852 668 871 642 883 c 4
 616 898 587 905 555 905 c 4
 480 905 418 877 369 822 c 4
EndSplineSet
EndChar
StartChar: colon
Encoding: 58 58 28
Width: 363
Flags: W
HStem: -21 199<174 216> 562 200<297 340>
Fore
96 78 m 4
 101 105 116 128 140 148 c 4
 165 168 190 178 216 178 c 4
 235 178 250 173 262 164 c 5
 276 158 285 146 291 127 c 4
 294 118 296 108 296 99 c 0
 296 92 295 85 294 78 c 4
 288 52 274 29 250 9 c 4
 225 -11 200 -21 174 -21 c 4
 148 -21 127 -11 111 9 c 4
 99 24 93 40 93 58 c 0
 93 65 94 71 96 78 c 4
220 661 m 4
 226 690 241 714 265 734 c 4
 290 753 315 762 340 762 c 4
 366 762 388 753 406 734 c 5
 415 719 420 703 420 685 c 0
 420 678 419 669 418 661 c 4
 412 635 398 612 374 593 c 4
 349 572 323 562 297 562 c 4
 271 562 251 572 235 593 c 4
 223 607 217 623 217 641 c 0
 217 648 218 654 220 661 c 4
EndSplineSet
EndChar
StartChar: semicolon
Encoding: 59 59 29
Width: 365
Flags: W
HStem: 593 199<269 311>
Fore
298 73 m 4
 284 8 254 -42 208 -75 c 4
 164 -109 120 -129 75 -135 c 5
 55 -135 45 -132 45 -126 c 0
 45 -125 46 -125 46 -124 c 4
 46 -120 49 -116 54 -112 c 5
 70 -106 98 -94 137 -73 c 5
 174 -52 195 -28 204 -1 c 5
 184 -5 l 5
 158 -10 l 5
 108 -4 82 19 82 60 c 0
 82 68 83 77 85 87 c 4
 91 114 104 137 125 156 c 4
 145 175 171 184 201 184 c 4
 268 184 300 157 300 103 c 0
 300 94 299 84 298 73 c 4
190 693 m 4
 196 719 211 742 236 763 c 4
 259 783 284 792 311 792 c 4
 327 792 342 788 357 779 c 4
 373 769 384 757 387 742 c 5
 390 734 392 725 392 715 c 0
 392 708 391 701 389 693 c 4
 384 667 369 644 346 624 c 4
 320 604 295 593 269 593 c 4
 242 593 221 604 207 624 c 4
 194 639 188 655 188 674 c 0
 188 680 189 686 190 693 c 4
EndSplineSet
EndChar
StartChar: less
Encoding: 60 60 30
Width: 762
Flags: W
DStem: 112 450 252 499 729 163 752 274 871 835 848 723 132 548 252 499
Fore
871 835 m 5
 848 723 l 5
 252 499 l 5
 752 274 l 5
 729 163 l 5
 112 450 l 5
 132 548 l 5
 871 835 l 5
EndSplineSet
EndChar
StartChar: equal
Encoding: 61 61 31
Width: 762
Flags: W
HStem: 332 97<112 765> 568 97<162 815>
Fore
163 665 m 5
 835 665 l 5
 815 568 l 5
 143 568 l 5
 163 665 l 5
113 429 m 5
 785 429 l 5
 765 332 l 5
 93 332 l 5
 113 429 l 5
EndSplineSet
EndChar
StartChar: greater
Encoding: 62 62 32
Width: 762
Flags: W
DStem: 176 723 199 835 673 499 817 548 673 499 797 450 80 274 57 163
Fore
817 548 m 5
 797 450 l 5
 57 163 l 5
 80 274 l 5
 673 499 l 5
 176 723 l 5
 199 835 l 5
 817 548 l 5
EndSplineSet
EndChar
StartChar: question
Encoding: 63 63 33
Width: 726
Flags: W
HStem: -1 21G<287 415> 918 106<558 590>
VStem: 700 126<798 819>
DStem: 317 143 445 143 287 -1 415 -1
Fore
472 270 m 1
 344 270 l 1
 362 353 l 2
 371 394 391 431 422 462 c 0
 450 492 483 522 523 554 c 2
 527 557 l 1
 574 593 l 1
 616 628 l 1
 651 668 l 1
 676 707 691 740 697 765 c 0
 699 777 700 789 700 800 c 0
 700 815 698 830 693 844 c 1
 680 868 664 887 644 900 c 1
 620 912 592 918 561 918 c 0
 516 918 478 909 448 893 c 0
 418 876 395 854 377 827 c 0
 361 804 351 779 345 752 c 1
 328 697 l 1
 207 697 l 1
 221 761 243 816 273 862 c 1
 300 910 342 948 397 978 c 1
 450 1009 515 1024 590 1024 c 1
 638 1022 l 1
 698 1015 742 996 770 966 c 0
 800 936 817 904 823 869 c 0
 825 852 826 836 826 819 c 0
 826 798 824 778 820 758 c 0
 813 725 803 694 787 666 c 1
 766 622 702 560 594 478 c 0
 564 455 540 435 526 418 c 0
 507 398 494 370 486 335 c 2
 472 270 l 1
287 -1 m 1
 317 143 l 1
 445 143 l 1
 415 -1 l 5
 287 -1 l 1
EndSplineSet
EndChar
StartChar: at
Encoding: 64 64 34
Width: 1330
Flags: W
HStem: -193 104<544 594> 85 97<884 941> 92 88<527 587> 633 102<773 800> 930 104<832 885>
VStem: 33 127<244 286> 351 129<281 304> 1249 115<556 615>
DStem: 994 702 1110 702 945 610 888 287
Fore
1110 702 m 1
 888 287 l 2
 878 268 872 254 870 245 c 0
 869 240 868 235 868 230 c 0
 868 223 870 215 873 207 c 0
 882 191 904 182 941 182 c 1
 985 192 1023 209 1057 233 c 0
 1093 260 1122 286 1142 311 c 0
 1193 376 1229 455 1248 548 c 1
 1249 551 1249 553 1249 556 c 0
 1249 591 1243 629 1232 669 c 0
 1222 710 1206 745 1185 772 c 0
 1165 800 1128 830 1076 861 c 0
 1022 891 969 912 914 923 c 0
 887 927 860 930 832 930 c 0
 768 930 705 918 644 895 c 0
 589 875 533 846 475 807 c 1
 418 768 366 720 317 664 c 0
 269 607 236 561 219 525 c 0
 195 475 180 432 172 395 c 0
 164 358 160 322 160 286 c 0
 160 248 165 211 173 175 c 0
 184 134 212 93 255 50 c 1
 299 4 348 -32 402 -56 c 0
 450 -78 510 -89 580 -89 c 0
 665 -89 760 -72 864 -40 c 1
 884 -133 l 1
 765 -173 656 -193 556 -193 c 0
 482 -193 411 -181 343 -159 c 1
 293 -139 237 -104 174 -54 c 0
 111 -3 71 55 50 119 c 0
 39 158 33 199 33 244 c 0
 33 286 38 330 48 377 c 0
 59 428 75 474 95 515 c 0
 133 587 178 655 229 719 c 1
 286 788 355 847 435 897 c 0
 474 923 520 947 572 969 c 1
 629 991 682 1007 734 1018 c 0
 789 1028 839 1034 885 1034 c 0
 892 1034 898 1034 905 1034 c 0
 970 1031 1043 1012 1124 976 c 0
 1195 943 1252 896 1295 835 c 1
 1327 786 1346 743 1354 705 c 0
 1361 673 1364 643 1364 615 c 0
 1364 594 1362 573 1358 554 c 0
 1347 494 1331 443 1309 402 c 0
 1292 369 1268 331 1237 289 c 0
 1211 252 1177 215 1137 180 c 0
 1094 141 1045 114 991 99 c 0
 961 90 926 85 884 85 c 0
 852 85 831 88 818 92 c 0
 793 99 775 113 764 134 c 1
 754 151 748 167 748 183 c 0
 748 189 l 1
 715 161 l 2
 705 152 691 142 672 131 c 0
 653 119 631 110 603 104 c 0
 577 96 552 92 527 92 c 0
 499 92 475 97 454 106 c 0
 419 121 395 141 382 166 c 1
 369 188 360 215 354 247 c 0
 352 258 351 269 351 281 c 0
 351 301 353 322 358 344 c 0
 365 375 373 402 385 426 c 0
 434 531 504 613 597 671 c 0
 663 714 730 735 800 735 c 0
 818 735 835 733 849 728 c 0
 874 720 898 704 918 680 c 1
 933 654 942 631 945 610 c 1
 994 702 l 1
 1110 702 l 1
877 534 m 1
 878 541 878 548 878 555 c 0
 878 571 875 584 869 594 c 0
 859 609 841 620 814 627 c 1
 804 631 791 633 774 633 c 0
 741 633 707 624 673 605 c 0
 640 587 612 566 589 541 c 0
 567 517 546 485 526 446 c 0
 505 410 492 376 485 344 c 0
 482 329 480 315 480 302 c 0
 480 277 486 253 499 233 c 1
 516 198 545 180 587 180 c 1
 623 185 l 1
 668 197 709 226 748 272 c 1
 769 295 794 336 825 393 c 0
 851 449 868 496 877 534 c 1
EndSplineSet
EndChar
StartChar: A
Encoding: 65 65 35
Width: 889
Flags: W
HStem: 0 21G<-12 127 727 873> 303 110<358 687> 991 20G<571 731>
DStem: 571 1011 617 854 -12 0 358 413 571 1011 301 303 -12 0 127 0 687 303 731 1011 727 0 873 0
Fore
301 303 m 5
 127 0 l 5
 -12 0 l 5
 571 1011 l 5
 731 1011 l 5
 873 0 l 5
 727 0 l 5
 687 303 l 5
 301 303 l 5
617 854 m 5
 358 413 l 5
 674 413 l 5
 617 854 l 5
EndSplineSet
EndChar
StartChar: B
Encoding: 66 66 36
Width: 869
Flags: W
HStem: 0 115<208 555> 463 115<307 577> 898 113<267 629>
VStem: 749 129<335 354> 794 137<777 789> 794 138<777 814>
DStem: 267 1011 375 898 52 0 307 578 267 1011 282 463 52 0 208 115
Fore
553 0 m 6
 52 0 l 5
 267 1011 l 5
 717 1011 l 6
 756 1011 789 1003 818 987 c 4
 850 971 875 951 894 928 c 4
 919 897 932 859 932 814 c 0
 932 806 931 797 931 789 c 5
 903 657 843 573 750 537 c 5
 793 514 l 5
 810 503 825 489 837 472 c 4
 854 451 866 425 873 395 c 4
 876 383 878 368 878 352 c 0
 878 330 875 303 868 273 c 4
 853 211 825 161 787 123 c 4
 746 82 706 52 664 33 c 4
 619 11 582 0 553 0 c 6
375 898 m 5
 307 578 l 5
 577 578 l 6
 645 578 695 595 727 627 c 4
 759 660 781 706 794 766 c 5
 794 770 794 773 794 777 c 0
 794 820 774 851 734 870 c 5
 687 889 646 898 612 898 c 6
 375 898 l 5
282 463 m 5
 208 115 l 5
 535 115 l 6
 595 115 642 135 675 174 c 5
 711 212 735 260 748 320 c 5
 749 327 749 334 749 340 c 0
 749 385 734 417 703 435 c 5
 666 454 610 463 537 463 c 6
 282 463 l 5
EndSplineSet
EndChar
StartChar: C
Encoding: 67 67 37
Width: 943
Flags: W
HStem: -32 119<445 477> 913 118<651 675>
VStem: 98 137<345 385>
Fore
1012 699 m 1
 878 699 l 1
 870 745 858 784 839 815 c 0
 828 837 812 855 792 869 c 0
 766 887 744 898 726 904 c 0
 707 910 683 913 653 913 c 0
 613 913 570 904 527 887 c 0
 484 871 446 847 411 815 c 1
 370 774 336 728 311 676 c 0
 281 618 260 558 247 498 c 0
 239 462 235 424 235 385 c 0
 235 365 236 345 238 325 c 0
 244 265 257 218 277 184 c 0
 316 119 382 87 477 87 c 0
 565 87 641 119 705 184 c 0
 728 206 750 233 772 267 c 0
 797 304 816 338 829 371 c 1
 960 371 l 1
 914 247 842 147 746 72 c 0
 716 49 674 26 617 3 c 0
 557 -20 499 -32 445 -32 c 4
 390 -32 338 -20 288 3 c 0
 239 23 205 46 184 72 c 0
 139 128 112 193 103 267 c 0
 100 293 98 319 98 345 c 0
 98 395 104 446 115 498 c 0
 132 578 160 656 202 732 c 0
 244 807 298 872 366 926 c 1
 395 951 439 974 499 996 c 0
 563 1019 620 1031 671 1031 c 0
 721 1031 774 1019 828 996 c 0
 875 975 909 952 928 926 c 1
 974 874 1002 798 1012 699 c 1
EndSplineSet
EndChar
StartChar: D
Encoding: 68 68 38
Width: 940
Flags: W
HStem: 0 115<218 525> 898 113<278 656>
VStem: 863 131<650 680>
DStem: 278 1011 385 898 63 0 218 115
Fore
525 0 m 6
 63 0 l 5
 278 1011 l 5
 669 1011 l 6
 777 1011 861 975 923 903 c 5
 970 844 994 770 994 680 c 0
 994 654 992 627 988 599 c 4
 985 568 979 535 972 502 c 4
 940 355 881 238 791 150 c 4
 740 99 690 62 642 39 c 5
 592 13 544 0 525 0 c 6
632 898 m 6
 385 898 l 5
 218 115 l 5
 500 115 l 6
 534 115 571 122 609 137 c 4
 631 145 660 167 698 203 c 4
 731 236 755 267 769 296 c 4
 802 372 827 441 843 502 c 5
 856 558 863 608 863 652 c 0
 863 697 856 735 843 768 c 4
 808 855 738 898 632 898 c 6
EndSplineSet
EndChar
StartChar: E
Encoding: 69 69 39
Width: 869
Flags: W
HStem: 0 115<222 796> 463 115<321 847> 898 113<284 963>
DStem: 284 1011 389 898 69 0 321 578 284 1011 296 463 69 0 222 115
Fore
69 0 m 5
 284 1011 l 5
 987 1011 l 5
 963 898 l 5
 389 898 l 5
 321 578 l 5
 872 578 l 5
 847 463 l 5
 296 463 l 5
 222 115 l 5
 820 115 l 5
 796 0 l 5
 69 0 l 5
EndSplineSet
EndChar
StartChar: F
Encoding: 70 70 40
Width: 795
Flags: W
HStem: 0 21G<72 201> 463 115<324 780> 898 113<287 941>
DStem: 287 1011 392 898 72 0 324 578 287 1011 299 463 72 0 201 0
Fore
72 0 m 5
 287 1011 l 5
 965 1011 l 5
 941 898 l 5
 392 898 l 5
 324 578 l 5
 805 578 l 5
 780 463 l 5
 299 463 l 5
 201 0 l 5
 72 0 l 5
EndSplineSet
EndChar
StartChar: G
Encoding: 71 71 41
Width: 1020
Flags: W
HStem: -32 114<447 507> -4 21G<840 922> 422 115<613 898> 913 118<681 715>
VStem: 90 135<359 390> 937 127<719 741>
Fore
590 422 m 1
 614 537 l 1
 1037 537 l 1
 922 -4 l 1
 840 -4 l 1
 836 120 l 1
 769 71 708 32 654 5 c 0
 603 -20 534 -32 447 -32 c 4
 404 -32 357 -21 304 1 c 0
 256 20 219 42 192 65 c 1
 144 115 112 180 98 262 c 1
 93 297 90 331 90 363 c 0
 90 410 95 454 105 496 c 0
 115 539 132 589 159 648 c 0
 182 703 212 754 247 800 c 0
 278 843 321 885 375 926 c 0
 411 952 460 976 520 996 c 0
 589 1019 652 1031 709 1031 c 0
 714 1031 720 1031 725 1031 c 0
 808 1031 871 1016 916 988 c 1
 984 950 1027 906 1043 857 c 0
 1057 819 1064 780 1064 739 c 0
 1064 728 1063 718 1062 707 c 1
 935 707 l 1
 936 714 937 721 937 729 c 0
 937 771 919 811 882 848 c 0
 838 891 772 913 684 913 c 0
 639 913 592 904 544 887 c 0
 494 870 451 846 416 815 c 0
 376 781 340 735 307 676 c 0
 274 622 251 562 237 496 c 0
 229 458 225 423 225 388 c 0
 225 365 227 342 231 320 c 0
 239 262 256 215 281 179 c 0
 329 114 405 82 507 82 c 0
 579 82 642 98 695 131 c 0
 734 153 767 179 796 209 c 0
 824 236 844 263 856 290 c 1
 870 316 880 339 884 359 c 2
 898 422 l 1
 590 422 l 1
EndSplineSet
EndChar
StartChar: H
Encoding: 72 72 42
Width: 943
Flags: W
HStem: 0 21G<57 187 706 836> 463 115<310 804> 991 20G<272 402 921 1051>
DStem: 272 1011 402 1011 57 0 310 578 272 1011 285 463 57 0 187 0 804 463 1051 1011 706 0 836 0 921 1011 1051 1011 829 578 836 0
Fore
706 0 m 5
 804 463 l 5
 285 463 l 5
 187 0 l 5
 57 0 l 5
 272 1011 l 5
 402 1011 l 5
 310 578 l 5
 829 578 l 5
 921 1011 l 5
 1051 1011 l 5
 836 0 l 5
 706 0 l 5
EndSplineSet
EndChar
StartChar: I
Encoding: 73 73 43
Width: 362
Flags: W
HStem: 0 21G<116 246> 991 20G<331 461>
DStem: 331 1011 461 1011 116 0 246 0
Fore
116 0 m 5
 331 1011 l 5
 461 1011 l 5
 246 0 l 5
 116 0 l 5
EndSplineSet
EndChar
StartChar: J
Encoding: 74 74 44
Width: 658
Flags: W
HStem: -32 114<246 280> 992 20G<641 772>
VStem: 28 134<171 189>
DStem: 641 1012 772 1012 495 325 602 211
Fore
56 323 m 5
 188 323 l 5
 166 221 l 6
 163 209 162 197 162 187 c 0
 162 165 168 147 178 133 c 5
 191 109 213 93 241 87 c 5
 278 82 l 5
 331 82 380 102 421 142 c 4
 450 171 475 232 495 325 c 6
 641 1012 l 5
 772 1012 l 5
 602 211 l 5
 569 120 512 51 431 5 c 4
 386 -20 324 -32 246 -32 c 0
 240 -32 233 -32 227 -32 c 4
 143 -30 87 0 58 56 c 4
 38 96 28 134 28 172 c 0
 28 186 30 201 33 215 c 6
 56 323 l 5
EndSplineSet
EndChar
StartChar: K
Encoding: 75 75 45
Width: 866
Flags: W
HStem: 0 21G<50 182 701 851> 991 20G<265 397 899 1070>
DStem: 265 1011 397 1011 50 0 291 512 265 1011 255 344 50 0 182 0 456 509 563 599 701 0 851 0 899 1011 1070 1011 291 512 563 599
Fore
265 1011 m 5
 397 1011 l 5
 291 512 l 5
 899 1011 l 5
 1070 1011 l 5
 563 599 l 5
 851 0 l 5
 701 0 l 5
 456 509 l 5
 255 344 l 5
 182 0 l 5
 50 0 l 5
 265 1011 l 5
EndSplineSet
EndChar
StartChar: L
Encoding: 76 76 46
Width: 723
Flags: W
HStem: 0 115<216 691> 991 20G<277 407>
DStem: 277 1011 407 1011 62 0 216 115
Fore
277 1011 m 5
 407 1011 l 5
 216 115 l 5
 715 115 l 5
 691 0 l 5
 62 0 l 5
 277 1011 l 5
EndSplineSet
EndChar
StartChar: M
Encoding: 77 77 47
Width: 1090
Flags: W
HStem: 0 21G<37 171 447 581 856 990> 991 20G<252 437 1021 1205>
DStem: 252 1011 346 821 37 0 171 0 346 821 437 1011 447 0 546 150 1021 1011 1031 821 546 150 581 0 1031 821 1205 1011 856 0 990 0
Fore
581 0 m 5
 447 0 l 5
 346 821 l 5
 171 0 l 5
 37 0 l 5
 252 1011 l 5
 437 1011 l 5
 546 150 l 5
 1021 1011 l 5
 1205 1011 l 5
 990 0 l 5
 856 0 l 5
 1031 821 l 5
 581 0 l 5
EndSplineSet
EndChar
StartChar: N
Encoding: 78 78 48
Width: 943
Flags: W
HStem: 0 21G<48 178 690 840> 991 20G<263 416 923 1055>
DStem: 263 1011 350 810 48 0 178 0 923 1011 1055 1011 749 192 840 0
Fore
840 0 m 5
 690 0 l 5
 350 810 l 5
 178 0 l 5
 48 0 l 5
 263 1011 l 5
 416 1011 l 5
 749 192 l 5
 923 1011 l 5
 1055 1011 l 5
 840 0 l 5
EndSplineSet
EndChar
StartChar: O
Encoding: 79 79 49
Width: 1018
Flags: W
HStem: -32 119<466 499> 913 118<671 700>
VStem: 83 133<365 401> 953 135<607 641>
Fore
698 1031 m 0
 756 1031 815 1019 874 996 c 0
 930 974 968 950 987 926 c 1
 1035 873 1066 809 1079 732 c 0
 1085 700 1088 667 1088 632 c 0
 1088 589 1083 544 1073 498 c 0
 1056 417 1024 340 980 267 c 1
 937 191 879 126 805 72 c 0
 777 52 729 29 663 3 c 0
 599 -20 535 -32 472 -32 c 4
 412 -32 355 -20 299 3 c 0
 249 22 211 45 184 72 c 0
 135 125 104 191 92 267 c 1
 86 300 83 333 83 367 c 0
 83 410 87 453 97 498 c 0
 106 543 123 594 147 650 c 0
 172 708 204 760 239 804 c 0
 270 845 311 885 366 926 c 0
 400 952 448 975 510 996 c 0
 581 1019 643 1031 698 1031 c 0
673 913 m 0
 629 913 582 904 534 887 c 0
 484 870 442 846 407 815 c 1
 369 784 332 737 296 676 c 1
 264 616 241 557 229 498 c 0
 220 458 216 421 216 385 c 0
 216 363 218 343 221 323 c 0
 229 268 246 221 273 184 c 0
 318 119 393 87 497 87 c 0
 601 87 690 119 763 184 c 1
 804 218 841 264 875 323 c 0
 908 385 930 444 942 498 c 0
 949 534 953 571 953 610 c 0
 953 632 952 654 950 676 c 0
 940 736 923 782 897 815 c 0
 873 849 841 872 805 887 c 0
 763 904 719 913 673 913 c 0
EndSplineSet
EndChar
StartChar: P
Encoding: 80 80 50
Width: 868
Flags: W
HStem: 0 21G<71 200> 428 115<315 648> 898 113<286 696>
VStem: 827 135<766 796>
DStem: 286 1011 391 898 71 0 315 543 286 1011 291 428 71 0 200 0
Fore
71 0 m 5
 286 1011 l 5
 709 1011 l 6
 786 1011 849 993 899 956 c 4
 941 924 962 870 962 796 c 0
 962 786 962 776 961 766 c 5
 952 715 l 5
 932 621 888 550 821 502 c 4
 752 453 688 428 627 428 c 6
 291 428 l 5
 200 0 l 5
 71 0 l 5
391 898 m 5
 315 543 l 5
 646 543 l 6
 668 543 701 559 744 590 c 5
 786 622 812 669 823 731 c 4
 826 744 827 757 827 768 c 0
 827 808 814 839 789 861 c 4
 759 886 724 898 682 898 c 6
 391 898 l 5
EndSplineSet
EndChar
StartChar: Q
Encoding: 81 81 51
Width: 1018
Flags: W
HStem: -32 119<466 497> 912 118<668 700>
VStem: 83 133<365 400> 953 135<606 640>
DStem: 583 206 663 285 668 124 768 184 754 38 847 107 872 -81 956 0
Fore
847 107 m 5
 956 0 l 5
 872 -81 l 5
 754 38 l 5
 658 -7 564 -30 472 -32 c 4
 412 -32 355 -21 299 3 c 4
 249 22 211 45 184 72 c 4
 135 125 103 190 92 267 c 5
 86 300 83 333 83 367 c 0
 83 410 87 453 97 498 c 4
 106 543 123 594 147 650 c 4
 172 708 203 759 239 804 c 4
 270 845 311 885 366 926 c 4
 400 952 448 975 510 996 c 4
 581 1019 643 1030 698 1030 c 4
 756 1030 815 1019 874 996 c 4
 930 973 968 950 987 926 c 5
 1035 873 1066 808 1079 732 c 4
 1085 700 1088 667 1088 632 c 0
 1088 589 1083 544 1073 498 c 4
 1057 425 1031 355 994 285 c 4
 956 216 906 156 847 107 c 5
668 124 m 5
 583 206 l 5
 663 285 l 5
 768 184 l 5
 793 205 818 233 842 269 c 4
 868 308 889 344 904 378 c 4
 921 419 934 459 942 498 c 4
 949 534 953 571 953 610 c 0
 953 632 952 654 950 676 c 4
 940 736 923 782 897 815 c 4
 873 848 841 872 804 886 c 4
 763 904 719 912 673 912 c 4
 629 912 582 904 533 886 c 4
 484 870 442 846 407 815 c 5
 369 784 332 737 296 676 c 5
 264 616 241 556 229 498 c 4
 220 458 216 420 216 385 c 0
 216 364 218 343 221 323 c 4
 229 268 246 221 273 184 c 4
 318 119 393 87 497 87 c 4
 559 87 616 99 668 124 c 5
EndSplineSet
EndChar
StartChar: R
Encoding: 82 82 52
Width: 939
Flags: W
HStem: 0 21G<68 197 725 881> 435 115<314 645> 898 113<283 741>
VStem: 720 140<65 113> 756 139<319 383> 868 143<768 831>
DStem: 283 1011 388 898 68 0 314 550 283 1011 289 435 68 0 197 0
Fore
68 0 m 5
 283 1011 l 5
 734 1011 l 6
 835 1011 908 995 956 963 c 4
 992 938 1011 894 1011 831 c 0
 1011 808 1008 783 1003 755 c 4
 992 689 972 640 944 607 c 5
 922 578 879 542 815 499 c 5
 861 468 888 438 893 409 c 4
 894 402 895 393 895 383 c 0
 895 351 889 303 877 241 c 4
 866 175 860 129 860 103 c 0
 860 102 860 100 860 99 c 4
 861 70 870 48 888 33 c 5
 881 0 l 5
 725 0 l 5
 721 17 720 38 720 65 c 0
 720 83 720 104 722 128 c 5
 747 245 l 6
 753 272 756 296 756 319 c 0
 756 344 752 366 745 386 c 4
 731 419 690 435 622 435 c 6
 289 435 l 5
 197 0 l 5
 68 0 l 5
715 898 m 6
 388 898 l 5
 314 550 l 5
 641 550 l 6
 754 550 828 601 861 704 c 5
 866 727 868 749 868 768 c 0
 868 854 817 898 715 898 c 6
EndSplineSet
EndChar
StartChar: S
Encoding: 83 83 53
Width: 871
Flags: W
HStem: -32 119<402 481> 919 111<581 619>
VStem: 70 127<209 271> 733 144<296 335> 808 128<762 791>
Fore
928 718 m 1
 803 718 l 1
 806 734 808 748 808 762 c 0
 808 811 787 850 747 880 c 0
 722 897 697 908 673 913 c 0
 649 917 619 919 586 919 c 0
 514 919 457 902 414 869 c 0
 366 833 338 794 329 751 c 0
 327 741 326 732 326 723 c 0
 326 712 328 700 332 690 c 0
 338 673 352 657 370 641 c 1
 389 629 433 614 501 594 c 2
 512 591 l 2
 593 570 671 548 747 524 c 1
 790 507 823 477 849 433 c 0
 868 401 877 368 877 335 c 0
 877 322 876 310 873 297 c 0
 861 230 832 172 785 120 c 0
 739 71 683 34 616 7 c 1
 545 -19 474 -32 403 -32 c 4
 329 -30 269 -20 224 -2 c 0
 175 16 137 48 108 96 c 0
 86 131 73 166 71 200 c 1
 70 203 70 206 70 209 c 0
 70 241 74 279 82 323 c 1
 203 323 l 1
 199 306 197 288 197 271 c 0
 197 240 203 210 214 181 c 1
 231 133 277 102 350 91 c 0
 377 88 420 87 481 87 c 1
 548 93 599 110 635 135 c 0
 688 173 719 218 730 270 c 0
 732 279 733 287 733 296 c 0
 733 331 717 362 685 389 c 1
 650 409 583 430 485 454 c 0
 429 467 390 478 368 489 c 1
 293 517 l 1
 227 539 195 588 195 664 c 0
 195 676 196 689 197 702 c 1
 210 763 235 820 273 871 c 0
 309 920 355 960 411 988 c 0
 467 1016 533 1030 607 1030 c 0
 713 1030 791 1012 842 977 c 0
 904 931 936 869 936 791 c 0
 936 768 933 744 928 718 c 1
EndSplineSet
EndChar
StartChar: T
Encoding: 84 84 54
Width: 799
Flags: W
HStem: 0 21G<315 444> 898 113<195 506 196 966>
DStem: 506 898 635 898 315 0 444 0
Fore
315 0 m 5
 506 898 l 5
 172 898 l 5
 196 1011 l 5
 990 1011 l 5
 966 898 l 5
 635 898 l 5
 444 0 l 5
 315 0 l 5
EndSplineSet
EndChar
StartChar: U
Encoding: 85 85 55
Width: 942
Flags: W
HStem: -32 112<440 468> 992 20G<274 404 923 1053>
VStem: 114 133<234 255>
DStem: 274 1012 404 1012 119 283 251 290 923 1012 1053 1012 770 290 898 283
Fore
274 1012 m 5
 404 1012 l 5
 251 290 l 6
 248 278 247 265 247 253 c 0
 247 216 259 181 282 146 c 4
 316 102 376 80 466 80 c 4
 555 80 625 102 677 146 c 4
 728 192 759 240 770 290 c 6
 923 1012 l 5
 1053 1012 l 5
 898 283 l 6
 893 258 879 226 859 186 c 4
 839 150 810 115 773 82 c 4
 738 49 692 22 633 1 c 4
 575 -21 511 -32 442 -32 c 4
 348 -32 276 -15 226 19 c 4
 176 53 144 96 128 146 c 4
 119 177 114 206 114 235 c 0
 114 251 116 267 119 283 c 6
 274 1012 l 5
EndSplineSet
EndChar
StartChar: V
Encoding: 86 86 56
Width: 871
Flags: W
HStem: 0 21G<346 485> 991 20G<203 342 918 1057>
DStem: 203 1011 342 1011 346 0 454 155
Fore
454 155 m 5
 918 1011 l 5
 1057 1011 l 5
 485 0 l 5
 346 0 l 5
 203 1011 l 5
 342 1011 l 5
 454 155 l 5
EndSplineSet
EndChar
StartChar: W
Encoding: 87 87 57
Width: 1233
Flags: W
HStem: 0 21G<211 352 812 956> 991 20G<170 315 727 868 1285 1428>
DStem: 727 1011 757 824 330 196 352 0 757 824 868 1011 812 0 920 196
Fore
920 196 m 5
 1285 1011 l 5
 1428 1011 l 5
 956 0 l 5
 812 0 l 5
 757 824 l 5
 352 0 l 5
 211 0 l 5
 170 1011 l 5
 315 1011 l 5
 330 196 l 5
 727 1011 l 5
 868 1011 l 5
 920 196 l 5
EndSplineSet
EndChar
StartChar: X
Encoding: 88 88 58
Width: 871
Flags: W
HStem: 0 21G<-23 139 687 847> 991 20G<217 374 890 1047>
DStem: 217 1011 374 1011 443 518 550 625 443 518 505 412 -23 0 139 0 890 1011 1047 1011 550 625 604 518
Fore
1047 1011 m 5
 604 518 l 5
 847 0 l 5
 687 0 l 5
 505 412 l 5
 139 0 l 5
 -23 0 l 5
 443 518 l 5
 217 1011 l 5
 374 1011 l 5
 550 625 l 5
 890 1011 l 5
 1047 1011 l 5
EndSplineSet
EndChar
StartChar: Y
Encoding: 89 89 59
Width: 871
Flags: W
HStem: 0 21G<351 483> 991 20G<179 340 920 1080>
DStem: 435 395 567 395 351 0 483 0
Fore
179 1011 m 5
 340 1011 l 5
 527 521 l 5
 920 1011 l 5
 1080 1011 l 5
 567 395 l 5
 483 0 l 5
 351 0 l 5
 435 395 l 5
 179 1011 l 5
EndSplineSet
MinimumDistance: x0,4 
EndChar
StartChar: Z
Encoding: 90 90 60
Width: 799
Flags: W
HStem: 0 115<179 761> 898 113<246 785>
DStem: 785 898 949 894 15 111 179 115
Fore
223 898 m 5
 247 1011 l 5
 974 1011 l 5
 949 894 l 5
 179 115 l 5
 785 115 l 5
 761 0 l 5
 -9 0 l 5
 15 111 l 5
 785 898 l 5
 223 898 l 5
EndSplineSet
EndChar
StartChar: bracketleft
Encoding: 91 91 61
Width: 361
Flags: W
HStem: -279 104<144 263> 924 104<282 518>
DStem: 282 1028 377 924 4 -279 144 -175
Fore
282 1028 m 1
 541 1028 l 1
 518 924 l 1
 377 924 l 1
 144 -175 l 1
 285 -175 l 1
 263 -279 l 1
 4 -279 l 1
 282 1028 l 1
EndSplineSet
EndChar
StartChar: backslash
Encoding: 92 92 62
Width: 364
Flags: W
HStem: -27 21G<290 365> 993 20G<182 257>
DStem: 182 1013 257 1013 290 -27 365 -27
Fore
290 -27 m 1
 182 1013 l 1
 257 1013 l 1
 365 -27 l 1
 290 -27 l 1
EndSplineSet
EndChar
StartChar: bracketright
Encoding: 93 93 63
Width: 367
Flags: W
HStem: -281 104<-25 211> 924 104<232 349>
DStem: 349 924 490 1028 115 -177 211 -281
Fore
210 924 m 1
 233 1028 l 1
 490 1028 l 1
 211 -281 l 1
 -46 -281 l 1
 -24 -177 l 1
 115 -177 l 1
 349 924 l 1
 210 924 l 1
EndSplineSet
EndChar
StartChar: asciicircum
Encoding: 94 94 64
Width: 612
Flags: W
DStem: 443 965 467 847 116 438 213 438 467 847 545 965 548 438 645 438
Fore
116 438 m 1
 443 965 l 1
 545 965 l 1
 645 438 l 1
 548 438 l 1
 467 847 l 1
 213 438 l 1
 116 438 l 1
EndSplineSet
EndChar
StartChar: underscore
Encoding: 95 95 65
Width: 728
Flags: W
HStem: -161 69<-96 725>
Fore
739 -92 m 1
 725 -161 l 1
 -109 -161 l 1
 -95 -92 l 1
 739 -92 l 1
EndSplineSet
EndChar
StartChar: grave
Encoding: 96 96 66
Width: 374
Flags: W
HStem: 828 183<273 480>
Fore
480 828 m 1
 385 828 l 1
 273 1011 l 5
 430 1011 l 1
 480 828 l 1
EndSplineSet
EndChar
StartChar: a
Encoding: 97 97 67
Width: 726
Flags: W
HStem: -16 99<261 279> 662 105<452 482>
VStem: 49 124<151 173> 618 131<590 634>
DStem: 572 373 746 613 541 227 643 125
Fore
746 613 m 2
 643 125 l 2
 642 123 642 122 642 120 c 0
 642 112 647 104 657 96 c 0
 670 88 689 83 714 83 c 1
 696 -1 l 1
 596 -16 l 1
 543 2 516 32 516 75 c 0
 516 80 517 86 517 91 c 1
 462 54 420 29 390 14 c 0
 347 -6 304 -16 263 -16 c 0
 259 -16 256 -16 252 -16 c 0
 180 -16 126 4 89 45 c 0
 62 73 49 109 49 151 c 0
 49 170 52 191 57 213 c 0
 68 264 92 306 130 341 c 1
 167 370 206 390 250 403 c 0
 282 413 316 421 352 426 c 0
 387 432 422 436 456 438 c 2
 530 445 l 1
 571 456 594 475 599 500 c 2
 618 589 l 5
 618 590 l 0
 618 614 601 633 568 644 c 0
 534 656 495 662 452 662 c 0
 445 662 439 662 433 662 c 0
 347 660 293 615 267 529 c 1
 159 529 l 1
 175 591 l 1
 188 620 208 647 234 672 c 0
 262 699 293 720 328 734 c 1
 355 747 400 758 464 767 c 1
 514 767 561 763 604 755 c 0
 655 743 692 725 717 702 c 0
 738 682 749 660 749 634 c 0
 749 627 748 620 746 613 c 2
541 227 m 2
 572 373 l 1
 545 362 512 355 474 350 c 2
 361 332 l 1
 326 325 295 317 266 308 c 1
 250 300 231 288 213 271 c 0
 194 256 183 235 177 209 c 0
 175 196 173 184 173 173 c 0
 173 149 180 130 194 116 c 0
 217 94 245 83 277 83 c 0
 280 83 284 83 287 83 c 0
 325 83 365 93 406 112 c 0
 443 129 475 150 501 174 c 0
 525 199 539 216 541 227 c 2
EndSplineSet
EndChar
StartChar: b
Encoding: 98 98 68
Width: 726
Flags: W
HStem: -31 112<351 376.2> 1 21G<28 130> 633 119<491 531> 993 20G<243 361>
DStem: 243 1013 361 1013 28 1 282 642
Fore
243 1013 m 1
 361 1013 l 5
 282 642 l 1
 297 663 324 685 363 708 c 1
 393 722 419 733 440 740 c 0
 472 748 502 752 531 752 c 0
 615 752 679 721 723 659 c 0
 741 635 753 609 759 580 c 1
 769 550 774 520 774 491 c 0
 774 488 774 486 774 483 c 0
 773 452 769 415 760 370 c 1
 745 317 l 1
 729 251 698 187 652 127 c 0
 607 66 557 24 500 -1 c 0
 456 -21 405 -31 349 -31 c 0
 296 -31 257 -21 232 -1 c 0
 187 34 159 62 148 83 c 1
 130 1 l 1
 28 1 l 1
 243 1013 l 1
517 147 m 0
 572 205 607 277 626 366 c 0
 633 402 638 435 638 466 c 0
 638 471 637 476 637 481 c 0
 637 482 637 482 637 483 c 0
 637 512 630 539 616 562 c 1
 598 609 556 633 491 633 c 0
 487 633 484 633 480 633 c 0
 418 633 365 610 321 564 c 1
 301 540 280 510 263 476 c 0
 242 432 226 389 217 349 c 0
 211 321 208 295 208 269 c 0
 208 230 215 193 229 159 c 0
 248 114 289 88 351 81 c 1
 421 81 477 103 517 147 c 0
EndSplineSet
EndChar
StartChar: c
Encoding: 99 99 69
Width: 689
Flags: W
HStem: -32 112<314 347> 644 107<467 487>
VStem: 66 123<228 257> 608 122<484 544> 609 121<512 544>
Fore
564 253 m 5
 676 253 l 5
 660 192 636 143 604 105 c 4
 569 61 525 27 470 3 c 4
 414 -21 362 -32 314 -32 c 0
 302 -32 l 4
 255 -32 207 -17 159 12 c 4
 117 38 91 76 78 124 c 4
 70 156 66 192 66 230 c 0
 66 273 71 320 82 371 c 4
 108 481 162 574 245 650 c 5
 314 715 394 749 485 751 c 4
 528 751 564 745 597 734 c 4
 632 723 658 707 677 686 c 5
 700 670 716 644 722 608 c 4
 727 588 730 566 730 544 c 0
 730 525 728 505 725 484 c 5
 608 484 l 5
 608 494 609 504 609 512 c 0
 609 541 606 561 602 575 c 4
 593 595 581 611 561 621 c 4
 531 636 500 644 467 644 c 4
 412 641 359 616 308 568 c 4
 262 527 230 466 211 387 c 5
 197 333 189 287 189 249 c 0
 189 227 192 208 197 191 c 4
 218 116 268 80 347 80 c 0
 350 80 352 80 354 80 c 4
 382 80 412 88 445 105 c 4
 476 122 497 140 510 158 c 4
 535 193 553 225 564 253 c 5
EndSplineSet
EndChar
StartChar: d
Encoding: 100 100 70
Width: 731
Flags: W
HStem: -31 112<312 349> -1 21G<544 645> 631 121<463 478> 993 20G<745 860>
VStem: 61 130<247 273>
DStem: 745 1013 860 1013 666 642 645 -1
Fore
745 1013 m 1
 860 1013 l 5
 645 -1 l 1
 544 -1 l 1
 562 85 l 1
 522 48 483 18 443 -3 c 0
 411 -22 367 -31 312 -31 c 0
 257 -31 211 -21 173 -1 c 0
 129 24 98 65 80 125 c 0
 67 163 61 204 61 249 c 0
 61 270 62 292 65 314 c 1
 75 372 l 1
 86 425 106 478 133 532 c 0
 163 586 194 628 231 657 c 0
 307 720 385 752 463 752 c 0
 524 752 574 737 612 708 c 1
 641 684 660 662 666 642 c 1
 745 1013 l 1
219 145 m 0
 242 102 286 81 349 81 c 0
 351 81 354 81 357 81 c 0
 384 81 414 88 446 103 c 0
 473 117 496 135 516 159 c 0
 559 214 589 276 604 346 c 0
 610 378 614 410 614 440 c 0
 614 452 614 464 612 476 c 0
 609 513 603 542 594 562 c 1
 569 608 526 631 463 631 c 0
 393 631 337 608 295 562 c 0
 251 514 219 447 201 362 c 0
 194 330 191 300 191 271 c 0
 191 224 200 181 219 145 c 0
EndSplineSet
EndChar
StartChar: e
Encoding: 101 101 71
Width: 728
Flags: W
HStem: -32 102<334 361> 318 104<231 737> 656 95<491 522>
VStem: 72 121<222 237> 636 127<459 497>
Fore
737 318 m 5
 205 318 l 5
 197 284 194 257 193 237 c 4
 193 237 l 0
 193 218 199 192 210 160 c 5
 240 100 289 70 355 70 c 4
 388 70 419 75 446 87 c 4
 472 98 495 112 513 128 c 4
 533 146 548 163 557 179 c 6
 581 223 l 5
 699 223 l 5
 673 162 642 113 604 78 c 4
 568 41 528 15 486 -2 c 4
 436 -22 386 -32 335 -32 c 4
 284 -32 238 -22 199 -2 c 4
 155 21 124 50 104 87 c 4
 83 124 72 172 72 228 c 0
 72 267 77 311 87 359 c 4
 115 482 167 577 238 641 c 4
 321 715 416 751 522 751 c 0
 531 751 l 4
 552 751 577 745 609 734 c 4
 636 725 660 713 680 697 c 5
 702 677 715 660 722 646 c 4
 741 613 752 580 757 547 c 4
 761 520 763 498 763 481 c 0
 763 472 763 465 762 459 c 5
 737 318 l 5
231 422 m 5
 631 422 l 5
 634 440 636 459 636 479 c 0
 636 493 635 507 634 522 c 4
 631 555 624 578 614 591 c 5
 610 608 598 622 576 632 c 4
 548 648 523 656 502 656 c 4
 493 656 l 0
 425 656 370 635 329 591 c 5
 316 582 298 559 275 524 c 4
 257 495 242 461 231 422 c 5
EndSplineSet
EndChar
StartChar: f
Encoding: 102 102 72
Width: 364
Flags: W
HStem: 0 21G<101 219> 622 106<158 233 374 466> 914 102<490 530>
DStem: 233 622 351 622 101 0 219 0
Fore
101 0 m 5
 233 622 l 5
 136 622 l 5
 159 728 l 5
 256 728 l 5
 282 852 l 6
 292 899 316 938 353 969 c 4
 388 997 415 1011 434 1011 c 5
 450 1014 468 1016 490 1016 c 4
 513 1016 534 1014 551 1011 c 5
 530 914 l 5
 485 914 453 909 436 900 c 5
 416 887 403 866 396 835 c 6
 374 728 l 5
 489 728 l 5
 466 622 l 5
 351 622 l 5
 219 0 l 5
 101 0 l 5
EndSplineSet
EndChar
StartChar: g
Encoding: 103 103 73
Width: 731
Flags: W
HStem: -302 102<242 279> -32 112<282 327> 624 128<450 472>
VStem: 3 124<-119 -105> 59 125<234 259>
Fore
676 730 m 5
 792 730 l 5
 663 124 l 6
 652 70 634 9 610 -59 c 5
 591 -108 564 -153 531 -193 c 4
 498 -231 456 -258 405 -274 c 4
 360 -287 318 -296 279 -302 c 5
 204 -302 150 -295 119 -281 c 4
 82 -265 54 -245 36 -224 c 4
 17 -199 7 -175 6 -151 c 4
 4 -140 3 -129 3 -117 c 0
 3 -106 4 -94 6 -82 c 5
 125 -82 l 5
 127 -105 l 5
 127 -119 128 -129 130 -133 c 4
 131 -142 136 -150 146 -156 c 5
 155 -167 167 -177 183 -184 c 4
 203 -195 231 -200 269 -200 c 4
 309 -200 346 -194 381 -182 c 5
 416 -164 440 -148 452 -133 c 4
 465 -117 478 -93 492 -63 c 4
 512 -19 528 32 540 89 c 5
 454 9 367 -32 282 -32 c 0
 276 -32 l 4
 227 -29 181 -7 137 34 c 5
 103 60 79 98 68 149 c 4
 62 178 59 207 59 236 c 0
 59 263 61 291 66 319 c 5
 79 380 98 439 124 496 c 4
 152 556 182 603 214 637 c 5
 237 660 273 685 320 712 c 5
 373 738 423 752 472 752 c 4
 554 749 616 713 657 642 c 5
 676 730 l 5
485 136 m 4
 539 182 575 253 595 350 c 4
 604 391 609 427 609 459 c 0
 609 467 608 475 608 483 c 4
 605 521 594 552 576 575 c 5
 571 584 556 595 532 608 c 4
 511 619 486 624 458 624 c 4
 379 624 315 588 268 518 c 4
 237 472 214 417 198 353 c 4
 189 316 184 283 184 252 c 0
 184 216 191 185 203 158 c 5
 230 106 271 80 327 80 c 4
 336 80 l 0
 394 80 444 99 485 136 c 4
EndSplineSet
EndChar
StartChar: h
Encoding: 104 104 74
Width: 728
Flags: W
HStem: 0 21G<53 168 514 632> 643 107<465 552> 991 20G<268 383>
VStem: 625 127<546 580>
DStem: 268 1011 383 1011 53 0 304 641 268 1011 269 474 53 0 168 0 620 497 749 552 514 0 632 0
Fore
53 0 m 5
 268 1011 l 5
 383 1011 l 5
 304 641 l 5
 351 680 398 711 448 731 c 5
 501 744 535 750 552 750 c 4
 580 750 617 742 661 725 c 6
 666 724 l 6
 709 706 735 680 742 645 c 4
 749 621 752 599 752 580 c 0
 752 570 751 561 749 552 c 6
 632 0 l 5
 514 0 l 5
 620 497 l 6
 623 515 625 531 625 546 c 0
 625 585 612 611 586 625 c 5
 549 637 510 643 465 643 c 5
 429 636 387 615 337 581 c 5
 300 551 278 516 269 474 c 6
 168 0 l 5
 53 0 l 5
EndSplineSet
EndChar
StartChar: i
Encoding: 105 105 75
Width: 290
Flags: W
HStem: 0 21G<75 190> 991 20G<290 405>
DStem: 230 729 345 729 75 0 190 0 290 1011 405 1011 259 868 374 868
Fore
345 729 m 5
 190 0 l 5
 75 0 l 5
 230 729 l 5
 345 729 l 5
405 1011 m 5
 374 868 l 5
 259 868 l 5
 290 1011 l 5
 405 1011 l 5
EndSplineSet
EndChar
StartChar: j
Encoding: 106 106 76
Width: 296
Flags: W
HStem: 992 20G<299 417>
DStem: 239 729 357 729 56 -134 168 -159 299 1012 417 1012 268 868 386 868
Fore
268 868 m 5
 299 1012 l 5
 417 1012 l 5
 386 868 l 5
 268 868 l 5
-101 -303 m 5
 -80 -201 l 5
 -8 -194 l 6
 10 -192 26 -184 36 -172 c 4
 46 -158 53 -146 56 -134 c 6
 239 729 l 5
 357 729 l 5
 168 -159 l 6
 163 -185 149 -211 128 -238 c 5
 107 -264 75 -282 33 -294 c 4
 7 -300 -37 -303 -101 -303 c 5
EndSplineSet
EndChar
StartChar: k
Encoding: 107 107 77
Width: 649
Flags: W
HStem: 0 21G<37 152 508 651> 991 20G<252 367>
DStem: 252 1011 367 1011 37 0 243 426 252 1011 210 273 37 0 152 0 354 389 456 477 508 0 651 0 614 729 766 729 243 426 456 477
Fore
252 1011 m 5
 367 1011 l 5
 243 426 l 5
 614 729 l 5
 766 729 l 5
 456 477 l 5
 651 0 l 5
 508 0 l 5
 354 389 l 5
 210 273 l 5
 152 0 l 5
 37 0 l 5
 252 1011 l 5
EndSplineSet
EndChar
StartChar: l
Encoding: 108 108 78
Width: 289
Flags: W
HStem: 0 21G<77 192> 991 20G<292 407>
DStem: 292 1011 407 1011 77 0 192 0
Fore
77 0 m 5
 292 1011 l 5
 407 1011 l 5
 192 0 l 5
 77 0 l 5
EndSplineSet
EndChar
StartChar: m
Encoding: 109 109 79
Width: 1090
Flags: W
HStem: 0 21G<33 148 454 569 876 994> 643 107<874 923>
VStem: 987 131<533 601>
DStem: 188 729 248 470 33 0 148 0 565 523 674 495 454 0 569 0 987 521 1115 569 876 0 994 0
Fore
33 0 m 5
 188 729 l 5
 303 729 l 5
 283 636 l 5
 324 683 356 711 378 720 c 5
 420 740 467 750 521 750 c 4
 576 750 616 741 637 722 c 5
 665 701 685 674 696 641 c 5
 738 680 l 6
 745 688 756 697 770 708 c 4
 781 715 796 723 813 731 c 5
 850 744 887 750 923 750 c 4
 989 750 1034 742 1055 726 c 5
 1069 719 1080 706 1091 689 c 5
 1103 674 1111 655 1116 632 c 4
 1117 621 1118 611 1118 601 c 0
 1118 590 1117 579 1115 569 c 6
 994 0 l 5
 876 0 l 5
 987 521 l 5
 987 533 l 0
 987 606 950 643 874 643 c 4
 822 643 780 629 748 601 c 4
 715 574 690 538 674 495 c 5
 569 0 l 5
 454 0 l 5
 565 523 l 6
 568 535 569 546 569 556 c 0
 569 602 543 630 492 639 c 4
 481 642 470 643 457 643 c 4
 410 643 367 627 328 594 c 4
 292 563 265 521 248 470 c 5
 148 0 l 5
 33 0 l 5
EndSplineSet
EndChar
StartChar: n
Encoding: 110 110 80
Width: 728
Flags: W
HStem: 0 21G<53 168 516 631> 643 107<507 543>
DStem: 208 729 250 386 53 0 168 0 624 507 752 567 516 0 631 0
Fore
208 729 m 5
 323 729 l 5
 303 636 l 5
 344 679 377 706 404 717 c 5
 442 739 488 750 543 750 c 0
 547 750 552 750 556 750 c 4
 606 750 645 744 671 731 c 5
 694 717 716 697 735 673 c 5
 747 655 752 629 752 594 c 0
 752 567 l 5
 631 0 l 5
 516 0 l 5
 624 507 l 6
 626 518 627 529 627 539 c 0
 627 553 625 567 620 581 c 5
 610 603 595 619 574 627 c 5
 559 638 536 643 507 643 c 4
 450 643 397 623 351 583 c 4
 304 544 270 478 250 386 c 6
 168 0 l 5
 53 0 l 5
 208 729 l 5
EndSplineSet
EndChar
StartChar: o
Encoding: 111 111 81
Width: 729
Flags: W
HStem: -32 119<329 356> 635 116<467 496>
VStem: 68 127<227 287> 628 128<436 486>
Fore
87 111 m 4
 74 144 68 183 68 227 c 0
 68 266 73 310 83 359 c 4
 105 462 142 545 192 608 c 4
 234 658 282 695 334 718 c 4
 385 740 440 751 496 751 c 4
 549 751 597 739 643 716 c 4
 685 693 716 657 735 608 c 4
 749 573 756 532 756 486 c 0
 756 447 751 405 741 359 c 4
 720 261 683 179 630 111 c 4
 589 62 544 26 492 3 c 4
 436 -20 382 -32 329 -32 c 4
 276 -32 228 -20 182 3 c 4
 138 27 106 63 87 111 c 4
354 87 m 4
 392 87 428 96 462 114 c 4
 495 131 524 159 549 197 c 4
 585 255 610 309 620 359 c 4
 626 385 628 410 628 436 c 0
 628 465 625 495 618 524 c 4
 610 561 593 589 567 608 c 5
 538 626 506 635 471 635 c 4
 435 635 398 626 362 610 c 4
 321 590 289 562 266 524 c 5
 227 431 l 5
 216 408 208 384 202 359 c 4
 197 336 195 312 195 287 c 0
 195 259 198 229 204 197 c 4
 212 162 230 134 258 114 c 4
 284 96 316 87 354 87 c 4
EndSplineSet
EndChar
StartChar: p
Encoding: 112 112 82
Width: 726
Flags: W
HStem: -32 121<364 386> 642 110<479 514>
VStem: 635 135<449 476>
DStem: 183 730 163 80 -36 -302 82 -302
Fore
82 -302 m 5
 -36 -302 l 5
 183 730 l 5
 285 730 l 5
 265 637 l 5
 288 664 327 692 384 723 c 4
 419 742 462 752 514 752 c 4
 567 752 613 741 653 721 c 4
 702 695 735 653 752 596 c 4
 764 555 770 515 770 474 c 0
 770 451 768 429 764 406 c 5
 756 353 l 5
 744 297 723 242 696 189 c 4
 668 137 635 95 596 63 c 4
 522 0 444 -32 364 -32 c 4
 303 -32 253 -17 216 13 c 5
 187 37 170 60 163 80 c 5
 82 -302 l 5
608 575 m 4
 584 620 542 642 479 642 c 0
 470 642 l 4
 450 642 422 634 384 619 c 5
 354 601 331 582 314 562 c 4
 269 507 237 444 222 374 c 4
 217 346 214 318 214 289 c 0
 214 276 214 264 215 251 c 4
 220 211 226 180 235 158 c 5
 250 135 267 118 289 107 c 4
 314 95 339 89 364 89 c 4
 434 89 490 112 531 158 c 4
 575 207 606 272 623 355 c 4
 631 391 635 424 635 455 c 0
 635 501 626 541 608 575 c 4
EndSplineSet
EndChar
StartChar: q
Encoding: 113 113 83
Width: 731
Flags: W
HStem: -32 121<296 348> 642 110<455 489>
VStem: 56 133<228 262>
DStem: 547 80 800 730 466 -302 581 -302
Fore
581 -302 m 5
 466 -302 l 5
 547 80 l 5
 532 58 504 35 465 13 c 4
 413 -17 357 -32 296 -32 c 4
 218 -32 154 0 104 63 c 4
 72 106 56 161 56 228 c 0
 56 264 61 304 70 348 c 5
 84 406 l 5
 106 475 137 538 180 596 c 4
 222 654 271 695 326 721 c 4
 373 741 424 752 479 752 c 4
 531 752 571 742 598 723 c 4
 635 696 662 668 679 637 c 5
 699 730 l 5
 800 730 l 5
 581 -302 l 5
310 575 m 5
 253 517 216 443 199 353 c 4
 192 320 189 290 189 262 c 0
 189 222 196 188 210 158 c 4
 232 112 278 89 348 89 c 4
 377 89 405 95 434 107 c 4
 458 117 482 134 509 158 c 5
 546 201 575 255 596 321 c 5
 609 372 l 5
 615 401 618 429 618 456 c 0
 618 493 613 528 601 562 c 4
 591 585 577 604 557 617 c 4
 530 634 502 642 476 642 c 4
 474 642 471 642 468 642 c 0
 402 642 350 620 310 575 c 5
EndSplineSet
EndChar
StartChar: r
Encoding: 114 114 84
Width: 431
Flags: W
HStem: 0 21G<64 182> 627 123<508 548>
DStem: 219 729 337 729 64 0 313 616 219 729 263 380 64 0 182 0
Fore
64 0 m 5
 219 729 l 5
 337 729 l 5
 313 616 l 5
 342 654 376 687 415 713 c 4
 449 735 480 748 508 750 c 5
 574 750 l 5
 548 627 l 5
 503 627 465 622 434 611 c 5
 389 592 352 565 325 530 c 5
 295 490 276 440 263 380 c 6
 182 0 l 5
 64 0 l 5
EndSplineSet
EndChar
StartChar: s
Encoding: 115 115 85
Width: 654
Flags: W
HStem: -31 103<297 362> -30 102<315 362> 733 20G<418 532.5>
VStem: 134 116<476 512> 527 116<212 250> 566 119<556 582>
Fore
53 217 m 5
 164 217 l 5
 165 188 165 167 168 153 c 4
 169 143 177 129 190 114 c 5
 203 101 227 89 259 77 c 5
 280 74 313 72 362 72 c 5
 409 80 441 90 460 102 c 4
 472 109 486 122 500 142 c 4
 513 158 521 174 524 190 c 4
 526 198 527 205 527 212 c 0
 527 246 506 269 465 283 c 5
 404 299 l 5
 332 318 l 5
 266 336 l 6
 241 343 222 350 211 356 c 5
 159 376 134 416 134 476 c 0
 134 494 136 514 141 535 c 4
 155 603 193 656 255 694 c 5
 313 733 380 753 456 753 c 4
 609 753 685 696 685 582 c 0
 685 566 684 547 680 528 c 5
 563 528 l 5
 565 538 566 547 566 556 c 0
 566 576 561 594 550 610 c 5
 532 630 489 641 422 643 c 5
 349 639 297 614 265 568 c 5
 260 559 255 547 252 533 c 4
 251 525 250 518 250 512 c 0
 250 490 259 474 278 466 c 6
 317 447 l 5
 368 433 l 5
 437 412 l 5
 504 401 556 382 595 356 c 4
 627 336 643 301 643 250 c 0
 643 228 640 204 635 177 c 5
 621 138 600 104 571 74 c 4
 540 40 504 16 465 1 c 4
 422 -18 376 -28 328 -30 c 4
 317 -30 307 -31 297 -31 c 0
 256 -31 220 -27 188 -20 c 4
 93 0 45 56 45 146 c 0
 45 168 48 191 53 217 c 5
EndSplineSet
EndChar
StartChar: t
Encoding: 116 116 86
Width: 365
Flags: W
HStem: -26 107<200 294> 629 106<152 233 374 464>
DStem: 233 629 352 629 116 78 244 122 297 932 416 932 255 735 374 735
Fore
416 932 m 1
 374 735 l 1
 486 735 l 1
 464 629 l 1
 352 629 l 1
 244 122 l 2
 243 118 243 115 243 112 c 0
 243 92 259 81 294 81 c 1
 348 86 l 1
 327 -16 l 1
 298 -23 256 -26 200 -26 c 5
 165 -22 141 -8 128 16 c 1
 119 35 114 52 114 66 c 0
 114 70 115 74 116 78 c 2
 233 629 l 1
 131 629 l 1
 153 735 l 1
 255 735 l 1
 297 932 l 1
 416 932 l 1
EndSplineSet
EndChar
StartChar: u
Encoding: 117 117 87
Width: 729
Flags: W
HStem: -32 112<271 302> 1 21G<509 625>
VStem: 78 125<132 177>
DStem: 202 730 317 730 79 149 207 213 664 730 780 730 580 334 625 1
Fore
625 1 m 5
 509 1 l 5
 526 80 l 5
 490 41 457 14 426 -1 c 5
 379 -22 328 -32 271 -32 c 4
 224 -32 186 -26 159 -15 c 5
 105 17 78 66 78 132 c 0
 78 137 78 143 79 149 c 5
 202 730 l 5
 317 730 l 5
 207 213 l 6
 205 200 203 188 203 177 c 0
 203 144 215 118 238 98 c 5
 258 86 280 80 302 80 c 4
 335 80 362 82 383 87 c 5
 445 106 490 138 521 182 c 4
 547 221 567 272 580 334 c 6
 664 730 l 5
 780 730 l 5
 625 1 l 5
EndSplineSet
EndChar
StartChar: v
Encoding: 118 118 88
Width: 654
Flags: W
HStem: 0 21G<229 356>
Fore
356 0 m 5
 229 0 l 5
 129 729 l 5
 259 729 l 5
 324 139 l 5
 659 729 l 5
 791 729 l 5
 356 0 l 5
EndSplineSet
EndChar
StartChar: w
Encoding: 119 119 89
Width: 944
Flags: W
HStem: 0 21G<161 292 579 711>
DStem: 522 729 549 553 259 162 292 0
Fore
161 0 m 5
 107 729 l 5
 237 729 l 5
 259 162 l 5
 522 729 l 5
 665 729 l 5
 681 162 l 5
 950 729 l 5
 1081 729 l 5
 711 0 l 5
 579 0 l 5
 549 553 l 5
 292 0 l 5
 161 0 l 5
EndSplineSet
EndChar
StartChar: x
Encoding: 120 120 90
Width: 654
Flags: W
HStem: 0 21G<-17 116 486 619>
DStem: 155 729 288 729 320 373 408 472 320 373 361 274 -17 0 116 0 361 274 448 375 486 0 619 0 639 729 771 729 408 472 448 375
Fore
361 274 m 5
 116 0 l 5
 -17 0 l 5
 320 373 l 5
 155 729 l 5
 288 729 l 5
 408 472 l 5
 639 729 l 5
 771 729 l 5
 448 375 l 5
 619 0 l 5
 486 0 l 5
 361 274 l 5
EndSplineSet
EndChar
StartChar: y
Encoding: 121 121 91
Width: 653
Flags: W
HStem: -302 113<33 77>
DStem: 143 729 265 729 225 -11 334 179 225 -11 780 729 158 -127 258 -169 654 729 780 729 334 179 258 -169
Fore
654 729 m 5
 780 729 l 5
 258 -169 l 6
 225 -224 183 -262 132 -284 c 4
 101 -296 68 -302 33 -302 c 4
 7 -302 -14 -297 -30 -287 c 5
 -7 -178 l 5
 10 -186 39 -189 77 -189 c 5
 108 -184 135 -164 158 -127 c 5
 225 -11 l 5
 143 729 l 5
 265 729 l 5
 334 179 l 5
 654 729 l 5
EndSplineSet
EndChar
StartChar: z
Encoding: 122 122 92
Width: 654
Flags: W
HStem: 0 115<184 595> 614 115<190 562>
DStem: 562 614 712 627 25 95 184 115
Fore
734 729 m 5
 712 627 l 5
 184 115 l 5
 619 115 l 5
 595 0 l 5
 5 0 l 5
 25 95 l 5
 562 614 l 5
 167 614 l 5
 191 729 l 5
 734 729 l 5
EndSplineSet
EndChar
StartChar: braceleft
Encoding: 123 123 93
Width: 436
Flags: W
VStem: 116 107<-155 -134> 184 106<216 235>
DStem: 172 130 281 153 121 -109 228 -92 326 858 428 845 276 623 375 597
Fore
103 326 m 1
 124 423 l 1
 172 434 206 454 225 484 c 0
 246 515 263 562 276 623 c 2
 326 858 l 2
 336 905 358 945 390 979 c 1
 425 1012 454 1028 476 1028 c 2
 578 1032 l 1
 559 940 l 1
 495 933 l 2
 476 931 462 923 452 910 c 0
 442 894 433 872 428 845 c 2
 375 597 l 2
 362 537 341 489 312 454 c 0
 289 426 260 400 226 375 c 1
 246 360 262 336 278 304 c 0
 286 284 290 261 290 233 c 0
 290 209 287 183 281 153 c 2
 228 -92 l 2
 225 -110 223 -125 223 -138 c 0
 223 -146 224 -153 225 -160 c 0
 229 -172 240 -180 258 -182 c 2
 319 -189 l 1
 300 -279 l 1
 198 -277 l 2
 175 -277 154 -260 134 -226 c 0
 122 -206 116 -182 116 -155 c 0
 116 -140 117 -125 121 -109 c 2
 172 130 l 2
 180 168 184 200 184 227 c 0
 184 243 182 257 179 269 c 0
 170 298 145 317 103 326 c 1
EndSplineSet
EndChar
StartChar: bar
Encoding: 124 124 94
Width: 339
Flags: W
HStem: 1008 20G<337 421>
DStem: 337 1028 421 1028 58 -281 142 -281
Fore
421 1028 m 1
 142 -281 l 1
 58 -281 l 1
 337 1028 l 1
 421 1028 l 1
EndSplineSet
EndChar
StartChar: braceright
Encoding: 125 125 95
Width: 438
Flags: W
VStem: 246 105<508 538> 313 105<888 906>
DStem: 160 153 259 130 107 -92 208 -109 307 845 413 858 254 597 363 623
Fore
431 423 m 1
 410 326 l 1
 362 317 328 298 310 269 c 0
 289 240 272 194 259 130 c 2
 208 -109 l 2
 201 -139 190 -167 172 -194 c 0
 159 -211 139 -231 113 -255 c 1
 95 -267 78 -275 59 -277 c 1
 -43 -279 l 1
 -24 -189 l 1
 39 -182 l 2
 60 -180 74 -172 85 -157 c 0
 93 -145 101 -123 107 -92 c 2
 160 153 l 2
 174 219 197 268 228 301 c 1
 260 337 286 361 309 375 c 1
 295 394 l 1
 281 408 271 424 265 443 c 1
 255 464 249 487 246 509 c 0
 246 521 l 0
 246 546 248 571 254 597 c 2
 307 845 l 2
 311 865 313 882 313 894 c 0
 313 901 313 906 311 910 c 0
 308 923 297 931 276 933 c 2
 216 940 l 1
 235 1032 l 1
 337 1028 l 1
 354 1026 368 1018 380 1004 c 0
 397 983 408 963 414 944 c 0
 417 931 418 918 418 904 c 0
 418 889 417 874 413 858 c 2
 363 623 l 2
 355 584 351 551 351 525 c 0
 351 509 352 495 356 484 c 0
 363 454 387 434 431 423 c 1
EndSplineSet
EndChar
StartChar: asciitilde
Encoding: 126 126 96
Width: 762
Flags: W
HStem: 372 95<591 615> 523 88<317 336>
DStem: 360 501 404 592 488 406 564 483
Fore
218 406 m 1
 143 406 l 1
 162 478 188 530 223 562 c 0
 261 595 299 611 336 611 c 0
 363 611 385 604 404 592 c 2
 564 483 l 2
 580 472 597 467 615 467 c 0
 632 467 648 472 662 481 c 1
 682 495 697 526 707 573 c 1
 780 573 l 1
 767 515 743 466 707 428 c 0
 673 391 634 372 591 372 c 0
 554 372 520 384 488 406 c 2
 360 501 l 1
 348 515 334 523 317 523 c 0
 295 523 275 512 256 490 c 0
 239 469 226 442 218 406 c 1
EndSplineSet
EndChar
StartChar: uni0E10.descless
Encoding: 128 63232 97
Width: 698
Flags: W
HStem: 0 21G<464 579> 199 70<283 300> 412 71<327 344> 653 85<725 747> 723 79<462 490>
VStem: 169 72<308 327> 571 103<447 490>
DStem: 563 382 661 386 523 192 579 0
Fore
344 483 m 0
 372 483 399 475 425 459 c 1
 448 440 463 417 470 391 c 2
 523 192 l 1
 563 382 l 2
 569 408 571 429 571 447 c 0
 571 471 567 488 557 499 c 1
 545 520 514 539 465 556 c 1
 418 570 365 582 305 592 c 1
 251 604 210 611 180 614 c 1
 219 664 266 709 321 748 c 1
 374 783 428 802 482 802 c 0
 516 802 543 798 561 793 c 2
 634 768 l 1
 698 745 l 2
 713 740 730 738 747 738 c 0
 775 738 803 744 833 757 c 1
 834 676 l 1
 792 661 757 653 725 653 c 0
 704 653 685 655 671 660 c 2
 602 685 l 1
 530 713 l 2
 512 719 492 723 470 723 c 0
 449 723 423 716 394 704 c 1
 366 690 350 679 347 671 c 1
 390 660 l 1
 469 636 l 1
 542 618 l 2
 614 598 656 573 666 541 c 1
 672 528 674 511 674 490 c 0
 674 462 670 428 661 386 c 2
 579 0 l 1
 464 0 l 1
 464 5 464 10 464 16 c 0
 464 56 460 101 450 150 c 0
 436 210 425 249 418 269 c 1
 408 249 389 232 362 218 c 0
 338 205 311 199 283 199 c 0
 239 199 207 213 188 241 c 0
 175 261 169 283 169 308 c 0
 169 318 170 329 172 340 c 0
 181 382 200 416 231 442 c 0
 262 470 300 483 344 483 c 0
298 269 m 0
 322 269 342 276 355 289 c 0
 371 306 381 323 384 340 c 0
 386 346 386 353 386 358 c 0
 386 371 383 381 377 391 c 0
 368 405 353 412 329 412 c 0
 307 412 288 405 273 391 c 0
 257 377 247 360 242 340 c 0
 241 335 241 330 241 325 c 0
 241 312 245 301 252 291 c 1
 260 276 275 269 298 269 c 0
EndSplineSet
EndChar
StartChar: uni0E34.left
Encoding: 129 63233 98
Width: 0
Flags: W
HStem: 921 67<-489 -398> 1099 72<-314 -281>
DStem: -398 990 -398 990 -489 988 -320 988
Fore
-281 1171 m 1
 -182 1157 -116 1118 -86 1052 c 0
 -58 987 -43 917 -43 842 c 1
 -92 861 -130 874 -156 882 c 0
 -196 894 -252 905 -323 914 c 0
 -362 919 -404 921 -447 921 c 2
 -585 917 l 1
 -676 904 l 1
 -658 948 -629 992 -588 1036 c 1
 -546 1079 -499 1112 -446 1136 c 0
 -394 1159 -339 1171 -281 1171 c 1
-314 1099 m 1
 -363 1099 -409 1087 -452 1062 c 0
 -495 1038 -524 1012 -538 983 c 1
 -489 988 l 1
 -398 990 l 1
 -320 988 l 1
 -262 983 -217 974 -185 961 c 0
 -164 952 -144 942 -123 930 c 1
 -147 1027 -211 1083 -314 1099 c 1
EndSplineSet
EndChar
StartChar: uni0E35.left
Encoding: 130 63234 99
Width: 0
Flags: W
HStem: 916 67<-493 -402> 1093 73<-319 -285>
DStem: -402 985 -402 985 -493 983 -324 983 -74 1258 14 1258 -113 1075 -54 936
Fore
-113 1075 m 1
 -74 1258 l 1
 14 1258 l 5
 -54 936 l 1
 -54 936 l 1
 -53 936 -52 925 -50 901 c 1
 -47 837 l 1
 -96 856 -134 869 -160 876 c 0
 -200 889 -256 900 -327 909 c 0
 -366 914 -408 916 -451 916 c 2
 -589 911 l 1
 -680 899 l 1
 -663 943 -633 988 -591 1033 c 1
 -553 1073 -506 1105 -450 1131 c 0
 -399 1154 -344 1166 -285 1166 c 1
 -246 1161 -215 1152 -192 1137 c 1
 -175 1130 -155 1118 -134 1101 c 1
 -113 1075 l 1
-319 1093 m 1
 -353 1093 -384 1087 -416 1075 c 0
 -447 1064 -473 1049 -495 1031 c 0
 -514 1017 -530 999 -542 978 c 1
 -493 983 l 1
 -402 985 l 1
 -324 983 l 1
 -266 978 -221 969 -189 955 c 0
 -165 946 -145 936 -128 925 c 1
 -137 966 -153 1002 -179 1033 c 0
 -207 1067 -254 1086 -319 1093 c 1
EndSplineSet
EndChar
StartChar: uni0E36.left
Encoding: 131 63235 100
Width: 0
Flags: W
HStem: 915 67<-484 -394> 1092 77<-321 -311> 1209 62<-81 -61>
VStem: -27 69<1161 1175>
DStem: -394 984 -394 984 -484 982 -316 982
Fore
39 1147 m 0
 32 1115 18 1089 -2 1068 c 0
 -23 1044 -46 1030 -73 1026 c 1
 -47 949 l 1
 -41 923 -37 895 -37 865 c 0
 -37 855 -38 846 -38 836 c 1
 -88 855 -126 868 -151 876 c 0
 -192 888 -248 899 -318 908 c 0
 -358 913 -400 915 -444 915 c 2
 -581 911 l 1
 -672 898 l 1
 -638 977 -588 1042 -520 1092 c 0
 -450 1144 -382 1169 -317 1169 c 0
 -292 1169 -270 1167 -252 1163 c 2
 -213 1149 l 1
 -206 1179 -189 1207 -161 1231 c 0
 -132 1258 -99 1271 -63 1271 c 0
 -21 1271 8 1259 22 1234 c 1
 35 1218 42 1198 42 1175 c 0
 42 1166 41 1157 39 1147 c 0
-74 1209 m 0
 -94 1209 -110 1203 -122 1192 c 0
 -134 1181 -142 1168 -145 1151 c 0
 -146 1146 -147 1142 -147 1137 c 0
 -147 1127 -144 1119 -139 1112 c 0
 -126 1099 -114 1092 -99 1092 c 0
 -84 1092 -68 1099 -53 1112 c 0
 -40 1122 -32 1135 -28 1151 c 0
 -27 1156 -27 1161 -27 1165 c 0
 -27 1176 -30 1184 -36 1192 c 1
 -41 1203 -54 1209 -74 1209 c 0
-311 1092 m 1
 -344 1092 -376 1086 -408 1074 c 0
 -438 1063 -465 1048 -487 1030 c 0
 -506 1016 -522 998 -534 977 c 1
 -484 982 l 1
 -394 984 l 1
 -316 982 l 1
 -257 977 -212 968 -181 955 c 0
 -160 946 -140 936 -120 924 c 1
 -128 961 -144 996 -171 1030 c 0
 -199 1063 -246 1083 -311 1092 c 1
EndSplineSet
EndChar
StartChar: uni0E37.left
Encoding: 132 63236 101
Width: 0
Flags: W
HStem: 916 67<-485 -394> 1093 77<-321 -309>
DStem: -394 985 -394 985 -485 983 -316 983 -239 1258 -152 1258 -259 1163 -178 1135 -66 1258 22 1258 -105 1073 -46 934
Fore
-46 934 m 1
 -44 934 -42 902 -39 837 c 1
 -88 856 -126 869 -152 876 c 0
 -192 889 -248 900 -319 909 c 0
 -358 914 -400 916 -443 916 c 2
 -581 911 l 1
 -672 899 l 1
 -652 948 -623 993 -583 1036 c 0
 -544 1077 -499 1109 -448 1133 c 1
 -401 1158 -354 1170 -309 1170 c 0
 -291 1170 -275 1168 -259 1163 c 1
 -239 1258 l 1
 -152 1258 l 1
 -178 1135 l 1
 -144 1122 -120 1101 -105 1073 c 1
 -66 1258 l 1
 22 1258 l 1
 -46 934 l 1
-311 1093 m 1
 -360 1093 -405 1081 -448 1057 c 0
 -491 1033 -520 1007 -534 978 c 1
 -485 983 l 1
 -394 985 l 1
 -316 983 l 1
 -258 978 -213 969 -181 955 c 0
 -157 946 -137 936 -120 925 c 1
 -143 1021 -207 1077 -311 1093 c 1
EndSplineSet
EndChar
StartChar: ellipsis
Encoding: 133 8230 102
Width: 1074
Flags: W
HStem: -29 21G<106 161.5>
VStem: 766 182<42 69>
Fore
948 56 m 1
 937 5 901 -23 840 -29 c 1
 791 -29 766 -6 766 42 c 0
 766 46 766 51 767 56 c 1
 780 117 816 148 877 148 c 0
 902 148 922 139 936 121 c 1
 945 108 948 90 948 69 c 0
 948 65 948 60 948 56 c 1
594 56 m 1
 583 4 547 -24 486 -29 c 1
 437 -29 413 -6 413 40 c 0
 413 45 413 50 414 56 c 1
 427 117 463 148 523 148 c 0
 548 148 568 139 582 121 c 1
 590 107 595 90 595 72 c 0
 595 67 595 61 594 56 c 1
240 56 m 0
 228 -1 192 -29 131 -29 c 0
 81 -29 56 -10 56 30 c 0
 56 38 57 46 59 56 c 0
 72 117 108 148 168 148 c 0
 219 148 243 127 243 86 c 0
 243 77 242 67 240 56 c 0
EndSplineSet
EndChar
StartChar: uni0E48.low_left
Encoding: 134 63237 103
Width: 0
Flags: W
DStem: -88 1219 0 1219 -162 869 -74 869
Fore
-162 869 m 5
 -88 1219 l 5
 0 1219 l 5
 -74 869 l 5
 -162 869 l 5
EndSplineSet
EndChar
StartChar: uni0E49.low_left
Encoding: 135 63238 104
Width: 0
Flags: W
HStem: 854 73<-376 -342> 971 62<-435 -407> 1159 67<-383 -366>
VStem: -535 74<1061 1083> -330 77<1109 1127>
Fore
-256 1092 m 4
 -265 1048 -280 1010 -301 980 c 5
 -327 949 -343 932 -350 927 c 5
 -322 927 -291 931 -257 938 c 4
 -227 945 -196 961 -164 985 c 4
 -101 1031 -57 1108 -35 1216 c 5
 60 1216 l 5
 26 1054 -54 946 -178 892 c 5
 -244 866 -309 854 -376 854 c 4
 -404 854 -432 856 -456 860 c 6
 -508 869 l 5
 -498 873 -481 884 -458 902 c 4
 -438 918 -419 943 -402 976 c 5
 -413 973 l 5
 -435 971 l 6
 -449 971 -459 973 -468 976 c 4
 -512 988 -535 1017 -535 1061 c 0
 -535 1072 -534 1084 -531 1097 c 4
 -523 1132 -503 1163 -471 1189 c 4
 -442 1213 -406 1226 -366 1226 c 4
 -324 1226 -293 1212 -273 1186 c 4
 -259 1167 -253 1145 -253 1122 c 0
 -253 1112 -254 1102 -256 1092 c 4
-381 1159 m 4
 -400 1159 -416 1153 -430 1141 c 4
 -447 1126 -457 1112 -460 1097 c 4
 -461 1092 -461 1087 -461 1083 c 0
 -461 1071 -458 1062 -451 1055 c 5
 -443 1040 -428 1033 -407 1033 c 4
 -394 1033 -383 1037 -371 1043 c 4
 -360 1050 -351 1058 -344 1066 c 4
 -339 1075 -334 1085 -332 1097 c 4
 -330 1104 -330 1110 -330 1116 c 0
 -330 1127 -332 1136 -337 1143 c 4
 -347 1153 -361 1159 -381 1159 c 4
EndSplineSet
EndChar
StartChar: uni0E4A.low_left
Encoding: 136 63239 105
Width: 0
Flags: W
HStem: 849 42<-438 -423> 993 42<-406 -395> 1092 63<-388 -362 -229 -202>
VStem: -532 63<933 969> -365 43<951 963> -185 65<1047 1068> -28 73<1114 1143>
Fore
-437 849 m 4
 -473 851 -500 868 -517 900 c 4
 -527 922 -532 945 -532 969 c 0
 -532 984 -530 999 -526 1014 c 4
 -519 1049 -499 1083 -468 1116 c 5
 -440 1142 -407 1155 -371 1155 c 4
 -355 1155 -341 1153 -329 1147 c 5
 -300 1127 l 5
 -292 1116 l 5
 -292 1116 l 5
 -285 1124 -273 1132 -258 1141 c 4
 -243 1150 -223 1155 -202 1155 c 4
 -164 1155 -140 1143 -129 1118 c 4
 -123 1104 -120 1087 -120 1068 c 0
 -120 1052 -122 1034 -126 1014 c 4
 -135 973 -152 940 -178 915 c 5
 -130 940 l 6
 -113 949 -96 963 -79 981 c 5
 -55 1013 -38 1043 -32 1072 c 4
 -29 1085 -28 1099 -28 1114 c 0
 -28 1120 -29 1127 -29 1134 c 5
 45 1160 l 5
 45 1155 45 1149 45 1143 c 0
 45 1129 44 1113 40 1097 c 4
 28 1038 1 986 -40 942 c 4
 -92 883 -176 854 -289 854 c 5
 -285 860 -272 873 -254 891 c 4
 -245 900 -233 915 -217 937 c 4
 -205 956 -196 977 -192 999 c 4
 -187 1019 -185 1037 -185 1051 c 0
 -185 1057 -186 1062 -186 1067 c 5
 -191 1084 -205 1092 -229 1092 c 4
 -245 1092 -259 1087 -272 1076 c 4
 -288 1063 -298 1054 -301 1048 c 5
 -309 1060 l 5
 -312 1066 -321 1072 -334 1081 c 4
 -346 1088 -360 1092 -376 1092 c 4
 -393 1092 -408 1086 -423 1074 c 4
 -436 1062 -446 1044 -451 1021 c 5
 -446 1025 -437 1028 -428 1030 c 6
 -397 1035 l 5
 -369 1035 -348 1025 -335 1006 c 4
 -327 995 -322 981 -322 963 c 0
 -322 955 -323 946 -325 937 c 4
 -330 915 -344 895 -366 877 c 4
 -388 859 -412 849 -437 849 c 4
-406 993 m 4
 -424 993 -437 988 -445 979 c 4
 -457 969 -465 956 -468 942 c 4
 -468 939 -469 936 -469 933 c 0
 -469 925 -466 916 -460 907 c 4
 -455 896 -444 891 -428 891 c 4
 -412 891 -398 896 -387 907 c 4
 -376 917 -369 929 -366 942 c 4
 -365 946 -365 949 -365 953 c 0
 -365 962 -367 971 -372 979 c 4
 -377 988 -388 993 -406 993 c 4
EndSplineSet
EndChar
StartChar: uni0E4B.low_left
Encoding: 137 63240 106
Width: 0
Flags: W
HStem: 1025 76<-392 -252 -150 -11>
DStem: -252 1025 -166 1025 -285 869 -199 869 -203 1255 -117 1255 -236 1101 -150 1101
Fore
-252 1025 m 5
 -407 1025 l 5
 -391 1101 l 5
 -236 1101 l 5
 -203 1255 l 5
 -117 1255 l 5
 -150 1101 l 5
 5 1101 l 5
 -11 1025 l 5
 -166 1025 l 5
 -199 869 l 5
 -285 869 l 5
 -252 1025 l 5
EndSplineSet
EndChar
StartChar: uni0E4C.low_left
Encoding: 138 63241 107
Width: 0
Flags: W
HStem: 849 75<-189 -173> 1039 62<-150 -135>
VStem: -332 109<960 975> -101 68<992 1008>
Fore
-244 1043 m 4
 -240 1053 -229 1065 -210 1078 c 4
 -189 1094 -164 1101 -135 1101 c 4
 -132 1101 -129 1101 -127 1101 c 0
 -93 1101 -69 1090 -53 1067 c 4
 -40 1049 -33 1028 -33 1006 c 0
 -33 998 -34 990 -35 981 c 4
 -43 947 -61 917 -89 891 c 5
 -120 863 -154 849 -189 849 c 4
 -192 849 -195 849 -197 849 c 0
 -245 849 -281 864 -307 895 c 4
 -324 917 -332 943 -332 973 c 0
 -332 986 -331 999 -327 1014 c 4
 -309 1103 -261 1162 -184 1191 c 5
 -149 1209 -99 1220 -33 1224 c 4
 38 1230 86 1236 107 1242 c 4
 134 1252 152 1277 161 1317 c 5
 243 1317 l 5
 235 1279 218 1248 191 1224 c 4
 166 1200 137 1183 106 1173 c 4
 68 1160 20 1152 -36 1150 c 4
 -102 1145 -146 1138 -171 1127 c 4
 -202 1116 -226 1088 -244 1043 c 4
-148 1039 m 4
 -167 1039 -183 1034 -196 1023 c 4
 -209 1013 -218 999 -221 981 c 4
 -222 977 -223 973 -223 969 c 0
 -223 958 -219 949 -213 942 c 4
 -203 930 -190 924 -173 924 c 4
 -158 924 -142 930 -128 942 c 4
 -115 952 -106 965 -102 981 c 4
 -101 987 -101 992 -101 997 c 0
 -101 1008 -103 1016 -109 1023 c 4
 -117 1034 -130 1039 -148 1039 c 4
EndSplineSet
EndChar
StartChar: uni0E48.low
Encoding: 139 63242 108
Width: 0
Flags: W
DStem: 52 1219 139 1219 -22 869 65 869
Fore
-22 869 m 5
 52 1219 l 5
 139 1219 l 5
 65 869 l 5
 -22 869 l 5
EndSplineSet
EndChar
StartChar: uni0E49.low
Encoding: 140 63243 109
Width: 0
Flags: W
HStem: 854 73<-183 -150> 973 60<-221 -213> 1159 67<-191 -174>
VStem: -343 75<1061 1083> -136 76<1108 1122>
Fore
-63 1092 m 4
 -73 1045 -89 1008 -108 980 c 5
 -138 947 -154 929 -156 927 c 5
 -128 927 -97 931 -64 938 c 4
 -33 946 -2 961 28 985 c 4
 91 1030 134 1107 157 1216 c 5
 252 1216 l 5
 218 1053 138 945 15 892 c 5
 -51 866 -116 854 -183 854 c 4
 -210 854 -236 856 -261 860 c 6
 -312 869 l 5
 -303 873 -287 884 -263 902 c 4
 -242 920 -224 944 -209 976 c 5
 -210 974 -214 973 -221 973 c 6
 -242 971 l 5
 -276 976 l 5
 -320 988 -343 1017 -343 1061 c 0
 -343 1072 -342 1084 -339 1097 c 4
 -331 1133 -312 1164 -281 1189 c 4
 -251 1213 -215 1226 -174 1226 c 4
 -131 1226 -100 1212 -81 1186 c 4
 -67 1167 -60 1146 -60 1122 c 0
 -60 1112 -61 1102 -63 1092 c 4
-189 1159 m 4
 -209 1159 -226 1153 -240 1141 c 4
 -254 1129 -263 1115 -267 1097 c 4
 -268 1092 -268 1087 -268 1083 c 0
 -268 1071 -265 1062 -259 1055 c 5
 -251 1040 -236 1033 -215 1033 c 4
 -195 1033 -179 1040 -164 1055 c 5
 -150 1066 -141 1080 -138 1097 c 4
 -137 1101 -136 1106 -136 1110 c 0
 -136 1121 -140 1132 -145 1141 c 4
 -155 1153 -170 1159 -189 1159 c 4
EndSplineSet
EndChar
StartChar: uni0E4A.low
Encoding: 141 63244 110
Width: 0
Flags: W
HStem: 849 42<-256 -242> 993 42<-224 -213> 1092 63<-206 -180 -48 -20>
VStem: -351 64<932 967> -183 43<951 963> -3 65<1047 1068> 154 73<1120 1143>
Fore
-255 849 m 4
 -290 851 -318 868 -335 900 c 4
 -345 920 -351 943 -351 967 c 0
 -351 982 -349 998 -344 1014 c 4
 -337 1049 -317 1083 -286 1116 c 5
 -258 1142 -225 1155 -189 1155 c 4
 -173 1155 -159 1153 -147 1147 c 5
 -118 1127 l 5
 -110 1116 l 5
 -110 1116 l 5
 -103 1124 -91 1132 -76 1141 c 4
 -61 1150 -41 1155 -20 1155 c 4
 18 1155 42 1143 53 1118 c 4
 59 1104 62 1087 62 1068 c 0
 62 1052 60 1034 56 1014 c 4
 47 976 31 943 6 915 c 5
 54 940 l 6
 73 951 89 965 103 981 c 4
 127 1014 142 1045 148 1074 c 4
 152 1091 154 1107 154 1121 c 0
 154 1125 153 1130 153 1134 c 5
 227 1160 l 5
 227 1155 227 1149 227 1143 c 0
 227 1129 226 1113 222 1097 c 4
 210 1038 183 986 142 942 c 4
 90 883 6 854 -107 854 c 5
 -103 860 -90 873 -72 891 c 4
 -63 900 -51 915 -35 937 c 4
 -23 956 -14 977 -10 999 c 4
 -6 1018 -3 1035 -3 1048 c 0
 -3 1055 -4 1062 -5 1067 c 4
 -9 1084 -23 1092 -48 1092 c 4
 -65 1092 -80 1087 -92 1076 c 4
 -105 1066 -115 1056 -119 1048 c 5
 -127 1060 l 5
 -130 1066 -139 1072 -152 1081 c 4
 -164 1088 -178 1092 -194 1092 c 4
 -210 1092 -226 1086 -242 1074 c 5
 -255 1061 -264 1043 -269 1021 c 5
 -264 1025 -255 1028 -246 1030 c 6
 -215 1035 l 5
 -187 1035 -166 1025 -153 1006 c 4
 -145 995 -140 981 -140 963 c 0
 -140 955 -141 946 -143 937 c 4
 -148 915 -162 895 -184 877 c 4
 -206 859 -230 849 -255 849 c 4
-224 993 m 4
 -241 993 -255 988 -267 979 c 5
 -277 966 -283 954 -286 942 c 4
 -287 939 -287 935 -287 932 c 0
 -287 924 -285 916 -279 907 c 4
 -275 896 -264 891 -246 891 c 4
 -230 891 -216 896 -205 907 c 4
 -194 917 -187 929 -184 942 c 4
 -183 946 -183 949 -183 953 c 0
 -183 962 -185 971 -190 979 c 4
 -195 988 -206 993 -224 993 c 4
EndSplineSet
EndChar
StartChar: uni0E4B.low
Encoding: 142 63245 111
Width: 0
Flags: W
HStem: 1025 76<-136 4 108 245>
DStem: 4 1025 92 1025 -29 869 59 869 53 1255 141 1255 20 1101 108 1101
Fore
4 1025 m 5
 -151 1025 l 5
 -135 1101 l 5
 20 1101 l 5
 53 1255 l 5
 141 1255 l 5
 108 1101 l 5
 261 1101 l 5
 245 1025 l 5
 92 1025 l 5
 59 869 l 5
 -29 869 l 5
 4 1025 l 5
EndSplineSet
EndChar
StartChar: uni0E4C.low
Encoding: 143 63246 112
Width: 0
Flags: W
HStem: 849 75<-59 -43> 1039 62<-20 -5>
VStem: -202 111<960 973> 29 68<997 1011>
Fore
-114 1043 m 5
 -107 1054 -95 1066 -80 1078 c 5
 -57 1094 -33 1101 -5 1101 c 4
 4 1101 l 0
 38 1101 64 1090 81 1067 c 5
 92 1050 97 1031 97 1011 c 0
 97 1001 96 991 94 981 c 4
 87 948 70 918 43 891 c 5
 10 863 -24 849 -59 849 c 4
 -68 849 l 0
 -117 849 -153 864 -177 893 c 4
 -194 914 -202 940 -202 971 c 0
 -202 984 -201 999 -197 1014 c 4
 -181 1100 -134 1159 -54 1191 c 4
 -12 1210 39 1220 101 1222 c 4
 161 1224 206 1230 237 1240 c 4
 266 1251 284 1276 293 1317 c 5
 374 1317 l 5
 366 1279 348 1248 321 1224 c 4
 296 1200 267 1183 236 1173 c 4
 198 1160 150 1152 94 1150 c 4
 30 1145 -14 1138 -39 1127 c 4
 -69 1117 -94 1089 -114 1043 c 5
-18 1039 m 4
 -38 1039 -53 1034 -64 1023 c 5
 -77 1012 -86 998 -89 981 c 4
 -90 977 -91 973 -91 969 c 0
 -91 958 -88 948 -81 940 c 4
 -73 929 -60 924 -43 924 c 4
 -28 924 -13 930 2 942 c 4
 15 952 23 965 27 981 c 4
 28 987 29 993 29 999 c 0
 29 1008 27 1016 22 1023 c 5
 14 1034 -0 1039 -18 1039 c 4
EndSplineSet
EndChar
StartChar: uni0E0D.descless
Encoding: 144 63247 113
Width: 1039
Flags: W
HStem: -14 71<213 228> 0 84<430 783> 199 72<253 275> 730 72<461 511> 767 20G<989 1086>
VStem: 94 74<93 112> 315 70<143 163> 638 99<617 638>
DStem: 158 410 256 415 99 130 223 261 633 579 730 579 528 84 625 84 989 787 1086 787 854 150 951 150
Fore
99 130 m 2
 158 410 l 2
 177 500 221 557 291 579 c 1
 235 619 l 1
 216 629 181 643 130 658 c 1
 152 682 195 713 257 749 c 0
 321 784 397 802 488 802 c 0
 654 802 737 747 737 638 c 0
 737 620 735 600 730 579 c 2
 625 84 l 1
 769 84 l 2
 801 84 821 88 830 97 c 1
 840 104 848 121 854 150 c 2
 989 787 l 1
 1086 787 l 1
 951 150 l 2
 942 107 931 75 917 53 c 0
 904 32 885 18 859 11 c 0
 833 3 797 0 751 0 c 2
 413 0 l 1
 431 84 l 1
 528 84 l 1
 633 579 l 2
 636 593 638 607 638 619 c 0
 638 650 628 674 609 692 c 0
 582 717 542 730 487 730 c 0
 416 730 344 710 271 672 c 1
 283 668 305 657 338 639 c 0
 368 624 395 603 419 575 c 1
 407 575 392 572 373 566 c 0
 355 560 333 545 306 522 c 1
 282 495 266 460 256 415 c 2
 223 261 l 1
 231 268 248 271 275 271 c 0
 316 271 347 257 367 229 c 1
 379 209 385 187 385 163 c 0
 385 152 384 141 382 130 c 0
 373 91 354 58 324 30 c 0
 293 1 257 -14 214 -14 c 0
 172 -14 141 -1 119 26 c 0
 103 44 94 66 94 93 c 0
 94 105 96 117 99 130 c 2
226 57 m 0
 250 57 270 64 284 79 c 0
 300 93 309 110 314 130 c 0
 315 134 315 139 315 143 c 0
 315 155 312 166 305 178 c 1
 294 192 277 199 256 199 c 0
 234 199 216 192 202 178 c 1
 184 164 173 148 170 130 c 0
 168 124 168 118 168 112 c 0
 168 100 171 89 178 79 c 0
 189 64 205 57 226 57 c 0
EndSplineSet
EndChar
StartChar: quoteleft
Encoding: 145 8216 114
Width: 249
Flags: W
Fore
166 837 m 0
 178 902 206 952 251 986 c 0
 294 1019 339 1040 386 1048 c 1
 392 1048 l 0
 408 1048 416 1045 416 1039 c 0
 416 1038 416 1038 415 1037 c 0
 415 1034 411 1030 406 1026 c 1
 388 1020 361 1006 325 985 c 0
 292 967 270 943 260 913 c 1
 279 917 l 1
 306 923 l 1
 357 918 382 895 382 853 c 0
 382 845 382 836 380 827 c 0
 374 800 361 777 340 758 c 0
 320 738 295 728 265 728 c 0
 262 728 l 0
 196 728 163 755 163 808 c 0
 163 817 164 827 166 837 c 0
EndSplineSet
EndChar
StartChar: quoteright
Encoding: 146 8217 115
Width: 249
Flags: W
HStem: 1030 21G<315.5 364>
Fore
427 920 m 4
 413 855 384 806 340 772 c 4
 296 739 251 719 204 711 c 5
 185 711 174 714 174 721 c 0
 174 722 175 722 175 723 c 4
 175 726 178 730 184 734 c 5
 202 740 230 754 266 774 c 4
 298 791 320 815 333 845 c 5
 313 841 l 5
 287 836 l 5
 237 842 212 865 212 906 c 0
 212 914 213 923 215 933 c 4
 221 960 234 983 255 1002 c 4
 275 1021 300 1030 331 1030 c 4
 397 1030 430 1003 430 950 c 0
 430 941 429 931 427 920 c 4
EndSplineSet
EndChar
StartChar: quotedblleft
Encoding: 147 8220 116
Width: 463
Flags: W
Fore
421 840 m 0
 433 904 461 954 505 989 c 0
 548 1023 594 1044 641 1053 c 1
 661 1053 671 1050 671 1042 c 0
 671 1041 671 1041 671 1040 c 1
 663 1030 l 1
 662 1029 l 2
 646 1024 618 1010 580 988 c 0
 547 971 525 947 515 916 c 1
 534 922 l 1
 560 926 l 1
 612 921 637 898 637 856 c 0
 637 848 636 839 634 830 c 0
 629 803 616 780 595 761 c 0
 575 742 550 732 520 732 c 0
 518 732 515 732 513 732 c 0
 450 732 418 758 418 811 c 0
 418 820 419 830 421 840 c 0
166 837 m 4
 178 902 206 952 251 986 c 4
 294 1019 339 1040 386 1048 c 5
 392 1048 l 0
 408 1048 416 1045 416 1039 c 0
 416 1038 416 1038 415 1037 c 4
 415 1034 411 1030 406 1026 c 5
 388 1020 361 1006 325 985 c 4
 292 967 270 943 260 913 c 5
 279 917 l 5
 306 923 l 5
 357 918 382 895 382 853 c 0
 382 845 382 836 380 827 c 4
 374 800 361 777 340 758 c 4
 320 738 295 728 265 728 c 4
 262 728 l 0
 196 728 163 755 163 808 c 0
 163 817 164 827 166 837 c 4
EndSplineSet
EndChar
StartChar: quotedblright
Encoding: 148 8221 117
Width: 463
Flags: W
HStem: 1030 21G<315 363.5 569 617.5>
Fore
428 920 m 4
 414 856 384 806 340 772 c 4
 297 739 251 719 204 711 c 5
 184 711 174 714 174 721 c 0
 174 722 175 722 175 723 c 4
 175 726 178 730 183 734 c 5
 200 740 228 753 267 774 c 4
 299 791 321 815 333 845 c 5
 314 841 l 5
 287 836 l 5
 236 842 211 865 211 906 c 0
 211 914 212 923 214 933 c 4
 220 960 234 983 255 1002 c 4
 275 1021 300 1030 330 1030 c 4
 397 1030 430 1003 430 950 c 0
 430 940 430 931 428 920 c 4
682 920 m 4
 668 855 639 806 595 772 c 4
 551 739 506 719 459 711 c 5
 439 711 429 714 429 721 c 0
 429 722 430 722 430 723 c 4
 430 726 433 730 439 734 c 5
 457 740 484 754 521 774 c 4
 554 791 575 815 587 845 c 5
 568 841 l 5
 541 836 l 5
 490 842 465 865 465 906 c 0
 465 914 466 923 468 933 c 4
 474 960 488 983 509 1002 c 4
 529 1021 554 1030 584 1030 c 4
 651 1030 685 1003 685 950 c 0
 685 941 684 931 682 920 c 4
EndSplineSet
EndChar
StartChar: bullet
Encoding: 149 8226 118
Width: 370
Flags: W
Fore
218 209 m 0
 157 209 113 229 85 269 c 0
 67 296 58 326 58 360 c 0
 58 375 60 390 63 406 c 0
 71 441 86 473 106 501 c 0
 131 533 160 558 190 576 c 0
 223 594 261 603 302 603 c 0
 345 603 379 594 404 576 c 0
 429 557 447 533 457 503 c 1
 461 488 463 473 463 456 c 0
 463 440 461 423 457 406 c 0
 446 352 419 305 377 267 c 0
 335 229 281 209 218 209 c 0
EndSplineSet
EndChar
StartChar: endash
Encoding: 150 8211 119
Width: 1090
Flags: W
HStem: 350 58<50 1136>
Fore
38 350 m 1
 51 408 l 1
 1149 408 l 1
 1136 350 l 1
 38 350 l 1
EndSplineSet
EndChar
StartChar: emdash
Encoding: 151 8212 120
Width: 2183
Flags: W
HStem: 350 58<-17 2227>
Fore
-29 350 m 1
 -16 408 l 1
 2240 408 l 1
 2227 350 l 1
 -29 350 l 1
EndSplineSet
EndChar
StartChar: uni0E31.left
Encoding: 152 63248 121
Width: 0
Flags: W
HStem: 850 124<-271 -123> 1108 67<-244 -228>
VStem: -395 71<1006 1028> -187 73<1057 1074>
Fore
-394 1022 m 1
 -384 1067 -366 1103 -337 1131 c 0
 -307 1160 -271 1175 -228 1175 c 0
 -185 1175 -154 1161 -134 1135 c 0
 -121 1118 -114 1098 -114 1074 c 0
 -114 1063 -115 1052 -118 1040 c 0
 -126 1001 -147 969 -180 943 c 1
 -142 936 l 1
 -101 932 l 1
 -34 934 33 955 101 996 c 0
 168 1038 216 1090 244 1152 c 1
 319 1112 l 1
 296 1067 261 1024 215 985 c 0
 170 947 117 915 57 888 c 0
 -3 863 -62 850 -123 850 c 0
 -200 850 -266 864 -322 890 c 1
 -371 916 -395 955 -395 1006 c 0
 -395 1011 -394 1016 -394 1022 c 1
-271 974 m 0
 -249 974 -232 980 -218 994 c 0
 -202 1007 -193 1022 -189 1040 c 0
 -187 1047 -187 1054 -187 1060 c 0
 -187 1072 -189 1081 -196 1089 c 0
 -206 1102 -220 1108 -242 1108 c 0
 -261 1108 -280 1102 -297 1089 c 1
 -310 1076 -319 1060 -323 1040 c 0
 -324 1036 -324 1032 -324 1028 c 0
 -324 1017 -321 1006 -315 994 c 0
 -306 980 -291 974 -271 974 c 0
EndSplineSet
EndChar
StartChar: uni0E4D.left
Encoding: 153 63249 122
Width: 0
Flags: W
HStem: 909 66<-235 -217> 1129 64<-190 -172>
VStem: -349 66<1020 1037> -122 65<1067 1088>
Fore
-233 909 m 4
 -277 909 -309 923 -327 953 c 4
 -342 973 -349 995 -349 1020 c 0
 -349 1031 -348 1041 -345 1052 c 4
 -338 1089 -318 1121 -286 1149 c 5
 -255 1179 -217 1193 -172 1193 c 4
 -127 1193 -96 1179 -77 1152 c 4
 -64 1134 -57 1113 -57 1088 c 0
 -57 1077 -59 1065 -61 1052 c 4
 -70 1011 -89 978 -120 950 c 4
 -152 923 -189 909 -233 909 c 4
-186 1129 m 4
 -211 1129 -233 1121 -249 1105 c 4
 -267 1089 -277 1071 -281 1052 c 4
 -283 1046 -283 1040 -283 1035 c 0
 -283 1021 -280 1008 -272 997 c 4
 -262 982 -244 975 -219 975 c 4
 -193 975 -172 982 -156 997 c 4
 -139 1012 -128 1030 -123 1052 c 4
 -122 1058 -122 1063 -122 1067 c 0
 -122 1075 -123 1081 -126 1087 c 4
 -132 1102 -139 1112 -146 1118 c 4
 -158 1125 -171 1129 -186 1129 c 4
EndSplineSet
EndChar
StartChar: uni0E47.left
Encoding: 154 63250 123
Width: 0
Flags: W
HStem: 849 53<-146 -132> 961 73<-340 -324> 1007 51<-114 -99> 1109 64<-179 -134> 1115 67<-302 -276>
VStem: -525 73<990 1014> -70 54<966 981>
Fore
-146 849 m 4
 -168 849 -185 854 -199 866 c 5
 -218 877 -236 892 -256 910 c 5
 -300 948 l 6
 -311 956 -324 961 -340 961 c 4
 -374 958 -400 944 -418 917 c 4
 -436 886 -448 862 -454 844 c 5
 -483 862 -502 889 -514 923 c 4
 -521 945 -525 968 -525 990 c 0
 -525 1005 -523 1019 -520 1034 c 4
 -515 1059 -508 1078 -498 1092 c 4
 -460 1152 -395 1182 -300 1182 c 5
 -239 1180 l 5
 -206 1175 -174 1173 -143 1173 c 4
 -100 1173 -67 1181 -44 1196 c 4
 -21 1210 -5 1236 3 1275 c 5
 77 1275 l 5
 64 1214 39 1171 1 1145 c 5
 -38 1121 -95 1109 -171 1109 c 4
 -203 1109 -238 1111 -276 1115 c 5
 -332 1115 -372 1110 -398 1098 c 4
 -426 1087 -443 1067 -449 1039 c 4
 -451 1031 -452 1023 -452 1014 c 0
 -452 999 -450 983 -445 965 c 5
 -442 970 -428 985 -403 1009 c 5
 -383 1026 -356 1034 -324 1034 c 4
 -297 1034 -274 1028 -256 1016 c 5
 -237 1000 -225 988 -218 981 c 5
 -193 1032 -153 1058 -101 1058 c 4
 -69 1058 -45 1048 -31 1027 c 4
 -21 1013 -16 997 -16 979 c 0
 -16 972 -17 964 -19 956 c 4
 -25 927 -39 902 -62 882 c 4
 -86 860 -115 849 -146 849 c 4
-134 902 m 4
 -116 902 -101 908 -91 919 c 4
 -82 929 -75 941 -72 956 c 4
 -71 961 -70 966 -70 970 c 0
 -70 978 -72 986 -75 992 c 5
 -83 1002 -95 1007 -112 1007 c 4
 -126 1007 -140 1002 -154 992 c 5
 -165 981 -173 969 -176 956 c 4
 -177 952 -177 949 -177 945 c 0
 -177 936 -174 927 -170 919 c 4
 -164 908 -152 902 -134 902 c 4
EndSplineSet
EndChar
StartChar: uni0E48.left
Encoding: 155 63251 124
Width: 0
Flags: W
DStem: -5 1569 83 1569 -63 1298 25 1298
Fore
-63 1298 m 1
 -5 1569 l 1
 83 1569 l 1
 25 1298 l 5
 -63 1298 l 1
EndSplineSet
EndChar
StartChar: uni0E49.left
Encoding: 156 63252 125
Width: 0
Flags: W
HStem: 1570 60<-129 -115>
VStem: -264 66<1482 1500> -80 68<1527 1535>
Fore
-14 1508 m 4
 -20 1474 -31 1442 -53 1411 c 4
 -70 1387 -86 1371 -98 1362 c 5
 -44 1367 l 6
 -22 1370 -5 1374 7 1378 c 4
 25 1385 47 1397 69 1413 c 4
 103 1438 128 1468 144 1501 c 4
 160 1537 172 1577 182 1621 c 5
 268 1621 l 5
 237 1477 167 1381 57 1332 c 4
 4 1307 -57 1295 -124 1295 c 5
 -198 1299 l 5
 -240 1309 l 5
 -231 1313 -217 1322 -196 1336 c 5
 -174 1355 -156 1378 -145 1404 c 5
 -154 1401 l 5
 -177 1399 l 5
 -205 1404 l 5
 -244 1417 -264 1443 -264 1482 c 0
 -264 1492 -262 1503 -260 1515 c 4
 -255 1538 -247 1557 -234 1573 c 4
 -217 1592 -198 1607 -180 1617 c 5
 -159 1626 -138 1630 -115 1630 c 4
 -74 1630 -46 1619 -31 1596 c 4
 -18 1576 -12 1555 -12 1533 c 0
 -12 1525 -13 1516 -14 1508 c 4
-127 1570 m 4
 -144 1570 -159 1565 -172 1555 c 4
 -185 1543 -193 1529 -196 1515 c 4
 -197 1510 -198 1505 -198 1500 c 0
 -198 1490 -195 1482 -189 1476 c 4
 -180 1463 -167 1457 -151 1457 c 4
 -135 1457 -119 1463 -104 1476 c 4
 -92 1486 -85 1499 -82 1515 c 4
 -81 1520 -80 1524 -80 1529 c 0
 -80 1538 -83 1547 -87 1555 c 4
 -96 1565 -109 1570 -127 1570 c 4
EndSplineSet
EndChar
StartChar: uni0E4A.left
Encoding: 157 63253 126
Width: 0
Flags: W
HStem: 1288 42<-225 -210> 1432 42<-195 -184> 1531 62<-177 -150 -18 9>
VStem: -321 63<1370 1410> -154 44<1381 1408> -153 43<1391 1408> 26 65<1486 1508> 184 74<1569 1588>
Fore
-225 1288 m 4
 -262 1290 -288 1308 -303 1341 c 5
 -315 1363 -321 1386 -321 1410 c 0
 -321 1424 -319 1438 -315 1452 c 4
 -307 1490 -287 1523 -256 1551 c 5
 -230 1579 -198 1593 -160 1593 c 4
 -144 1593 -131 1591 -120 1587 c 4
 -106 1580 -97 1573 -89 1565 c 6
 -81 1554 l 5
 -75 1560 -65 1568 -47 1580 c 4
 -31 1589 -13 1593 9 1593 c 4
 64 1593 91 1565 91 1508 c 0
 91 1491 89 1473 85 1452 c 4
 78 1419 62 1386 37 1353 c 5
 48 1356 63 1365 83 1379 c 4
 103 1391 119 1404 132 1419 c 4
 156 1447 172 1478 179 1512 c 4
 182 1526 184 1545 184 1569 c 0
 184 1575 l 5
 258 1598 l 5
 258 1595 258 1592 258 1588 c 0
 258 1575 256 1559 252 1540 c 4
 239 1478 212 1425 172 1381 c 4
 121 1324 38 1295 -78 1295 c 5
 -42 1330 l 6
 -30 1342 -19 1357 -7 1376 c 4
 6 1394 15 1415 20 1438 c 4
 24 1459 26 1476 26 1489 c 0
 26 1495 26 1501 25 1505 c 4
 21 1522 6 1531 -18 1531 c 4
 -34 1531 -48 1525 -61 1514 c 4
 -79 1500 -88 1491 -90 1487 c 5
 -109 1514 l 6
 -118 1525 -136 1531 -164 1531 c 4
 -182 1531 -198 1525 -212 1512 c 4
 -225 1501 -235 1484 -240 1459 c 5
 -219 1468 l 5
 -186 1474 l 5
 -158 1474 -137 1465 -121 1448 c 4
 -114 1438 -110 1425 -110 1408 c 0
 -110 1398 -111 1388 -114 1376 c 4
 -118 1354 -132 1334 -154 1315 c 4
 -177 1297 -200 1288 -225 1288 c 4
-195 1432 m 4
 -211 1432 -224 1426 -234 1415 c 4
 -247 1404 -254 1393 -256 1381 c 4
 -257 1377 -258 1374 -258 1370 c 0
 -258 1361 -255 1353 -249 1346 c 5
 -243 1335 -232 1330 -216 1330 c 4
 -197 1330 -184 1335 -176 1346 c 5
 -165 1353 -158 1364 -154 1381 c 4
 -154 1385 -153 1388 -153 1391 c 0
 -153 1400 -156 1409 -161 1417 c 4
 -166 1427 -177 1432 -195 1432 c 4
EndSplineSet
EndChar
StartChar: uni0E4B.left
Encoding: 158 63254 127
Width: 0
Flags: W
HStem: 1422 79<-167 -39 66 195>
DStem: -39 1422 49 1422 -63 1309 25 1309 3 1617 91 1617 -22 1501 66 1501
Fore
-39 1422 m 5
 -183 1422 l 5
 -166 1501 l 5
 -22 1501 l 5
 3 1617 l 5
 91 1617 l 5
 66 1501 l 5
 212 1501 l 5
 195 1422 l 5
 49 1422 l 5
 25 1309 l 5
 -63 1309 l 5
 -39 1422 l 5
EndSplineSet
EndChar
StartChar: uni0E4C.left
Encoding: 159 63255 128
Width: 0
Flags: W
HStem: 1237 62<-69 -54>
VStem: -191 96<1332 1349> 6 58<1348 1369>
Fore
-114 1403 m 5
 -110 1411 -100 1421 -84 1434 c 4
 -73 1443 -52 1449 -23 1452 c 5
 10 1449 34 1439 49 1420 c 5
 59 1404 64 1387 64 1369 c 0
 64 1361 63 1353 61 1345 c 4
 55 1318 41 1293 17 1272 c 4
 -7 1249 -36 1237 -69 1237 c 4
 -78 1237 l 0
 -118 1237 -148 1250 -169 1277 c 4
 -184 1295 -191 1318 -191 1343 c 0
 -191 1354 -190 1366 -187 1378 c 4
 -172 1451 -131 1502 -64 1531 c 4
 -35 1544 8 1551 64 1553 c 4
 115 1556 155 1562 183 1573 c 5
 208 1579 224 1601 232 1637 c 5
 301 1637 l 5
 294 1605 279 1578 257 1556 c 5
 232 1535 209 1522 184 1515 c 5
 153 1503 113 1496 63 1494 c 4
 15 1491 -23 1485 -50 1475 c 4
 -77 1466 -98 1442 -114 1403 c 5
-35 1396 m 4
 -67 1396 -88 1380 -94 1348 c 4
 -95 1345 -95 1343 -95 1340 c 0
 -95 1332 -92 1323 -86 1315 c 5
 -83 1304 -72 1299 -56 1299 c 4
 -40 1299 -27 1304 -16 1313 c 5
 -4 1325 3 1336 6 1348 c 4
 6 1352 7 1356 7 1359 c 0
 7 1368 4 1377 -1 1383 c 5
 -5 1392 -17 1396 -35 1396 c 4
EndSplineSet
EndChar
StartChar: uni0E01
Encoding: 161 3585 130
Width: 795
Flags: W
HStem: 0 21G<86 183 578 675> 717 84<501 535>
VStem: 698 100<582 606>
DStem: 169 391 267 395 86 0 183 0 694 546 791 546 578 0 675 0
Fore
135 618 m 5
 163 649 213 687 284 733 c 4
 354 778 437 801 530 801 c 4
 587 801 638 792 685 773 c 4
 729 756 760 727 780 687 c 4
 792 663 798 636 798 606 c 0
 798 587 796 567 791 546 c 6
 675 0 l 5
 578 0 l 5
 694 546 l 6
 697 559 698 571 698 582 c 0
 698 603 693 621 683 636 c 5
 671 662 650 682 620 696 c 4
 592 710 556 717 515 717 c 4
 432 717 355 692 284 641 c 5
 296 638 317 630 348 616 c 4
 377 601 402 581 425 556 c 5
 402 550 373 536 341 514 c 4
 303 491 279 451 267 395 c 6
 183 0 l 5
 86 0 l 5
 169 391 l 6
 178 435 194 471 217 497 c 5
 241 521 268 539 295 550 c 5
 285 561 267 573 242 588 c 4
 215 606 179 616 135 618 c 5
EndSplineSet
EndChar
StartChar: uni0E02
Encoding: 162 3586 131
Width: 808
Flags: W
HStem: 0 84<217 549> 464 73<233 268> 728 74<405 423.505> 767 20G<758 855>
VStem: 132 79<578 596> 357 74<625 642> 511 92<623 644>
DStem: 374 361 468 348 315 84 412 84 758 787 855 787 623 150 720 150
Fore
405 802 m 4
 453 802 493 793 525 774 c 0
 555 753 578 728 591 697 c 0
 599 679 603 660 603 640 c 0
 603 627 601 614 599 600 c 0
 592 568 584 545 575 531 c 1
 536 478 l 1
 514 452 500 434 494 425 c 0
 485 410 476 384 468 348 c 2
 412 84 l 1
 538 84 l 2
 569 84 590 88 601 97 c 0
 609 105 617 122 623 150 c 2
 758 787 l 1
 855 787 l 1
 720 150 l 2
 707 88 688 47 663 28 c 0
 635 9 588 0 520 0 c 2
 200 0 l 1
 218 84 l 1
 315 84 l 1
 374 361 l 2
 380 392 388 415 397 429 c 0
 404 440 417 457 437 480 c 0
 456 500 471 517 480 531 c 0
 490 547 500 567 507 593 c 1
 510 606 511 618 511 629 c 0
 511 653 504 673 491 690 c 0
 472 715 444 728 406 728 c 1
 370 723 l 1
 382 721 397 710 414 690 c 0
 425 679 431 663 431 642 c 0
 431 628 428 611 423 593 c 0
 415 553 393 521 357 498 c 0
 323 476 282 464 233 464 c 1
 166 473 132 511 132 578 c 0
 132 596 135 615 139 637 c 1
 156 687 193 727 248 758 c 0
 303 787 356 802 405 802 c 4
299 681 m 0
 275 681 255 674 242 661 c 0
 226 645 216 628 213 610 c 0
 212 605 211 599 211 594 c 0
 211 583 214 572 220 561 c 1
 227 546 243 537 268 537 c 0
 293 537 312 546 326 561 c 1
 342 576 352 593 356 610 c 0
 357 615 357 620 357 625 c 0
 357 637 354 649 348 661 c 0
 339 674 323 681 299 681 c 0
EndSplineSet
EndChar
StartChar: uni0E03
Encoding: 163 3587 132
Width: 860
Flags: W
HStem: 0 84<269 609> 352 72<208 225> 568 67<250 270> 767 20G<810 907>
VStem: 78 87<479 496> 311 77<512 532> 576 84<660 678>
DStem: 457 508 553 503 367 84 464 84 810 787 907 787 675 150 772 150
Fore
658 654 m 0
 654 636 648 623 641 615 c 2
 608 584 l 1
 596 576 585 565 573 551 c 0
 565 541 558 525 553 503 c 2
 464 84 l 1
 590 84 l 2
 622 84 642 88 651 97 c 1
 661 104 669 122 675 150 c 2
 810 787 l 1
 907 787 l 1
 772 150 l 2
 759 88 740 47 715 28 c 0
 690 9 642 0 572 0 c 2
 252 0 l 1
 270 84 l 1
 367 84 l 1
 457 508 l 2
 463 537 471 558 481 573 c 0
 489 584 501 596 514 608 c 1
 557 635 l 2
 567 642 573 650 576 661 c 0
 576 664 576 666 576 669 c 0
 576 680 572 692 563 705 c 1
 548 720 535 728 524 730 c 1
 415 665 l 1
 317 730 l 1
 284 723 255 706 232 679 c 1
 209 655 195 632 191 610 c 1
 193 612 201 618 217 626 c 0
 228 632 246 635 270 635 c 0
 310 633 341 621 364 600 c 0
 380 583 388 560 388 532 c 0
 388 520 387 508 384 494 c 0
 375 451 352 417 315 390 c 0
 280 365 244 352 208 352 c 0
 160 352 125 370 100 405 c 0
 85 429 78 457 78 490 c 0
 78 507 80 527 84 547 c 0
 93 587 105 620 121 646 c 1
 143 691 178 729 227 760 c 0
 272 788 311 802 342 802 c 1
 431 739 l 1
 533 802 l 1
 571 789 603 770 629 746 c 0
 650 726 660 702 660 676 c 0
 660 669 660 662 658 654 c 0
254 568 m 0
 231 568 212 561 198 547 c 1
 180 533 171 516 166 496 c 0
 165 491 165 486 165 481 c 0
 165 469 169 458 177 447 c 1
 184 432 199 424 223 424 c 0
 247 424 266 431 281 445 c 1
 296 463 306 480 309 496 c 0
 311 502 311 508 311 513 c 0
 311 525 308 537 302 547 c 0
 293 561 278 568 254 568 c 0
EndSplineSet
EndChar
StartChar: uni0E04
Encoding: 164 3588 133
Width: 803
Flags: W
HStem: 0 21G<154 249 586 683> 328 69<406 423> 541 72<450 467> 728 79<499 527>
VStem: 116 98<465 489> 510 72<487 506> 703 100<570 594>
DStem: 184 141 324 355 154 0 249 0 698 525 797 534 586 0 683 0
Fore
218 520 m 4
 215 510 214 500 214 489 c 0
 214 470 218 449 224 426 c 4
 232 393 236 365 236 342 c 5
 251 416 l 6
 264 473 288 520 326 558 c 4
 364 595 411 613 467 613 c 4
 510 613 542 599 562 571 c 4
 576 553 582 531 582 506 c 0
 582 495 581 483 578 470 c 4
 569 429 550 396 520 370 c 4
 489 342 451 328 407 328 c 4
 366 328 339 337 324 355 c 5
 249 0 l 5
 154 0 l 5
 184 141 l 6
 188 162 190 181 190 198 c 0
 190 211 189 222 188 233 c 4
 182 255 171 288 152 331 c 4
 138 365 127 398 120 430 c 5
 118 440 116 452 116 465 c 0
 116 482 119 502 124 525 c 4
 136 584 164 635 205 678 c 4
 248 723 297 755 354 775 c 5
 410 797 467 807 525 807 c 4
 612 807 683 783 740 735 c 4
 782 699 803 652 803 594 c 0
 803 575 801 555 797 534 c 6
 683 0 l 5
 586 0 l 5
 698 525 l 6
 701 542 703 559 703 574 c 0
 703 616 689 650 658 675 c 4
 617 711 565 728 501 728 c 4
 435 728 375 711 320 675 c 4
 267 640 232 588 218 520 c 4
452 541 m 4
 428 541 409 534 395 520 c 4
 378 505 368 488 364 470 c 4
 363 465 362 461 362 456 c 0
 362 444 366 432 373 421 c 5
 380 405 396 397 421 397 c 4
 446 397 465 405 479 421 c 5
 494 435 504 452 508 470 c 4
 509 476 510 482 510 487 c 0
 510 499 507 510 501 520 c 4
 493 534 476 541 452 541 c 4
EndSplineSet
EndChar
StartChar: uni0E05
Encoding: 165 3589 134
Width: 803
Flags: W
HStem: 0 21G<154 249 586 683> 329 69<407 424> 541 72<450 467>
VStem: 116 99<465 489> 510 72<487 507>
DStem: 184 141 325 356 154 0 249 0 397 720 405 801 465 669 520 711 671 801 649 720 520 711 504 636 698 525 797 534 586 0 683 0
Fore
124 525 m 4
 135 580 168 632 223 682 c 4
 277 734 337 773 405 801 c 5
 520 711 l 5
 671 801 l 5
 760 754 804 687 804 599 c 0
 804 579 801 557 797 534 c 6
 683 0 l 5
 586 0 l 5
 698 525 l 6
 705 561 709 590 710 613 c 5
 707 639 703 658 698 667 c 4
 694 674 687 684 675 696 c 6
 649 720 l 5
 504 636 l 5
 465 669 l 5
 397 720 l 5
 345 696 305 668 277 636 c 4
 249 601 230 563 218 521 c 4
 216 511 215 500 215 489 c 0
 215 470 218 449 224 426 c 4
 232 394 236 367 236 343 c 0
 236 342 l 5
 252 417 l 6
 264 473 288 520 326 558 c 4
 364 595 411 613 467 613 c 4
 510 613 543 600 563 572 c 4
 576 554 582 532 582 507 c 0
 582 495 581 483 578 470 c 4
 569 429 550 396 520 371 c 4
 489 343 451 329 407 329 c 4
 366 329 339 338 325 356 c 5
 249 0 l 5
 154 0 l 5
 184 141 l 6
 188 162 190 181 190 199 c 0
 190 211 189 223 188 234 c 4
 182 256 171 288 152 331 c 4
 138 366 127 399 120 430 c 5
 118 440 116 452 116 465 c 0
 116 482 119 502 124 525 c 4
452 541 m 4
 428 541 409 534 395 521 c 4
 379 506 368 489 364 470 c 4
 363 466 362 461 362 457 c 0
 362 444 366 432 373 421 c 5
 380 406 397 398 422 398 c 4
 447 398 465 406 479 421 c 5
 495 436 504 452 508 470 c 4
 509 476 510 483 510 488 c 0
 510 501 507 511 501 521 c 4
 493 534 476 541 452 541 c 4
EndSplineSet
EndChar
StartChar: uni0E06
Encoding: 166 3590 135
Width: 1005
Flags: W
HStem: -14 80<323 339> 0 21G<789 886> 352 72<218 235> 568 67<262 278> 767 20G<956 1053>
VStem: 89 87<478 497> 206 83<110 128> 323 73<515 534> 586 82<661 678>
DStem: 416 271 512 266 381 106 480 119 466 508 562 502 431 342 528 342 956 787 1053 787 824 164 886 0
Fore
431 342 m 1
 466 508 l 2
 472 534 480 555 492 572 c 0
 502 588 513 601 525 610 c 1
 567 635 l 2
 577 642 583 650 586 661 c 0
 586 664 586 666 586 669 c 0
 586 680 582 692 573 705 c 1
 559 719 547 727 534 730 c 1
 423 665 l 1
 326 730 l 1
 299 724 270 707 240 679 c 1
 217 654 203 631 199 610 c 1
 225 626 l 2
 236 632 254 635 278 635 c 0
 320 633 351 620 371 597 c 1
 387 583 396 562 396 534 c 0
 396 522 394 508 391 493 c 0
 382 450 359 416 323 389 c 0
 288 365 253 352 218 352 c 0
 170 352 135 370 111 405 c 0
 96 430 89 458 89 491 c 0
 89 508 91 526 95 546 c 0
 102 579 113 612 129 646 c 0
 152 690 187 728 236 760 c 1
 281 788 320 802 350 802 c 1
 439 739 l 1
 544 802 l 1
 580 789 611 770 636 745 c 0
 658 727 668 704 668 678 c 0
 668 670 667 662 665 654 c 0
 661 636 656 623 649 614 c 0
 635 600 624 590 616 584 c 0
 599 570 588 559 582 551 c 0
 574 541 567 525 562 502 c 2
 528 342 l 1
 581 338 627 325 666 305 c 1
 702 288 737 266 768 238 c 1
 790 214 809 189 824 164 c 1
 956 787 l 1
 1053 787 l 1
 886 0 l 1
 789 0 l 1
 790 7 791 14 791 21 c 0
 791 46 783 73 767 104 c 0
 743 147 709 182 665 210 c 1
 622 239 570 258 512 266 c 1
 480 119 l 2
 472 80 455 48 428 22 c 1
 400 -2 364 -14 323 -14 c 4
 275 -14 242 3 225 37 c 1
 212 58 206 83 206 110 c 0
 206 124 208 139 211 155 c 0
 221 204 247 248 286 284 c 0
 324 321 372 340 431 342 c 1
301 88 m 1
 310 74 322 66 337 66 c 0
 361 66 375 80 381 106 c 2
 416 271 l 1
 384 271 356 260 335 238 c 1
 312 213 299 187 293 159 c 0
 290 148 289 137 289 128 c 0
 289 111 293 98 301 88 c 1
264 568 m 0
 240 568 220 561 206 546 c 1
 191 534 182 517 177 496 c 0
 176 491 176 486 176 480 c 0
 176 469 178 457 185 445 c 1
 193 431 209 424 233 424 c 0
 257 424 276 431 291 445 c 0
 307 461 317 478 320 496 c 0
 322 503 323 509 323 515 c 0
 323 527 319 538 312 546 c 1
 303 561 288 568 264 568 c 0
EndSplineSet
EndChar
StartChar: uni0E07
Encoding: 167 3591 136
Width: 632
Flags: W
HStem: -15 87<386 398> 513 71<478 495> 725 72<521 538>
VStem: 364 72<622 640> 584 72<668 697>
DStem: 107 494 191 536 271 54 360 98 526 522 651 654 438 110 534 103
Fore
438 110 m 2
 526 522 l 1
 515 516 499 513 478 513 c 0
 433 513 402 528 383 557 c 0
 370 576 364 597 364 622 c 0
 364 632 365 644 367 656 c 0
 376 696 395 730 426 758 c 1
 460 785 496 797 538 797 c 0
 566 797 590 791 612 779 c 0
 631 766 644 749 652 728 c 0
 655 719 656 708 656 697 c 0
 656 684 654 670 651 654 c 2
 534 103 l 2
 526 65 509 36 481 15 c 0
 455 -5 423 -15 387 -15 c 4
 361 -15 338 -9 318 1 c 0
 294 16 279 34 271 54 c 2
 107 494 l 1
 191 536 l 1
 360 98 l 2
 366 81 378 72 396 72 c 0
 406 72 415 76 423 82 c 0
 431 88 436 98 438 110 c 2
523 725 m 0
 502 725 484 719 468 705 c 1
 450 688 441 672 437 656 c 0
 436 651 436 645 436 640 c 0
 436 629 439 618 445 608 c 0
 455 592 471 584 493 584 c 0
 517 584 538 592 554 608 c 0
 569 622 579 638 582 656 c 0
 583 660 584 664 584 668 c 0
 584 680 580 693 572 705 c 0
 561 719 545 725 523 725 c 0
EndSplineSet
EndChar
StartChar: uni0E08
Encoding: 168 3592 137
Width: 749
Flags: W
HStem: 0 21G<533 630> 287 69<353 368> 497 77<396 414> 727 75<463 491>
VStem: 239 70<398 414> 653 99<583 601>
DStem: 648 541 745 541 601 320 630 0
Fore
414 574 m 4
 462 574 499 558 524 525 c 4
 547 495 566 454 578 402 c 6
 601 320 l 5
 648 541 l 6
 651 557 653 571 653 585 c 0
 653 622 641 653 617 676 c 4
 581 710 533 727 472 727 c 4
 469 727 467 727 465 727 c 0
 365 727 275 684 196 599 c 5
 145 647 l 5
 175 686 221 722 285 755 c 5
 351 786 419 802 489 802 c 4
 547 802 599 791 644 771 c 4
 687 749 718 720 733 682 c 5
 745 658 752 630 752 599 c 0
 752 581 749 561 745 541 c 6
 630 0 l 5
 533 0 l 5
 543 48 547 96 547 143 c 0
 547 143 l 4
 545 185 541 230 533 280 c 5
 523 316 512 347 499 373 c 5
 490 359 476 342 453 322 c 5
 428 301 394 289 353 287 c 5
 312 287 281 301 263 329 c 5
 247 348 239 371 239 398 c 0
 239 410 241 422 243 435 c 4
 252 476 272 510 304 534 c 5
 334 561 371 574 414 574 c 4
398 497 m 4
 374 497 354 490 340 477 c 4
 324 462 315 446 311 428 c 4
 310 423 309 419 309 414 c 0
 309 402 314 390 322 380 c 5
 329 364 345 356 368 356 c 4
 390 356 408 363 423 377 c 4
 438 392 448 409 452 428 c 4
 453 435 454 442 454 448 c 0
 454 459 452 469 446 477 c 4
 438 490 422 497 398 497 c 4
EndSplineSet
EndChar
StartChar: uni0E09
Encoding: 169 3593 138
Width: 852
Flags: W
HStem: -14 76<676 712> 0 21G<182 279> 266 69<194 213> 479 71<237 255> 725 77<525 559>
VStem: 78 73<377 391> 297 72<422 441> 601 100<54 74> 708 99<587 607> 798 75<187 208>
DStem: 240 275 365 404 182 0 315 169 642 261 739 261 604 79 702 83 702 542 799 542 659 338 756 338
Fore
365 404 m 2
 315 169 l 1
 356 214 412 253 478 284 c 0
 545 314 605 332 659 338 c 1
 702 542 l 2
 706 559 708 575 708 589 c 0
 708 626 697 655 675 676 c 1
 646 709 598 725 535 725 c 0
 482 725 431 712 381 685 c 0
 336 661 296 630 264 593 c 1
 212 641 l 1
 254 689 303 727 359 756 c 0
 421 786 485 802 551 802 c 0
 641 802 710 779 758 732 c 0
 790 700 807 659 807 607 c 0
 807 587 804 565 799 542 c 2
 756 338 l 1
 803 329 837 309 857 278 c 1
 868 258 873 235 873 208 c 0
 873 192 871 174 867 155 c 0
 856 103 833 63 798 35 c 0
 761 2 721 -14 676 -14 c 0
 649 -14 628 -6 615 11 c 0
 605 23 601 37 601 54 c 0
 601 62 602 70 604 79 c 2
 642 261 l 1
 582 249 525 230 473 203 c 0
 417 173 373 140 341 104 c 0
 307 66 286 31 279 0 c 1
 182 0 l 1
 240 275 l 1
 231 269 216 266 195 266 c 0
 150 266 118 281 100 309 c 0
 86 330 78 352 78 377 c 0
 78 388 80 398 82 409 c 0
 90 449 109 482 140 509 c 0
 171 536 209 550 255 550 c 0
 298 550 329 536 348 509 c 0
 362 490 369 467 369 441 c 0
 369 429 368 417 365 404 c 2
240 479 m 0
 216 479 196 472 182 458 c 0
 166 442 156 425 152 406 c 0
 151 401 151 396 151 391 c 0
 151 379 154 367 161 356 c 0
 169 342 185 335 209 335 c 0
 233 335 253 342 267 356 c 1
 282 374 292 391 295 406 c 0
 297 412 297 418 297 424 c 0
 297 436 294 448 288 458 c 0
 280 472 264 479 240 479 c 0
794 155 m 0
 796 167 798 178 798 189 c 0
 798 203 796 216 792 229 c 1
 780 248 762 258 739 261 c 1
 702 83 l 2
 701 80 701 77 701 74 c 0
 701 66 704 62 712 62 c 0
 729 62 746 71 762 90 c 0
 778 110 789 131 794 155 c 0
EndSplineSet
EndChar
StartChar: uni0E0A
Encoding: 170 3594 139
Width: 803
Flags: W
HStem: 0 84<212 544> 464 73<227 263> 593 70<593 606.652> 727 75<400 419.111>
VStem: 127 79<578 595> 352 73<622 640> 688 102<502 526>
DStem: 369 361 463 347 310 84 407 84 683 454 784 473 618 151 715 151
Fore
707 632 m 5
 716 632 729 629 742 623 c 4
 757 616 770 601 781 577 c 4
 787 562 790 545 790 526 c 0
 790 510 788 492 784 473 c 6
 715 151 l 6
 702 88 683 47 658 29 c 4
 630 10 583 0 515 0 c 6
 195 0 l 5
 213 84 l 5
 310 84 l 5
 369 361 l 6
 375 392 383 414 392 429 c 4
 399 440 412 457 432 479 c 4
 451 499 466 516 475 530 c 4
 485 546 495 567 502 593 c 5
 505 605 506 617 506 628 c 0
 506 653 499 673 486 690 c 4
 467 715 439 727 401 727 c 5
 364 722 l 5
 377 720 392 709 409 690 c 4
 420 678 425 662 425 640 c 0
 425 626 423 611 418 593 c 4
 410 553 388 521 352 498 c 4
 318 475 276 464 227 464 c 5
 160 473 127 511 127 578 c 0
 127 595 130 615 134 637 c 5
 151 686 188 727 243 757 c 4
 298 787 350 802 400 802 c 4
 433 802 466 795 498 782 c 4
 524 772 545 755 564 731 c 4
 580 713 589 690 593 663 c 5
 618 663 657 675 710 699 c 4
 767 724 824 773 883 846 c 5
 941 802 l 5
 904 746 862 705 817 681 c 5
 764 654 727 638 707 632 c 5
590 593 m 5
 584 563 576 542 566 528 c 4
 550 502 537 485 530 477 c 4
 508 452 494 433 489 422 c 4
 479 405 470 380 463 347 c 6
 407 84 l 5
 533 84 l 6
 564 84 585 89 596 98 c 4
 604 105 612 123 618 151 c 6
 683 454 l 6
 686 472 688 488 688 502 c 0
 688 562 655 593 590 593 c 5
294 681 m 4
 270 681 250 674 236 660 c 4
 221 644 211 628 207 609 c 4
 206 604 206 598 206 593 c 0
 206 582 209 571 215 561 c 5
 222 545 238 537 263 537 c 4
 288 537 307 545 321 561 c 5
 337 576 347 592 350 609 c 4
 352 614 352 620 352 625 c 0
 352 637 349 649 342 660 c 4
 334 674 318 681 294 681 c 4
EndSplineSet
EndChar
StartChar: uni0E0B
Encoding: 171 3595 140
Width: 855
Flags: W
HStem: -1 84<264 605> 351 72<202 219> 566 67<245 265>
VStem: 72 87<469 494> 306 77<511 530> 743 101<516 540>
DStem: 452 506 547 501 362 83 459 83 738 471 835 471 670 149 767 149
Fore
657 675 m 5
 692 684 734 702 782 728 c 4
 838 757 891 804 938 867 c 5
 1001 821 l 5
 974 784 942 752 906 726 c 4
 877 704 845 685 811 670 c 4
 776 654 756 645 752 644 c 5
 770 642 794 630 820 608 c 5
 836 594 844 571 844 540 c 0
 844 520 841 497 835 471 c 6
 767 149 l 6
 753 87 735 46 710 27 c 4
 685 8 637 -1 567 -1 c 6
 247 -1 l 5
 265 83 l 5
 362 83 l 5
 452 506 l 6
 459 542 472 568 487 584 c 4
 504 601 524 617 552 633 c 4
 562 640 568 648 570 659 c 4
 571 662 571 665 571 668 c 0
 571 679 567 690 557 703 c 5
 542 718 529 726 518 728 c 5
 410 664 l 5
 312 728 l 5
 277 721 250 704 227 677 c 5
 203 653 189 630 184 608 c 5
 187 610 195 616 212 624 c 4
 223 630 240 633 265 633 c 4
 304 631 335 619 358 598 c 4
 374 582 383 559 383 530 c 0
 383 519 381 506 379 492 c 4
 370 450 346 415 309 388 c 4
 274 363 238 351 202 351 c 4
 155 351 118 368 95 404 c 4
 79 428 72 456 72 490 c 0
 72 507 74 525 78 545 c 4
 86 585 99 618 116 644 c 5
 138 690 172 728 221 758 c 4
 267 786 306 800 337 800 c 5
 426 737 l 5
 528 800 l 5
 563 792 588 780 603 763 c 4
 625 743 639 723 645 705 c 5
 657 675 l 5
 657 675 l 5
634 608 m 5
 603 582 l 5
 587 573 576 563 567 552 c 4
 559 542 553 525 547 501 c 6
 459 83 l 5
 585 83 l 6
 617 83 636 87 645 96 c 5
 656 103 664 121 670 149 c 6
 738 471 l 6
 742 488 743 503 743 516 c 0
 743 578 707 608 634 608 c 5
247 566 m 4
 225 566 207 559 192 545 c 5
 175 531 164 514 160 494 c 4
 159 489 159 485 159 480 c 0
 159 468 163 456 171 445 c 5
 178 430 194 423 217 423 c 4
 241 423 260 430 274 443 c 5
 290 461 301 478 304 494 c 4
 305 500 306 505 306 511 c 0
 306 524 302 535 296 545 c 4
 288 559 271 566 247 566 c 4
EndSplineSet
EndChar
StartChar: uni0E0C
Encoding: 172 3596 141
Width: 1039
Flags: W
HStem: -14 71<213 228> -14 88<507 514> 0 21G<822 919> 199 72<253 275> 730 72<461 513> 767 20G<989 1086>
VStem: 94 74<93 112> 315 70<143 163> 415 70<96 117> 638 99<617 638>
DStem: 158 410 256 415 99 130 223 261 557 222 652 210 530 92 626 88 633 579 730 579 571 289 668 287 989 787 1086 787 852 141 919 0
Fore
256 415 m 2
 223 261 l 1
 231 268 248 271 275 271 c 0
 316 271 347 257 367 229 c 1
 379 209 385 187 385 163 c 0
 385 152 384 141 382 130 c 0
 373 91 354 58 324 30 c 0
 293 1 257 -14 214 -14 c 0
 172 -14 141 -1 119 26 c 0
 103 44 94 66 94 93 c 0
 94 105 96 117 99 130 c 2
 158 410 l 2
 177 500 221 557 291 579 c 1
 235 619 l 1
 216 629 181 643 130 658 c 1
 152 682 195 713 257 749 c 0
 321 784 397 802 488 802 c 0
 654 802 737 747 737 638 c 0
 737 620 735 600 730 579 c 2
 668 287 l 1
 700 280 735 264 774 238 c 1
 811 209 838 177 852 141 c 1
 989 787 l 1
 1086 787 l 1
 919 0 l 1
 822 0 l 1
 818 22 812 46 803 71 c 1
 792 94 774 120 749 148 c 0
 727 173 693 193 652 210 c 1
 626 88 l 2
 611 20 574 -14 512 -14 c 0
 473 -14 445 2 429 32 c 0
 420 52 415 73 415 96 c 0
 415 111 417 127 420 143 c 0
 429 182 446 216 474 245 c 0
 500 272 532 287 571 289 c 1
 633 579 l 2
 636 593 638 607 638 619 c 0
 638 650 628 674 609 692 c 4
 582 717 542 730 487 730 c 0
 416 730 344 710 271 672 c 1
 283 668 305 657 338 639 c 0
 368 624 395 603 419 575 c 1
 407 575 392 572 373 566 c 0
 355 560 333 545 306 522 c 1
 282 495 266 460 256 415 c 2
530 92 m 1
 557 222 l 1
 520 214 497 185 486 134 c 0
 485 128 485 122 485 117 c 0
 485 108 486 100 491 92 c 0
 495 80 502 74 509 74 c 0
 519 74 525 80 530 92 c 1
226 57 m 0
 250 57 270 64 284 79 c 0
 300 93 309 110 314 130 c 0
 315 134 315 139 315 143 c 0
 315 155 312 166 305 178 c 1
 294 192 277 199 256 199 c 0
 234 199 216 192 202 178 c 1
 184 164 173 148 170 130 c 0
 168 124 168 118 168 112 c 0
 168 100 171 89 178 79 c 0
 189 64 205 57 226 57 c 0
EndSplineSet
EndChar
StartChar: uni0E0D
Encoding: 173 3597 142
Width: 1039
Flags: W
HStem: -394 69<548 562> -151 73<506 521> -14 71<213 228> 0 84<430 783> 198 72<253 274> 730 72<461 510> 767 20G<989 1086>
VStem: 94 74<93 112> 315 70<143 162> 354 74<-248 -227> 559 76<-199 -178> 638 99<617 638>
DStem: 158 410 256 415 98 129 223 261 633 579 730 579 528 84 625 84 989 787 1086 787 854 150 951 150
Fore
902 -82 m 1
 887 -150 862 -208 826 -255 c 1
 790 -304 748 -338 700 -359 c 1
 651 -382 603 -394 555 -394 c 0
 494 -394 443 -377 402 -343 c 0
 370 -316 354 -284 354 -248 c 0
 354 -239 355 -229 357 -219 c 0
 365 -182 385 -148 413 -118 c 0
 440 -91 476 -78 519 -78 c 0
 528 -78 l 0
 570 -78 600 -91 618 -118 c 0
 629 -136 635 -155 635 -178 c 0
 635 -189 633 -201 631 -213 c 0
 626 -236 616 -258 602 -278 c 0
 588 -296 570 -311 548 -325 c 1
 596 -325 646 -309 699 -278 c 0
 748 -249 783 -184 805 -82 c 1
 902 -82 l 1
98 129 m 2
 158 410 l 2
 177 500 221 556 291 579 c 1
 235 619 l 1
 216 629 180 642 130 658 c 1
 152 682 194 712 257 749 c 0
 321 784 397 802 488 802 c 0
 654 802 737 747 737 638 c 0
 737 620 735 600 730 579 c 2
 625 84 l 1
 769 84 l 2
 801 84 821 88 830 97 c 1
 840 103 848 121 854 150 c 2
 989 787 l 1
 1086 787 l 1
 951 150 l 2
 942 107 931 74 917 53 c 0
 904 32 885 18 859 11 c 0
 833 3 797 0 751 0 c 2
 413 0 l 1
 431 84 l 1
 528 84 l 1
 633 579 l 2
 636 593 638 606 638 619 c 0
 638 649 628 673 609 692 c 0
 582 717 542 730 487 730 c 4
 416 730 344 710 271 672 c 1
 283 668 305 657 338 639 c 0
 368 624 395 602 419 575 c 1
 407 575 392 572 373 566 c 0
 355 560 333 545 306 521 c 1
 282 495 266 460 256 415 c 2
 223 261 l 1
 231 267 247 270 274 270 c 0
 315 270 347 257 367 229 c 1
 379 209 385 187 385 162 c 0
 385 152 384 140 381 129 c 0
 373 91 354 58 324 30 c 0
 293 1 257 -14 214 -14 c 0
 172 -14 141 -1 119 26 c 0
 102 43 94 65 94 93 c 0
 94 104 96 116 98 129 c 2
481 -276 m 0
 500 -276 518 -270 531 -257 c 0
 545 -246 554 -232 558 -213 c 0
 559 -208 559 -204 559 -199 c 0
 559 -188 556 -179 550 -170 c 0
 542 -157 527 -151 508 -151 c 0
 490 -151 473 -157 457 -170 c 0
 442 -182 433 -196 430 -213 c 0
 429 -218 428 -222 428 -227 c 0
 428 -238 432 -248 438 -257 c 0
 449 -270 463 -276 481 -276 c 0
226 57 m 0
 250 57 270 64 284 79 c 0
 300 93 309 110 313 129 c 0
 314 134 315 139 315 143 c 0
 315 155 312 167 305 178 c 1
 294 192 277 198 256 198 c 0
 234 198 216 192 202 178 c 1
 184 164 173 148 169 129 c 0
 168 123 168 118 168 112 c 0
 168 100 171 89 178 79 c 0
 189 64 205 57 226 57 c 0
EndSplineSet
EndChar
StartChar: uni0E0E
Encoding: 174 3598 143
Width: 885
Flags: W
HStem: -400 90<163 190> -164 85<226 255> -14 71<129 146> 199 72<172 190> 718 84<605 625>
VStem: 14 71<97 116> 26 93<-279 -255> 791 98<580 605>
DStem: 261 391 359 395 233 261 302 125 787 546 882 546 614 -267 682 -396
Fore
233 261 m 1
 261 391 l 2
 267 421 278 448 292 472 c 0
 304 496 319 513 335 523 c 0
 352 534 368 543 388 550 c 1
 380 559 361 571 332 588 c 0
 305 606 269 616 225 618 c 1
 254 650 304 688 376 733 c 0
 450 779 531 802 623 802 c 0
 715 802 786 779 833 736 c 0
 870 702 889 658 889 605 c 0
 889 586 886 567 882 546 c 2
 682 -396 l 5
 587 -396 l 1
 565 -356 536 -319 501 -285 c 0
 481 -264 454 -245 422 -225 c 1
 402 -266 367 -306 315 -345 c 0
 265 -382 215 -400 163 -400 c 0
 160 -400 158 -400 155 -400 c 0
 108 -400 72 -385 50 -354 c 0
 34 -334 26 -309 26 -279 c 0
 26 -266 28 -251 31 -236 c 0
 44 -185 71 -145 111 -118 c 1
 152 -92 199 -79 251 -79 c 0
 293 -79 340 -87 390 -104 c 1
 409 -64 l 2
 415 -53 422 -32 432 0 c 1
 516 -18 l 1
 506 -52 498 -77 489 -93 c 1
 467 -141 l 1
 497 -158 529 -179 560 -206 c 0
 589 -233 608 -253 614 -267 c 1
 787 546 l 2
 790 558 791 569 791 580 c 0
 791 602 785 620 775 636 c 1
 763 662 742 682 712 696 c 0
 684 710 649 718 608 718 c 0
 525 718 447 692 376 641 c 1
 388 638 409 630 440 616 c 0
 469 601 496 582 517 556 c 1
 494 550 466 536 433 514 c 0
 395 491 371 451 359 395 c 2
 302 125 l 2
 293 85 274 53 244 28 c 0
 212 0 174 -14 129 -14 c 0
 86 -14 55 0 36 28 c 0
 22 48 14 71 14 97 c 0
 14 108 15 119 18 130 c 0
 26 169 46 202 77 229 c 0
 108 257 146 271 190 271 c 0
 210 271 224 268 233 261 c 1
239 -298 m 0
 265 -287 287 -269 306 -243 c 0
 324 -220 338 -200 347 -185 c 1
 303 -171 265 -164 233 -164 c 0
 169 -164 131 -188 121 -236 c 0
 119 -242 119 -249 119 -255 c 0
 119 -260 119 -265 120 -271 c 0
 126 -297 149 -310 190 -310 c 0
 204 -310 220 -306 239 -298 c 0
144 57 m 0
 167 57 187 65 204 79 c 0
 219 93 228 110 233 130 c 0
 234 135 234 139 234 144 c 0
 234 156 231 167 225 178 c 1
 214 192 197 199 174 199 c 0
 151 199 133 192 119 178 c 0
 100 162 90 146 87 130 c 0
 86 125 85 120 85 116 c 0
 85 103 89 91 98 81 c 1
 105 65 120 57 144 57 c 0
EndSplineSet
EndChar
StartChar: uni0E0F
Encoding: 175 3599 144
Width: 885
Flags: W
HStem: -400 76<118 143> -201 76<172 192> -14 71<129 146> 199 72<172 190> 718 84<604 625>
VStem: 13 86<-295 -274> 14 71<97 116> 791 98<580 605>
DStem: 261 391 359 395 233 261 302 125 524 -170 507 -267 399 -276 363 -400 787 546 882 546 611 -280 682 -396
Fore
233 261 m 1
 261 391 l 2
 267 421 278 448 292 472 c 0
 304 496 319 513 335 523 c 0
 352 534 368 543 388 550 c 1
 380 559 361 571 332 588 c 0
 305 606 269 616 225 618 c 1
 254 650 304 688 376 733 c 0
 449 778 531 802 623 802 c 0
 715 802 786 779 833 736 c 0
 870 702 889 658 889 605 c 0
 889 586 886 567 882 546 c 2
 682 -396 l 1
 587 -396 l 1
 507 -267 l 1
 363 -400 l 1
 354 -376 346 -355 334 -338 c 0
 320 -315 311 -298 305 -289 c 1
 288 -309 265 -332 235 -358 c 0
 202 -386 163 -400 118 -400 c 0
 78 -400 49 -386 32 -358 c 1
 19 -342 13 -321 13 -295 c 0
 13 -280 15 -263 19 -245 c 1
 33 -205 54 -175 82 -155 c 0
 111 -135 145 -125 185 -125 c 0
 226 -125 265 -138 300 -164 c 1
 335 -95 l 1
 353 -63 365 -32 375 0 c 1
 454 -18 l 1
 449 -35 433 -71 408 -123 c 0
 388 -167 370 -199 356 -218 c 1
 359 -218 374 -237 399 -276 c 1
 524 -170 l 1
 611 -280 l 1
 787 546 l 2
 790 558 791 569 791 580 c 0
 791 602 785 620 775 636 c 1
 763 662 742 682 712 696 c 0
 684 710 649 718 608 718 c 0
 525 718 447 692 376 641 c 1
 388 638 409 630 440 616 c 0
 469 601 495 581 517 556 c 1
 494 550 466 536 433 514 c 0
 395 491 371 451 359 395 c 2
 302 125 l 2
 293 85 274 53 244 28 c 0
 212 0 174 -14 129 -14 c 0
 86 -14 55 0 36 28 c 0
 22 48 14 71 14 97 c 0
 14 108 15 119 18 130 c 0
 26 169 46 202 77 229 c 0
 108 257 146 271 190 271 c 0
 210 271 224 268 233 261 c 1
179 -312 m 0
 192 -304 209 -289 227 -269 c 0
 241 -253 251 -241 256 -232 c 1
 234 -211 208 -201 177 -201 c 0
 140 -201 115 -215 102 -243 c 1
 100 -255 99 -265 99 -274 c 0
 99 -306 113 -322 143 -324 c 0
 155 -324 167 -320 179 -312 c 0
144 57 m 0
 167 57 187 65 204 79 c 0
 219 93 228 110 233 130 c 0
 234 135 234 139 234 144 c 0
 234 156 231 167 225 178 c 1
 214 192 197 199 174 199 c 0
 151 199 133 192 119 178 c 0
 100 162 90 146 87 130 c 0
 86 125 85 120 85 116 c 0
 85 103 89 91 98 81 c 1
 105 65 120 57 144 57 c 0
EndSplineSet
EndChar
StartChar: uni0E10
Encoding: 176 3600 145
Width: 702
Flags: W
HStem: -409 62<18 34> -270 55<413 426 426 440> -245 63<52 69> -104 59<448 462> 0 21G<468 583> 199 70<287 306> 412 71<331 348> 653 85<729 751> 723 79<464 493>
VStem: -79 65<-329 -307> 173 72<307 327> 321 61<-187 -172> 495 57<-146 -128> 575 103<446 489>
DStem: 567 382 665 386 527 192 583 0
Fore
348 483 m 0
 376 483 402 475 428 458 c 1
 452 440 467 417 474 391 c 2
 527 192 l 1
 567 382 l 2
 572 407 575 428 575 446 c 0
 575 470 570 488 561 499 c 1
 549 520 517 538 469 556 c 1
 422 570 369 582 309 592 c 1
 255 604 214 611 183 613 c 1
 222 664 270 709 325 748 c 1
 378 783 432 802 486 802 c 0
 520 802 546 798 564 793 c 2
 637 768 l 1
 701 744 l 2
 717 740 734 738 751 738 c 0
 778 738 806 744 836 757 c 1
 837 675 l 1
 796 660 760 653 729 653 c 0
 708 653 689 655 674 660 c 2
 605 684 l 1
 534 713 l 2
 516 719 496 723 474 723 c 0
 453 723 427 716 397 704 c 1
 369 689 354 678 351 671 c 1
 394 660 l 1
 473 636 l 1
 545 618 l 2
 618 598 659 573 670 541 c 1
 675 528 678 511 678 489 c 0
 678 461 674 427 665 386 c 2
 583 0 l 1
 468 0 l 1
 468 5 468 10 468 16 c 0
 468 56 464 100 453 150 c 0
 440 210 429 249 422 269 c 1
 412 249 393 232 366 218 c 0
 342 205 315 199 287 199 c 0
 243 199 211 213 192 240 c 0
 179 261 173 283 173 307 c 0
 173 318 174 329 176 340 c 0
 185 382 204 416 235 442 c 0
 266 469 304 483 348 483 c 0
421 -317 m 1
 433 -294 l 1
 440 -268 l 1
 431 -268 l 1
 415 -270 l 1
 380 -270 354 -259 337 -238 c 0
 326 -223 321 -206 321 -187 c 0
 321 -179 322 -171 324 -162 c 0
 329 -135 346 -108 374 -80 c 1
 400 -57 429 -45 462 -45 c 0
 495 -45 520 -56 536 -76 c 0
 547 -89 552 -107 552 -128 c 0
 552 -138 551 -150 549 -162 c 2
 519 -299 l 2
 516 -314 511 -328 504 -338 c 1
 495 -348 486 -355 473 -361 c 1
 435 -383 l 1
 358 -423 l 1
 282 -365 l 1
 179 -418 l 1
 151 -335 l 1
 117 -384 72 -409 19 -409 c 0
 10 -409 l 0
 -50 -407 -79 -381 -79 -329 c 0
 -79 -323 -79 -317 -78 -310 c 0
 -74 -290 l 0
 -67 -260 -50 -235 -20 -213 c 0
 7 -192 37 -182 69 -182 c 0
 96 -182 124 -192 151 -210 c 1
 156 -201 164 -184 176 -160 c 1
 186 -134 196 -99 205 -56 c 1
 277 -56 l 1
 260 -136 233 -206 195 -266 c 1
 221 -321 l 1
 251 -308 l 1
 300 -282 l 1
 381 -340 l 1
 421 -317 l 1
426 -215 m 0
 443 -215 458 -210 472 -199 c 1
 483 -186 490 -173 493 -160 c 0
 494 -155 495 -149 495 -144 c 0
 495 -135 493 -127 488 -120 c 1
 480 -110 467 -104 450 -104 c 0
 430 -104 416 -110 407 -120 c 1
 394 -131 386 -144 383 -160 c 0
 382 -164 382 -168 382 -172 c 0
 382 -182 385 -191 391 -199 c 1
 394 -210 406 -215 426 -215 c 0
302 269 m 0
 326 269 345 275 359 289 c 0
 375 306 385 323 388 340 c 0
 390 346 390 352 390 357 c 0
 390 369 387 381 381 391 c 0
 372 405 356 412 333 412 c 0
 311 412 292 405 277 391 c 0
 261 377 251 360 246 340 c 0
 245 335 245 330 245 325 c 0
 245 312 249 301 256 291 c 1
 264 276 279 269 302 269 c 0
54 -245 m 0
 34 -245 19 -251 9 -261 c 0
 -3 -273 -11 -285 -14 -299 c 0
 -14 -302 -14 -305 -14 -307 c 0
 -14 -316 -12 -323 -6 -330 c 1
 -1 -342 12 -347 32 -347 c 0
 46 -347 60 -342 72 -332 c 0
 83 -325 94 -315 104 -303 c 1
 118 -282 l 1
 118 -279 110 -272 97 -259 c 0
 88 -250 74 -245 54 -245 c 0
EndSplineSet
EndChar
StartChar: uni0E11
Encoding: 177 3601 146
Width: 1032
Flags: W
HStem: 0 21G<339 436 816 913> 351 72<197 214> 567 67<241 259> 698 88<906 932>
VStem: 67 87<479 495> 300 77<511 532> 566 84<660 677> 950 98<643 662>
DStem: 447 507 543 502 339 0 516 377 945 609 1042 609 816 0 913 0
Fore
339 0 m 5
 447 507 l 6
 453 536 460 557 470 572 c 4
 479 583 489 595 503 607 c 5
 546 634 l 6
 556 641 563 649 565 660 c 4
 566 662 566 665 566 667 c 0
 566 679 561 691 552 704 c 5
 537 719 524 727 513 729 c 5
 404 664 l 5
 306 729 l 5
 272 722 244 705 222 678 c 5
 198 654 184 631 179 609 c 5
 182 611 190 617 206 625 c 4
 217 631 235 634 259 634 c 4
 298 632 330 620 353 599 c 4
 369 582 377 560 377 532 c 0
 377 520 376 507 373 493 c 4
 364 450 340 416 304 389 c 4
 268 364 233 351 197 351 c 4
 150 351 113 369 89 404 c 4
 74 428 67 456 67 489 c 0
 67 506 69 526 73 546 c 4
 82 586 95 619 111 645 c 5
 132 690 167 728 215 759 c 4
 262 787 301 801 332 801 c 5
 420 738 l 5
 523 801 l 5
 559 788 591 769 618 745 c 4
 639 724 650 701 650 675 c 0
 650 668 649 660 648 653 c 4
 644 635 637 622 630 614 c 6
 597 583 l 5
 586 575 574 564 562 550 c 4
 554 540 547 524 543 502 c 6
 516 377 l 5
 534 407 563 453 604 516 c 4
 639 570 691 630 758 696 c 4
 819 756 877 786 932 786 c 4
 981 786 1014 769 1032 733 c 4
 1043 712 1048 689 1048 662 c 0
 1048 646 1046 628 1042 609 c 6
 913 0 l 5
 816 0 l 5
 945 609 l 6
 949 624 950 636 950 647 c 0
 950 681 936 698 906 698 c 4
 878 698 842 675 799 627 c 4
 745 570 697 509 653 444 c 5
 596 363 551 286 516 212 c 5
 477 136 450 65 436 0 c 5
 339 0 l 5
243 567 m 4
 220 567 201 560 187 546 c 5
 170 532 159 515 155 495 c 4
 154 490 154 486 154 481 c 0
 154 469 158 457 166 446 c 5
 174 431 189 423 212 423 c 4
 236 423 255 430 269 444 c 5
 285 462 295 479 298 495 c 4
 299 501 300 507 300 512 c 0
 300 524 297 536 291 546 c 4
 283 560 267 567 243 567 c 4
EndSplineSet
EndChar
StartChar: uni0E12
Encoding: 178 3602 147
Width: 1098
Flags: W
HStem: -14 88<567 574> 0 21G<124 222 884 979> 527 71<442 459> 767 20G<1051 1146>
VStem: 93 85<417 461> 283 73<426 443> 474 68<97 115> 504 70<469 487> 691 98<596 627>
DStem: 379 720 387 801 447 669 503 710 616 222 711 210 589 92 685 88 653 801 631 720 503 710 487 636 680 521 777 521 630 289 727 287 1051 787 1146 787 914 141 979 0
Fore
630 289 m 1
 680 521 l 2
 688 558 691 589 691 612 c 0
 691 623 691 632 689 640 c 0
 684 665 665 692 631 720 c 1
 487 636 l 1
 447 669 l 1
 379 720 l 1
 269 669 205 596 184 501 c 0
 180 481 178 460 178 439 c 0
 178 391 189 339 209 284 c 0
 226 239 235 207 235 188 c 0
 235 184 234 181 234 178 c 1
 257 211 281 242 306 269 c 0
 330 293 348 310 361 319 c 1
 330 329 309 346 296 373 c 1
 287 389 283 406 283 426 c 0
 283 436 284 447 286 458 c 0
 295 498 314 531 345 558 c 0
 376 585 414 598 459 598 c 0
 505 598 536 584 554 556 c 0
 567 535 574 512 574 487 c 0
 574 476 573 465 570 453 c 0
 566 433 558 414 546 395 c 0
 537 379 523 365 507 351 c 2
 458 309 l 1
 419 273 386 241 362 212 c 0
 330 179 304 147 283 115 c 0
 258 78 237 40 222 0 c 1
 124 0 l 1
 138 16 148 37 153 62 c 0
 155 70 156 82 156 96 c 0
 156 115 154 140 151 169 c 0
 150 178 142 209 129 261 c 1
 112 310 101 352 96 388 c 0
 94 403 93 419 93 436 c 0
 93 461 96 487 102 516 c 0
 118 579 152 635 205 684 c 0
 257 733 317 771 387 801 c 1
 503 710 l 1
 653 801 l 1
 702 774 735 749 755 724 c 0
 774 698 785 670 788 640 c 0
 789 634 789 627 789 619 c 0
 789 593 785 560 777 521 c 2
 727 287 l 1
 759 281 794 264 835 238 c 1
 871 209 898 177 914 141 c 1
 1051 787 l 1
 1146 787 l 1
 979 0 l 1
 884 0 l 1
 853 110 796 180 711 210 c 1
 685 88 l 2
 670 20 632 -14 570 -14 c 0
 532 -14 505 2 490 32 c 0
 479 51 474 73 474 97 c 0
 474 111 476 127 479 143 c 0
 488 183 505 217 532 245 c 0
 559 272 591 287 630 289 c 1
444 527 m 0
 423 527 404 521 387 507 c 1
 371 489 361 472 358 455 c 0
 357 450 356 446 356 441 c 0
 356 429 359 417 365 406 c 0
 375 391 392 384 414 384 c 0
 438 384 457 391 471 404 c 0
 487 419 498 436 502 455 c 0
 503 461 504 466 504 471 c 0
 504 485 500 496 493 507 c 0
 485 521 468 527 444 527 c 0
589 92 m 1
 616 222 l 1
 578 214 555 185 544 134 c 0
 543 127 542 121 542 115 c 0
 542 107 544 99 547 92 c 1
 554 80 561 74 569 74 c 0
 577 74 583 80 589 92 c 1
EndSplineSet
EndChar
StartChar: uni0E13
Encoding: 179 3603 148
Width: 1066
Flags: W
HStem: -36 20G<880.5 915> -14 71<206 221> 0 21G<503 600> 199 72<245 267> 730 72<453 505> 767 20G<968 1065>
VStem: 86 74<93 113> 307 70<143 163> 630 100<616 637> 814 101<50 77> 1015 73<194 215>
DStem: 150 410 248 416 91 130 215 261 626 579 723 579 503 0 636 169 855 254 955 267 816 71 917 88 968 787 1065 787 872 333 970 340
Fore
91 130 m 2
 150 410 l 2
 169 500 213 557 283 579 c 1
 227 619 l 1
 208 629 174 643 122 658 c 1
 144 683 187 713 249 749 c 0
 313 784 389 802 480 802 c 0
 646 802 730 747 730 637 c 0
 730 619 728 600 723 579 c 2
 636 169 l 1
 707 253 785 308 872 333 c 1
 968 787 l 1
 1065 787 l 1
 970 340 l 1
 1018 333 1051 315 1070 287 c 0
 1082 268 1088 243 1088 215 c 0
 1088 198 1086 179 1082 159 c 0
 1070 103 1046 60 1008 30 c 1
 973 -1 935 -16 895 -16 c 0
 866 -16 844 -8 830 7 c 0
 819 18 814 32 814 50 c 0
 814 56 814 63 816 71 c 2
 855 254 l 1
 795 234 741 195 694 139 c 1
 647 86 617 40 600 0 c 1
 503 0 l 1
 626 579 l 2
 629 593 630 606 630 618 c 0
 630 649 620 674 601 692 c 0
 574 717 534 730 479 730 c 0
 408 730 336 710 264 672 c 1
 275 668 297 657 330 639 c 0
 360 624 387 603 411 575 c 1
 399 575 384 572 365 566 c 0
 347 560 325 545 298 522 c 1
 274 495 258 460 248 416 c 2
 215 261 l 1
 223 268 240 271 267 271 c 0
 308 271 339 257 359 229 c 1
 371 209 377 187 377 163 c 0
 377 152 376 141 374 130 c 0
 365 91 346 58 316 30 c 0
 286 1 249 -14 206 -14 c 4
 164 -14 133 -1 111 26 c 0
 95 44 86 66 86 93 c 0
 86 105 88 117 91 130 c 2
917 88 m 2
 916 84 915 80 915 77 c 0
 915 67 920 62 929 62 c 0
 944 62 959 71 975 90 c 1
 992 105 1004 128 1011 159 c 0
 1014 173 1015 185 1015 196 c 0
 1015 237 995 261 955 267 c 1
 917 88 l 2
219 57 m 0
 243 57 262 65 277 79 c 0
 292 93 301 110 306 130 c 0
 307 135 307 139 307 144 c 0
 307 156 304 167 298 178 c 1
 286 192 270 199 249 199 c 0
 226 199 208 192 194 178 c 1
 176 164 165 148 162 130 c 0
 160 124 160 119 160 113 c 0
 160 100 163 89 170 79 c 0
 181 65 197 57 219 57 c 0
EndSplineSet
EndChar
StartChar: uni0E14
Encoding: 180 3604 149
Width: 803
Flags: W
HStem: 0 21G<142 240 586 683> 527 71<460 477> 730 72<509 545>
VStem: 112 86<424 465> 301 73<426 444> 522 70<469 487> 705 98<590 609>
DStem: 698 525 794 521 586 0 683 0
Fore
207 512 m 0
 201 489 198 465 198 440 c 0
 198 393 208 343 228 289 c 0
 241 254 248 224 248 197 c 0
 248 187 247 178 245 169 c 1
 277 214 304 245 323 263 c 2
 379 319 l 1
 348 328 327 346 314 373 c 1
 305 389 301 406 301 426 c 0
 301 436 302 447 304 458 c 0
 313 498 332 531 363 558 c 0
 394 585 432 598 477 598 c 0
 522 598 554 584 572 556 c 0
 585 535 592 512 592 487 c 0
 592 476 591 465 588 453 c 0
 584 433 576 414 564 395 c 0
 554 379 541 365 525 351 c 2
 476 309 l 1
 437 273 404 241 379 212 c 0
 348 179 322 147 301 115 c 0
 276 78 255 40 240 0 c 1
 142 0 l 1
 156 16 166 37 171 62 c 0
 173 70 174 82 174 96 c 0
 174 115 172 140 169 169 c 0
 165 193 158 224 145 263 c 0
 130 309 120 351 117 391 c 1
 114 409 112 426 112 444 c 0
 112 468 116 492 122 516 c 0
 141 593 187 658 263 719 c 0
 333 774 424 802 539 802 c 0
 716 802 803 737 803 605 c 0
 803 579 800 551 794 521 c 2
 683 0 l 1
 586 0 l 1
 698 525 l 2
 703 550 705 572 705 592 c 0
 705 623 700 649 688 672 c 0
 669 711 615 730 524 730 c 0
 447 730 379 709 319 668 c 0
 258 624 220 574 207 512 c 0
462 527 m 0
 440 527 422 521 405 507 c 1
 389 489 379 472 376 455 c 0
 375 450 374 445 374 440 c 0
 374 429 377 417 383 406 c 0
 393 391 410 384 432 384 c 0
 456 384 475 391 489 404 c 0
 505 419 516 436 520 455 c 0
 521 461 522 466 522 471 c 0
 522 485 518 496 511 507 c 0
 503 521 486 527 462 527 c 0
EndSplineSet
EndChar
StartChar: uni0E15
Encoding: 181 3605 150
Width: 803
Flags: W
HStem: 0 21G<142 240 587 684> 528 71<460 477>
VStem: 111 85<415 461> 301 73<426 443> 522 70<470 487> 709 98<597 636>
DStem: 397 720 405 801 465 669 521 711 671 801 649 720 521 711 505 636 698 521 795 521 587 0 684 0
Fore
252 178 m 5
 275 212 299 242 324 269 c 4
 348 294 366 311 379 320 c 5
 348 329 327 346 314 373 c 5
 305 389 301 406 301 426 c 0
 301 436 302 447 305 459 c 4
 313 498 332 531 363 558 c 4
 394 585 432 599 477 599 c 4
 523 599 554 585 572 556 c 4
 585 535 592 512 592 487 c 0
 592 476 591 465 588 453 c 4
 584 433 576 414 564 395 c 4
 555 380 541 365 525 351 c 6
 476 310 l 5
 437 273 404 241 380 212 c 4
 348 179 322 147 301 115 c 4
 276 78 255 40 240 0 c 5
 142 0 l 5
 156 16 166 37 171 62 c 4
 173 71 174 82 174 96 c 0
 174 115 172 139 169 169 c 4
 168 178 160 209 147 261 c 5
 130 310 119 352 115 389 c 4
 112 404 111 420 111 436 c 0
 111 461 114 488 120 516 c 4
 136 579 170 635 224 685 c 4
 275 733 335 772 405 801 c 5
 521 711 l 5
 671 801 l 5
 720 775 753 749 773 724 c 4
 792 698 803 670 806 641 c 4
 807 635 807 628 807 621 c 0
 807 594 803 560 795 521 c 6
 684 0 l 5
 587 0 l 5
 698 521 l 6
 706 558 709 589 709 613 c 0
 709 624 709 633 707 641 c 4
 702 665 683 692 649 720 c 5
 505 636 l 5
 465 669 l 5
 397 720 l 5
 287 669 223 597 203 502 c 4
 198 481 196 460 196 439 c 0
 196 391 207 339 228 285 c 4
 244 239 253 207 253 188 c 0
 253 184 252 181 252 178 c 5
462 528 m 4
 441 528 422 521 405 507 c 5
 389 489 379 472 376 455 c 4
 375 450 374 446 374 441 c 0
 374 430 377 418 384 407 c 4
 393 392 410 384 432 384 c 4
 456 384 475 391 490 404 c 4
 505 420 516 436 520 455 c 4
 521 461 522 466 522 472 c 0
 522 485 518 496 512 507 c 4
 503 521 486 528 462 528 c 4
EndSplineSet
EndChar
StartChar: uni0E16
Encoding: 182 3606 151
Width: 795
Flags: W
HStem: -14 71<227 245> 0 21G<578 675> 199 72<266 290> 718 84<508 542>
VStem: 109 74<93 112> 329 70<144 165> 698 100<582 607>
DStem: 169 392 267 396 114 130 238 261 694 546 791 546 578 0 675 0
Fore
114 130 m 2
 169 392 l 2
 179 436 194 472 217 498 c 1
 241 522 268 540 295 551 c 1
 285 562 267 574 242 588 c 0
 215 606 179 617 136 619 c 1
 163 650 213 688 284 734 c 0
 355 779 437 802 530 802 c 0
 587 802 638 792 686 774 c 0
 729 756 760 728 780 688 c 0
 792 664 798 637 798 607 c 0
 798 588 796 567 791 546 c 2
 675 0 l 1
 578 0 l 1
 694 546 l 2
 697 559 698 571 698 582 c 0
 698 604 693 622 683 637 c 1
 671 663 650 683 620 697 c 0
 592 711 557 718 516 718 c 0
 433 718 355 693 284 641 c 1
 296 639 317 631 348 617 c 0
 377 602 403 582 425 557 c 1
 402 551 373 537 341 515 c 0
 303 491 279 452 267 396 c 2
 238 261 l 1
 246 268 263 271 290 271 c 0
 331 271 362 257 382 229 c 1
 394 209 399 188 399 165 c 0
 399 153 398 142 396 130 c 0
 387 91 369 58 339 30 c 0
 308 1 271 -14 229 -14 c 0
 187 -14 155 -1 134 26 c 0
 118 44 109 66 109 93 c 0
 109 105 111 117 114 130 c 2
241 57 m 0
 265 57 285 64 299 79 c 0
 314 93 323 110 328 130 c 0
 329 135 329 139 329 144 c 0
 329 155 326 167 320 178 c 1
 309 192 292 199 271 199 c 0
 249 199 231 192 216 178 c 1
 199 164 188 148 185 130 c 0
 183 124 183 118 183 112 c 0
 183 100 186 89 193 79 c 0
 204 64 219 57 241 57 c 0
EndSplineSet
EndChar
StartChar: uni0E17
Encoding: 183 3607 152
Width: 874
Flags: W
HStem: 0 21G<187 284 664 761> 512 69<251 268> 699 88<757 780> 725 72<294 312>
VStem: 135 72<624 642> 355 73<669 694> 798 98<638 659>
DStem: 297 519 423 653 187 0 364 378 793 609 890 609 664 0 761 0
Fore
187 0 m 1
 297 519 l 1
 284 514 270 512 252 512 c 0
 207 512 175 527 157 556 c 1
 142 576 135 598 135 624 c 0
 135 634 136 645 138 656 c 0
 146 693 166 726 199 755 c 0
 230 783 268 797 312 797 c 4
 337 797 361 790 382 778 c 0
 401 766 414 749 423 727 c 0
 426 718 428 707 428 694 c 0
 428 682 426 668 423 653 c 2
 364 378 l 1
 442 493 l 1
 474 544 509 591 547 634 c 0
 588 681 628 718 665 745 c 0
 701 773 740 787 780 787 c 0
 814 787 839 778 857 762 c 1
 874 743 886 720 892 694 c 0
 894 683 896 671 896 657 c 0
 896 643 894 627 890 609 c 2
 761 0 l 1
 664 0 l 1
 793 609 l 2
 797 624 798 637 798 649 c 0
 798 682 784 699 757 699 c 0
 731 699 694 675 649 627 c 0
 597 575 547 514 500 444 c 0
 443 361 397 284 364 213 c 1
 325 136 298 65 284 0 c 1
 187 0 l 1
297 725 m 0
 273 725 254 718 240 704 c 0
 223 688 213 671 209 653 c 0
 208 649 207 644 207 640 c 0
 207 628 211 616 219 605 c 1
 225 589 241 581 266 581 c 0
 291 581 310 589 325 605 c 1
 340 619 349 635 353 653 c 0
 354 659 355 664 355 669 c 0
 355 681 352 693 346 704 c 0
 338 718 321 725 297 725 c 0
EndSplineSet
EndChar
StartChar: uni0E18
Encoding: 184 3608 153
Width: 707
Flags: W
HStem: 0 84<79 440> 658 78<701 719> 730 72<413 440>
VStem: 567 100<443 469>
DStem: 266 502 361 502 177 84 272 84 559 386 656 384 509 150 606 150
Fore
285 662 m 1
 316 661 373 651 455 634 c 0
 526 618 586 587 632 541 c 1
 652 524 664 503 667 479 c 0
 667 476 667 473 667 469 c 0
 667 449 663 420 656 384 c 2
 606 150 l 2
 592 87 573 46 547 28 c 0
 522 9 474 0 405 0 c 2
 62 0 l 1
 80 84 l 1
 177 84 l 1
 266 502 l 1
 361 502 l 1
 272 84 l 1
 423 84 l 2
 454 84 475 88 487 97 c 0
 495 105 503 122 509 150 c 2
 559 386 l 2
 564 409 567 428 567 443 c 0
 567 447 567 450 566 453 c 0
 564 470 554 487 535 504 c 0
 505 535 460 558 400 574 c 0
 341 589 276 597 206 597 c 1
 131 592 l 1
 148 624 184 668 240 724 c 0
 293 775 359 802 438 802 c 0
 485 802 539 790 598 768 c 0
 658 746 695 736 711 736 c 0
 741 736 770 743 797 757 c 1
 817 689 l 1
 775 668 737 658 703 658 c 0
 683 658 658 662 629 671 c 2
 555 698 l 1
 493 720 l 2
 473 726 450 730 423 730 c 0
 384 730 353 720 331 704 c 0
 307 688 291 674 285 662 c 1
EndSplineSet
EndChar
StartChar: uni0E19
Encoding: 185 3609 154
Width: 856
Flags: W
HStem: -16 78<685 723> 0 21G<182 279> 513 71<247 264> 725 72<289 307> 767 20G<758 855>
VStem: 130 73<626 644> 350 73<671 695> 604 102<50 79> 805 74<194 214>
DStem: 293 520 418 654 182 0 311 150 648 267 745 267 606 71 707 88 758 787 855 787 664 342 760 340
Fore
182 0 m 1
 293 520 l 1
 280 515 265 513 247 513 c 0
 202 513 170 528 152 557 c 1
 138 577 130 600 130 626 c 0
 130 636 131 646 133 656 c 0
 142 694 163 727 195 756 c 0
 227 784 263 797 307 797 c 0
 333 797 356 791 378 779 c 0
 397 766 410 750 418 728 c 0
 421 719 423 708 423 695 c 0
 423 683 421 669 418 654 c 2
 311 150 l 1
 410 256 528 320 664 342 c 1
 758 787 l 1
 855 787 l 1
 760 340 l 1
 809 333 843 316 861 287 c 0
 873 267 879 242 879 214 c 0
 879 197 877 179 873 159 c 0
 861 103 838 60 803 31 c 0
 765 0 726 -16 685 -16 c 0
 656 -16 635 -8 620 7 c 0
 609 19 604 33 604 50 c 0
 604 57 605 64 606 71 c 2
 648 267 l 1
 589 256 534 234 483 199 c 0
 435 167 393 131 357 93 c 0
 318 51 291 20 279 0 c 1
 182 0 l 1
292 725 m 0
 269 725 251 719 237 705 c 0
 219 689 208 673 204 656 c 0
 203 651 203 646 203 642 c 0
 203 629 207 617 214 606 c 0
 222 591 238 584 262 584 c 0
 286 584 306 591 320 606 c 0
 335 622 345 639 348 656 c 0
 350 661 350 666 350 671 c 0
 350 683 346 695 339 705 c 0
 330 719 314 725 292 725 c 0
707 88 m 2
 706 85 706 81 706 79 c 0
 706 68 711 62 723 62 c 0
 735 62 750 72 768 90 c 1
 784 110 795 133 801 159 c 0
 804 173 805 185 805 196 c 0
 805 237 785 261 745 267 c 1
 707 88 l 2
EndSplineSet
EndChar
StartChar: uni0E1A
Encoding: 186 3610 155
Width: 858
Flags: W
HStem: 0 84<110 606> 512 69<252 269> 725 72<296 313> 767 20G<808 905>
VStem: 137 72<623 641> 356 73<669 694>
DStem: 298 519 424 653 206 84 303 84 808 787 905 787 673 150 770 150
Fore
206 84 m 5
 298 519 l 5
 286 514 271 512 253 512 c 4
 208 512 176 527 158 556 c 5
 144 576 137 598 137 623 c 0
 137 634 138 645 140 656 c 4
 148 693 168 726 200 755 c 4
 232 783 269 797 313 797 c 4
 339 797 363 790 384 778 c 4
 403 766 416 749 424 727 c 4
 427 718 429 707 429 694 c 0
 429 682 427 668 424 653 c 6
 303 84 l 5
 588 84 l 6
 620 84 640 88 649 97 c 5
 659 104 667 122 673 150 c 6
 808 787 l 5
 905 787 l 5
 770 150 l 6
 757 88 738 47 713 28 c 4
 688 10 640 0 570 0 c 6
 93 0 l 5
 111 84 l 5
 206 84 l 5
298 725 m 4
 274 725 255 718 241 704 c 4
 224 688 215 671 211 653 c 4
 210 648 209 643 209 639 c 0
 209 627 213 616 220 605 c 5
 227 589 242 581 267 581 c 4
 292 581 312 589 326 605 c 5
 341 619 350 635 354 653 c 4
 355 659 356 664 356 669 c 0
 356 681 353 693 347 704 c 4
 339 718 322 725 298 725 c 4
EndSplineSet
EndChar
StartChar: uni0E1B
Encoding: 187 3611 156
Width: 858
Flags: W
HStem: 0 84<110 606> 512 71<253 270> 725 72<296 313>
VStem: 137 73<623 641> 356 73<670 694>
DStem: 298 519 424 654 206 84 303 84 869 1072 966 1072 673 151 770 151
Fore
206 84 m 5
 298 519 l 5
 286 515 271 512 253 512 c 4
 208 512 176 527 158 556 c 5
 144 576 137 598 137 623 c 0
 137 634 138 645 140 656 c 4
 148 693 169 727 200 755 c 4
 232 783 269 797 313 797 c 4
 339 797 363 791 384 778 c 4
 403 766 416 749 424 727 c 4
 427 717 429 706 429 694 c 0
 429 682 427 669 424 654 c 6
 303 84 l 5
 588 84 l 6
 620 84 640 89 649 98 c 5
 659 104 667 122 673 151 c 6
 869 1072 l 5
 966 1072 l 5
 770 151 l 6
 757 88 738 47 713 29 c 4
 688 10 640 0 570 0 c 6
 93 0 l 5
 111 84 l 5
 206 84 l 5
298 725 m 4
 275 725 258 718 243 704 c 4
 225 689 215 672 211 656 c 4
 210 650 210 645 210 639 c 0
 210 627 213 615 220 605 c 4
 228 591 244 583 268 583 c 4
 292 583 312 591 326 605 c 4
 341 622 351 638 354 656 c 4
 355 661 356 665 356 670 c 0
 356 682 352 694 345 704 c 4
 337 718 321 725 298 725 c 4
EndSplineSet
EndChar
StartChar: uni0E1C
Encoding: 188 3612 157
Width: 817
Flags: W
HStem: 0 21G<70 168 600 698> 512 69<320 336> 725 72<363 380> 767 20G<767 865>
VStem: 427 71<669 690>
DStem: 209 653 279 521 70 0 211 204 456 334 479 440 586 144 643 204 479 440 456 334 211 204 248 144 767 787 865 787 643 204 698 0
Fore
279 521 m 5
 211 204 l 5
 479 440 l 5
 643 204 l 5
 767 787 l 5
 865 787 l 5
 698 0 l 5
 600 0 l 5
 605 22 607 42 607 61 c 0
 607 93 600 121 586 144 c 5
 456 334 l 5
 248 144 l 5
 207 109 181 61 168 0 c 5
 70 0 l 5
 209 653 l 6
 218 694 237 729 268 757 c 5
 302 784 339 797 380 797 c 4
 425 797 458 783 478 755 c 4
 492 736 498 715 498 690 c 0
 498 680 497 668 494 656 c 4
 486 614 466 580 436 553 c 4
 405 526 366 512 320 512 c 4
 306 512 291 515 279 521 c 5
334 581 m 4
 358 581 379 589 397 605 c 4
 412 621 421 637 425 653 c 4
 426 659 427 664 427 669 c 0
 427 681 424 693 418 704 c 5
 406 718 388 725 365 725 c 4
 345 725 326 718 308 704 c 5
 292 686 282 669 279 653 c 4
 278 648 277 644 277 639 c 0
 277 628 280 616 287 605 c 4
 297 589 312 581 334 581 c 4
EndSplineSet
EndChar
StartChar: uni0E1D
Encoding: 189 3613 158
Width: 817
Flags: W
HStem: 0 21G<70 168 600 698> 512 71<320 337> 725 72<363 380>
VStem: 427 71<667 690>
DStem: 209 654 279 521 70 0 211 204 456 334 479 440 586 144 643 204 479 440 456 334 211 204 248 144 828 1072 926 1072 643 204 698 0
Fore
279 521 m 5
 211 204 l 5
 479 440 l 5
 643 204 l 5
 828 1072 l 5
 926 1072 l 5
 698 0 l 5
 600 0 l 5
 605 22 607 42 607 61 c 0
 607 93 600 121 586 144 c 5
 456 334 l 5
 248 144 l 5
 207 109 181 61 168 0 c 5
 70 0 l 5
 209 654 l 6
 218 694 237 729 268 757 c 5
 302 784 339 797 380 797 c 4
 425 797 458 783 478 755 c 4
 492 736 498 715 498 690 c 0
 498 680 497 668 494 656 c 4
 486 614 466 580 436 553 c 4
 405 526 366 512 320 512 c 4
 306 512 291 515 279 521 c 5
335 583 m 4
 359 583 380 591 397 607 c 4
 412 622 422 638 425 656 c 4
 426 660 427 663 427 667 c 0
 427 679 423 691 415 704 c 5
 404 718 387 725 365 725 c 4
 343 725 325 718 310 704 c 4
 293 687 283 671 279 656 c 4
 278 651 278 645 278 640 c 0
 278 629 281 618 287 607 c 4
 298 591 313 583 335 583 c 4
EndSplineSet
EndChar
StartChar: uni0E1E
Encoding: 190 3614 159
Width: 948
Flags: W
HStem: 0 21G<182 279 747 844> 512 71<247 264> 725 72<289 307> 767 20G<914 1011>
VStem: 130 73<624 643> 350 73<670 694>
DStem: 292 519 418 653 182 0 333 254 640 599 680 787 748 97 801 252 680 787 640 599 333 254 318 97 914 787 1011 787 801 252 844 0
Fore
182 0 m 5
 292 519 l 5
 279 514 265 512 247 512 c 4
 201 512 170 527 152 556 c 5
 137 576 130 598 130 624 c 0
 130 634 131 645 133 656 c 4
 141 693 161 726 194 755 c 4
 225 783 263 797 307 797 c 4
 332 797 356 790 377 778 c 4
 396 766 409 749 418 727 c 4
 421 718 423 707 423 694 c 0
 423 682 421 668 418 653 c 6
 333 254 l 5
 680 787 l 5
 801 252 l 5
 914 787 l 5
 1011 787 l 5
 844 0 l 5
 747 0 l 5
 753 44 l 5
 754 47 754 49 754 52 c 0
 754 64 752 79 748 97 c 6
 640 599 l 5
 318 97 l 6
 307 82 300 65 292 44 c 5
 279 0 l 5
 182 0 l 5
292 725 m 4
 269 725 251 718 237 704 c 4
 218 688 208 672 204 656 c 4
 203 651 203 646 203 641 c 0
 203 628 207 616 214 605 c 4
 221 590 238 583 262 583 c 4
 286 583 304 590 320 605 c 4
 335 621 345 638 348 656 c 4
 349 661 350 665 350 670 c 0
 350 682 346 694 338 704 c 4
 330 718 314 725 292 725 c 4
EndSplineSet
EndChar
StartChar: uni0E1F
Encoding: 191 3615 160
Width: 948
Flags: W
HStem: 0 21G<182 279 747 844> 512 69<246 263> 725 72<289 307>
VStem: 130 73<624 642> 350 73<670 694>
DStem: 292 519 418 654 182 0 333 255 640 599 680 787 748 98 801 252 680 787 640 599 333 255 318 98 975 1072 1072 1072 801 252 844 0
Fore
182 0 m 5
 292 519 l 5
 279 515 265 512 247 512 c 4
 201 512 170 527 152 556 c 5
 137 576 130 598 130 624 c 0
 130 634 131 645 133 656 c 4
 141 693 162 727 194 755 c 4
 225 783 263 797 307 797 c 4
 332 797 356 791 377 778 c 4
 396 766 409 749 418 727 c 4
 421 717 423 706 423 694 c 0
 423 682 421 669 418 654 c 6
 333 255 l 5
 680 787 l 5
 801 252 l 5
 975 1072 l 5
 1072 1072 l 5
 844 0 l 5
 747 0 l 5
 753 44 l 5
 754 47 754 50 754 53 c 0
 754 65 752 79 748 98 c 6
 640 599 l 5
 318 98 l 6
 307 82 300 65 292 44 c 5
 279 0 l 5
 182 0 l 5
292 725 m 4
 268 725 249 718 235 704 c 4
 218 688 208 671 204 654 c 4
 203 649 203 645 203 640 c 0
 203 628 206 616 214 605 c 5
 220 589 236 581 261 581 c 4
 285 581 305 589 320 605 c 5
 335 619 344 635 348 654 c 4
 349 660 350 665 350 670 c 0
 350 682 347 694 341 704 c 4
 332 718 316 725 292 725 c 4
EndSplineSet
EndChar
StartChar: uni0E20
Encoding: 192 3616 161
Width: 885
Flags: W
HStem: -14 71<129 146> 0 21G<671 766> 199 72<172 190> 718 84<605 625>
VStem: 14 71<97 116> 791 98<580 606>
DStem: 261 392 359 396 233 261 302 125 787 546 882 546 671 0 766 0
Fore
233 261 m 1
 261 392 l 2
 268 422 278 449 293 473 c 0
 304 496 319 513 335 524 c 0
 352 535 369 544 388 551 c 1
 380 559 362 572 332 588 c 0
 305 606 269 617 226 619 c 1
 254 650 304 689 376 734 c 0
 450 779 531 802 623 802 c 0
 715 802 786 780 833 736 c 0
 870 703 889 659 889 606 c 0
 889 587 887 567 882 546 c 2
 766 0 l 1
 671 0 l 1
 787 546 l 2
 790 558 791 570 791 580 c 0
 791 602 786 622 775 637 c 1
 763 663 742 683 712 697 c 0
 684 711 649 718 608 718 c 0
 525 718 447 693 376 641 c 1
 388 639 409 631 440 617 c 0
 469 602 496 582 517 557 c 1
 494 551 466 537 433 515 c 0
 395 491 371 452 359 396 c 2
 302 125 l 2
 293 85 274 53 244 28 c 0
 212 0 174 -14 129 -14 c 0
 86 -14 55 0 36 28 c 0
 22 48 14 71 14 97 c 0
 14 108 15 119 18 130 c 0
 26 169 46 202 77 229 c 0
 108 257 146 271 190 271 c 0
 210 271 224 268 233 261 c 1
144 57 m 0
 167 57 187 64 204 79 c 0
 219 93 228 110 233 130 c 0
 234 135 234 139 234 144 c 0
 234 155 231 167 225 178 c 1
 214 192 197 199 174 199 c 0
 151 199 133 192 119 178 c 0
 100 162 90 145 87 130 c 0
 86 125 85 120 85 116 c 0
 85 103 89 91 98 81 c 1
 105 65 120 57 144 57 c 0
EndSplineSet
EndChar
StartChar: uni0E21
Encoding: 193 3617 162
Width: 852
Flags: W
HStem: -14 80<171 187> 0 21G<636 733> 513 69<270 287> 725 72<309 330> 767 20G<803 900>
VStem: 54 82<109 130> 155 73<619 640> 375 71<669 697>
DStem: 263 271 359 267 228 106 328 120 316 520 441 654 278 342 375 342 803 787 900 787 671 164 733 0
Fore
278 342 m 1
 316 520 l 1
 303 515 288 513 270 513 c 0
 227 513 195 526 175 554 c 0
 162 572 155 594 155 619 c 0
 155 631 157 643 159 656 c 0
 168 694 187 727 218 756 c 0
 251 784 287 797 330 797 c 0
 356 797 380 791 401 778 c 0
 421 766 434 749 442 728 c 0
 445 719 446 708 446 697 c 0
 446 684 444 670 441 654 c 2
 375 342 l 1
 422 338 468 325 511 305 c 0
 555 284 591 262 616 238 c 1
 641 211 660 186 671 164 c 1
 803 787 l 5
 900 787 l 1
 733 0 l 1
 636 0 l 1
 637 6 638 13 638 19 c 0
 638 44 629 72 612 104 c 0
 590 145 556 181 512 210 c 0
 469 240 418 258 359 267 c 1
 328 120 l 2
 319 80 302 47 276 23 c 1
 247 -2 212 -14 171 -14 c 0
 122 -14 90 3 72 37 c 0
 60 58 54 82 54 109 c 0
 54 123 55 139 59 155 c 0
 69 203 93 246 132 285 c 1
 170 321 219 340 278 342 c 1
149 88 m 1
 158 74 170 66 185 66 c 0
 208 66 222 80 228 106 c 2
 263 271 l 1
 232 271 204 260 183 238 c 0
 160 214 146 188 140 159 c 0
 137 148 136 138 136 128 c 0
 136 111 140 98 149 88 c 1
315 725 m 0
 294 725 275 719 258 705 c 1
 242 687 232 670 229 654 c 0
 228 649 228 645 228 640 c 0
 228 629 231 617 237 606 c 0
 247 590 263 582 285 582 c 0
 310 582 329 590 343 606 c 1
 359 620 369 636 373 654 c 0
 374 659 375 664 375 669 c 0
 375 682 371 694 364 705 c 0
 356 719 339 725 315 725 c 0
EndSplineSet
EndChar
StartChar: uni0E22
Encoding: 194 3618 163
Width: 760
Flags: W
HStem: 0 84<172 506> 330 86<380 400> 531 69<353 368> 734 68<392 410> 767 20G<710 807>
VStem: 159 97<523 545> 451 71<685 699>
DStem: 98 193 195 193 57 0 172 84 710 787 807 787 575 151 672 151
Fore
266 374 m 1
 223 389 192 415 175 452 c 0
 164 474 159 498 159 525 c 0
 159 541 161 558 164 575 c 0
 177 634 207 687 255 732 c 0
 303 779 354 802 410 802 c 4
 450 802 482 789 504 763 c 1
 516 742 522 720 522 697 c 0
 522 686 521 676 518 665 c 0
 510 628 492 596 463 570 c 1
 432 544 395 531 353 531 c 0
 323 531 300 536 286 547 c 0
 271 561 263 570 261 575 c 1
 258 560 256 546 256 533 c 0
 256 499 268 473 291 454 c 0
 321 428 357 416 400 416 c 1
 382 330 l 1
 330 330 288 317 258 292 c 1
 225 268 204 234 195 193 c 2
 172 84 l 1
 490 84 l 2
 521 84 542 88 553 97 c 0
 562 105 569 123 575 151 c 2
 710 787 l 1
 807 787 l 1
 672 151 l 2
 659 89 640 47 615 28 c 0
 587 9 540 0 472 0 c 2
 57 0 l 1
 98 193 l 2
 105 228 118 260 136 288 c 1
 154 312 173 330 192 341 c 2
 239 367 l 1
 266 374 l 1
368 600 m 0
 413 602 440 625 449 668 c 0
 450 675 451 681 451 687 c 0
 451 698 449 708 443 716 c 0
 434 728 418 734 396 734 c 0
 376 734 359 728 344 716 c 0
 329 702 320 686 316 668 c 0
 315 663 314 659 314 654 c 0
 314 642 318 632 324 621 c 0
 333 607 348 600 368 600 c 0
EndSplineSet
EndChar
StartChar: uni0E23
Encoding: 195 3619 164
Width: 681
Flags: W
HStem: -14 71<392 409> 199 72<435 451> 653 85<682 704> 725 77<420 441>
VStem: 275 74<98 115> 530 101<463 487>
DStem: 520 382 618 386 495 263 563 125
Fore
618 386 m 2
 563 125 l 2
 554 84 533 50 499 22 c 0
 470 -2 434 -14 392 -14 c 0
 347 -14 315 1 297 30 c 1
 283 51 275 73 275 98 c 0
 275 108 276 117 278 127 c 0
 286 164 307 198 340 229 c 0
 372 257 408 271 451 271 c 0
 463 271 477 268 495 263 c 1
 520 382 l 2
 527 413 530 440 530 464 c 0
 530 468 530 473 529 477 c 1
 525 498 514 515 498 527 c 1
 482 536 457 545 422 556 c 0
 372 570 318 582 260 592 c 2
 136 613 l 1
 176 664 223 709 278 748 c 1
 331 783 385 802 439 802 c 0
 473 802 500 798 518 793 c 2
 591 768 l 1
 655 744 l 1
 671 740 688 738 704 738 c 0
 732 738 760 744 790 757 c 1
 790 675 l 1
 749 660 714 653 682 653 c 0
 659 653 640 655 628 660 c 2
 559 687 l 1
 485 715 l 2
 467 721 447 725 423 725 c 0
 399 725 373 718 344 706 c 1
 314 690 296 678 293 671 c 1
 293 671 l 1
 498 618 l 1
 569 601 610 576 623 541 c 0
 628 527 631 509 631 487 c 0
 631 459 626 426 618 386 c 2
407 57 m 0
 431 57 451 64 465 79 c 0
 481 94 491 111 495 130 c 0
 496 134 496 138 496 143 c 0
 496 154 493 166 486 178 c 0
 478 192 461 199 437 199 c 0
 414 199 396 192 382 178 c 0
 364 162 354 145 351 130 c 0
 350 125 349 120 349 115 c 0
 349 103 353 91 361 81 c 1
 369 65 384 57 407 57 c 0
EndSplineSet
EndChar
StartChar: uni0E24
Encoding: 196 3620 165
Width: 795
Flags: W
HStem: -14 71<227 245> 198 72<265 289> 718 84<508 542>
VStem: 109 74<93 112> 329 70<144 164> 698 100<582 606>
DStem: 169 391 267 396 113 129 238 260 694 546 791 546 491 -410 588 -410
Fore
113 129 m 2
 169 391 l 2
 179 436 194 471 217 498 c 1
 241 522 268 539 295 551 c 1
 285 561 267 574 242 588 c 0
 215 606 179 616 136 619 c 1
 163 649 213 688 284 734 c 0
 355 779 437 802 530 802 c 0
 587 802 638 792 685 773 c 0
 729 756 760 727 780 687 c 0
 792 663 798 636 798 606 c 0
 798 587 796 567 791 546 c 2
 588 -410 l 1
 491 -410 l 1
 694 546 l 2
 697 559 698 571 698 582 c 0
 698 603 693 621 683 637 c 1
 671 663 650 683 620 697 c 0
 592 711 557 718 516 718 c 0
 433 718 355 692 284 641 c 1
 296 639 317 631 348 616 c 0
 377 602 403 582 425 556 c 1
 402 550 373 536 341 515 c 0
 303 491 279 452 267 396 c 2
 238 260 l 1
 246 267 262 270 289 270 c 0
 330 270 362 257 382 229 c 1
 394 209 399 187 399 164 c 0
 399 153 398 141 395 129 c 0
 387 91 369 58 339 30 c 0
 308 1 271 -14 229 -14 c 0
 187 -14 155 -1 133 25 c 0
 117 43 109 65 109 93 c 0
 109 104 111 116 113 129 c 2
241 57 m 0
 265 57 285 64 299 79 c 0
 314 93 323 110 327 129 c 0
 328 134 329 139 329 144 c 0
 329 155 326 167 320 178 c 1
 309 192 292 198 271 198 c 0
 249 198 231 192 216 178 c 1
 199 164 188 147 184 129 c 0
 183 123 183 118 183 112 c 0
 183 100 186 89 193 79 c 0
 204 64 219 57 241 57 c 0
EndSplineSet
EndChar
StartChar: uni0E25
Encoding: 197 3621 166
Width: 765
Flags: W
HStem: -14 69<225 242> 0 21G<549 646> 199 72<268 286> 497 81<361 366> 725 77<486 510>
VStem: 104 76<111 122> 328 72<143 163> 669 100<583 607>
DStem: 664 541 761 541 607 271 646 0
Fore
361 497 m 1
 293 490 247 432 224 324 c 1
 214 252 l 1
 218 255 226 259 237 263 c 0
 249 268 265 271 286 271 c 0
 329 271 360 257 381 229 c 0
 394 210 400 188 400 163 c 0
 400 153 399 142 397 130 c 0
 387 87 368 53 338 28 c 0
 306 0 268 -14 225 -14 c 0
 180 -14 147 1 129 30 c 0
 112 57 104 87 104 120 c 0
 104 132 l 0
 109 195 120 261 137 329 c 0
 150 392 178 449 220 499 c 0
 260 545 307 571 364 578 c 1
 425 578 473 558 508 518 c 1
 544 476 568 428 582 375 c 1
 607 271 l 1
 664 541 l 2
 667 556 669 570 669 583 c 0
 669 620 657 651 632 675 c 0
 600 708 552 725 488 725 c 0
 382 725 291 682 213 599 c 1
 161 647 l 1
 193 686 240 722 304 755 c 0
 369 785 437 802 508 802 c 0
 597 802 666 778 717 733 c 0
 751 702 769 660 769 607 c 0
 769 586 766 565 761 541 c 2
 646 0 l 1
 549 0 l 1
 552 13 553 31 553 55 c 0
 553 75 552 98 551 125 c 0
 545 182 534 239 518 293 c 0
 504 348 483 397 454 439 c 0
 430 478 399 497 361 497 c 1
270 199 m 0
 248 199 229 192 213 178 c 0
 197 163 186 146 182 127 c 0
 181 122 180 118 180 113 c 0
 180 101 184 89 192 79 c 0
 200 63 217 55 240 55 c 0
 264 55 283 63 298 79 c 0
 313 93 322 109 326 127 c 0
 327 133 328 138 328 143 c 0
 328 155 325 167 319 178 c 1
 309 192 292 199 270 199 c 0
EndSplineSet
EndChar
StartChar: uni0E26
Encoding: 198 3622 167
Width: 885
Flags: W
HStem: -14 71<129 146> 198 72<172 189> 718 84<605 625>
VStem: 14 71<97 115> 791 98<580 606>
DStem: 261 391 359 396 233 260 302 125 787 546 882 546 584 -410 679 -410
Fore
233 260 m 1
 261 391 l 2
 268 422 278 449 293 473 c 0
 304 496 319 513 335 524 c 0
 352 535 369 544 388 551 c 1
 380 559 361 571 332 588 c 0
 305 606 269 616 226 619 c 1
 254 650 304 689 376 734 c 0
 450 779 531 802 623 802 c 0
 715 802 786 780 833 736 c 0
 870 703 889 659 889 606 c 0
 889 587 887 567 882 546 c 2
 679 -410 l 1
 584 -410 l 1
 787 546 l 2
 790 558 791 569 791 580 c 0
 791 602 785 621 775 637 c 1
 763 663 742 683 712 697 c 0
 684 711 649 718 608 718 c 0
 525 718 447 692 376 641 c 1
 388 639 409 631 440 616 c 0
 469 602 496 582 517 556 c 1
 494 550 466 536 433 515 c 0
 395 491 371 452 359 396 c 2
 302 125 l 2
 293 85 274 53 244 28 c 0
 212 0 174 -14 129 -14 c 0
 86 -14 55 0 36 28 c 0
 22 48 14 71 14 97 c 0
 14 107 15 118 17 129 c 0
 26 169 46 202 77 229 c 0
 108 257 145 270 189 270 c 0
 209 270 224 267 233 260 c 1
144 57 m 0
 167 57 187 64 204 79 c 0
 219 93 228 110 232 129 c 0
 233 134 234 139 234 144 c 0
 234 155 231 167 225 178 c 1
 214 192 197 198 174 198 c 0
 151 198 133 192 119 178 c 0
 100 161 90 145 86 129 c 0
 85 124 85 120 85 115 c 0
 85 103 89 91 98 81 c 1
 105 65 120 57 144 57 c 0
EndSplineSet
EndChar
StartChar: uni0E27
Encoding: 199 3623 168
Width: 727
Flags: W
HStem: -14 71<464 479> 199 72<503 523> 725 77<450 479>
VStem: 348 71<96 114> 632 96<590 611>
DStem: 626 542 721 542 567 263 634 130
Fore
721 542 m 2
 634 130 l 2
 625 91 607 58 580 30 c 0
 554 1 515 -14 465 -14 c 0
 421 -14 389 0 369 28 c 0
 355 48 348 70 348 96 c 0
 348 107 349 118 352 130 c 0
 360 169 380 202 410 229 c 0
 440 257 477 271 523 271 c 0
 538 271 553 268 567 263 c 1
 626 542 l 2
 630 560 632 577 632 592 c 0
 632 629 621 658 600 679 c 0
 570 710 522 725 457 725 c 0
 404 725 353 712 303 685 c 0
 260 663 220 632 186 593 c 1
 136 641 l 1
 156 666 184 692 222 721 c 0
 255 743 294 762 338 778 c 0
 384 794 429 802 473 802 c 4
 564 802 634 779 679 732 c 1
 712 700 728 658 728 606 c 0
 728 586 726 565 721 542 c 2
507 199 m 0
 485 199 468 192 452 178 c 0
 434 162 424 145 421 130 c 0
 419 125 419 119 419 114 c 0
 419 102 422 91 428 81 c 0
 439 65 455 57 477 57 c 0
 501 57 521 64 536 79 c 0
 551 93 560 110 565 130 c 0
 566 135 566 139 566 144 c 0
 566 155 563 167 557 178 c 0
 548 192 531 199 507 199 c 0
EndSplineSet
EndChar
StartChar: uni0E28
Encoding: 200 3624 169
Width: 799
Flags: W
HStem: 0 21G<149 244 582 679> 329 69<403 420> 541 72<446 463> 729 77<495 529>
VStem: 112 99<465 489> 506 71<488 516>
DStem: 179 141 320 356 149 0 244 0 694 525 793 534 582 0 679 0
Fore
760 715 m 5
 770 725 783 741 797 764 c 4
 814 784 829 808 843 835 c 5
 920 791 l 5
 900 755 879 726 858 704 c 4
 837 684 816 663 794 643 c 5
 798 629 800 613 800 596 c 0
 800 577 797 557 793 534 c 6
 679 0 l 5
 582 0 l 5
 694 525 l 5
 700 576 l 5
 640 543 l 6
 612 529 592 520 577 516 c 5
 577 495 l 5
 572 463 l 5
 564 425 544 393 510 368 c 5
 479 342 442 329 403 329 c 4
 362 329 334 338 320 356 c 5
 244 0 l 5
 149 0 l 5
 179 141 l 6
 184 164 186 184 186 203 c 0
 186 214 185 224 184 234 c 4
 178 256 166 288 148 331 c 4
 134 366 123 399 116 430 c 5
 114 440 112 452 112 465 c 0
 112 482 115 502 120 525 c 4
 132 583 159 634 199 678 c 4
 239 721 289 753 346 773 c 4
 406 795 463 806 517 806 c 4
 626 806 707 776 760 715 c 5
679 641 m 5
 671 658 654 676 626 696 c 4
 598 718 556 729 501 729 c 4
 468 729 432 723 391 711 c 5
 348 695 311 672 280 643 c 4
 247 614 225 573 214 521 c 4
 212 511 211 500 211 489 c 0
 211 470 214 449 220 426 c 4
 228 394 232 367 232 343 c 0
 232 342 l 5
 248 417 l 6
 260 473 284 521 322 558 c 4
 359 595 407 613 463 613 c 4
 484 613 502 611 515 607 c 5
 531 596 540 588 545 583 c 6
 556 572 l 5
 574 576 594 585 617 599 c 4
 645 615 665 629 679 641 c 5
448 541 m 4
 423 541 405 534 390 521 c 4
 375 506 364 489 360 470 c 4
 359 466 359 461 359 457 c 0
 359 445 362 433 368 421 c 5
 376 406 393 398 418 398 c 4
 442 398 461 406 475 421 c 5
 491 436 500 452 504 470 c 4
 505 476 506 483 506 488 c 0
 506 501 503 511 497 521 c 4
 488 534 472 541 448 541 c 4
EndSplineSet
EndChar
StartChar: uni0E29
Encoding: 201 3625 170
Width: 873
Flags: W
HStem: 0 84<102 598> 285 71<632 669.123> 504 61<560 580> 512 69<244 261> 725 72<288 305> 767 20G<800 897>
VStem: 128 72<624 642> 348 73<669 694> 425 64<411 431> 618 68<458 470>
DStem: 290 519 416 653 198 84 295 84 694 289 798 320 665 150 762 150 800 787 897 787 709 358 814 396
Fore
798 320 m 5
 762 150 l 6
 749 88 729 47 704 28 c 4
 679 10 632 0 562 0 c 6
 85 0 l 5
 103 84 l 5
 198 84 l 5
 290 519 l 5
 277 514 263 512 245 512 c 4
 199 512 168 527 150 556 c 5
 135 576 128 598 128 624 c 0
 128 634 129 645 131 656 c 4
 139 693 159 726 192 755 c 4
 223 783 261 797 305 797 c 4
 330 797 354 790 375 778 c 4
 394 766 407 749 416 727 c 4
 419 718 421 707 421 694 c 0
 421 682 419 668 416 653 c 6
 295 84 l 5
 580 84 l 6
 611 84 631 88 640 97 c 5
 650 104 659 122 665 150 c 6
 694 289 l 5
 679 286 658 285 632 285 c 4
 570 287 519 300 477 322 c 4
 443 340 425 370 425 411 c 0
 425 420 426 430 428 440 c 4
 434 472 451 501 477 526 c 4
 504 552 538 565 580 565 c 4
 623 565 653 553 670 530 c 5
 680 511 686 491 686 470 c 0
 686 461 685 451 683 442 c 4
 675 404 657 375 629 356 c 5
 709 358 l 5
 800 787 l 5
 897 787 l 5
 814 396 l 5
 829 404 848 422 872 451 c 4
 891 472 908 507 920 556 c 5
 996 556 l 5
 981 485 956 435 923 405 c 5
 885 372 843 344 798 320 c 5
541 380 m 4
 554 380 565 383 577 389 c 4
 588 396 597 404 603 413 c 4
 610 422 614 431 616 442 c 4
 617 448 618 454 618 460 c 0
 618 470 615 479 609 486 c 4
 599 498 584 504 567 504 c 4
 548 504 532 498 517 486 c 4
 503 475 494 460 490 442 c 4
 489 438 489 435 489 431 c 0
 489 420 492 409 499 398 c 5
 508 386 522 380 541 380 c 4
290 725 m 4
 265 725 247 718 232 704 c 4
 216 688 206 671 202 653 c 4
 201 649 200 644 200 640 c 0
 200 628 204 616 211 605 c 5
 218 589 234 581 259 581 c 4
 283 581 303 589 318 605 c 5
 333 619 342 635 346 653 c 4
 347 659 348 664 348 669 c 0
 348 681 345 693 339 704 c 4
 330 718 314 725 290 725 c 4
EndSplineSet
EndChar
StartChar: uni0E2A
Encoding: 202 3626 171
Width: 763
Flags: W
HStem: -14 69<223 240> 0 21G<546 643> 199 72<261 284> 497 82<359 364> 724 77<474 516>
VStem: 102 77<112 129> 326 72<143 163> 665 100<581 606>
DStem: 661 541 758 541 604 271 643 0
Fore
268 199 m 4
 246 199 227 192 210 179 c 4
 195 163 184 147 180 128 c 4
 179 123 179 118 179 114 c 0
 179 101 182 89 189 79 c 4
 198 63 215 55 238 55 c 4
 262 55 280 63 296 79 c 4
 311 93 320 110 324 128 c 4
 325 134 326 139 326 144 c 0
 326 156 323 168 317 179 c 5
 307 192 290 199 268 199 c 4
657 636 m 5
 656 631 636 607 598 565 c 5
 559 525 537 501 536 493 c 5
 550 472 563 446 572 415 c 5
 594 331 l 5
 604 271 l 5
 661 541 l 6
 664 555 665 568 665 582 c 0
 665 600 663 618 657 636 c 5
505 548 m 6
 506 548 527 571 569 616 c 6
 627 680 l 5
 599 710 552 724 486 724 c 4
 380 724 289 683 211 599 c 5
 159 647 l 5
 190 687 238 722 302 755 c 4
 367 786 435 801 506 801 c 4
 574 801 632 787 680 759 c 5
 684 759 702 777 734 812 c 4
 764 848 783 866 792 866 c 5
 811 852 l 5
 843 826 l 6
 849 820 853 814 853 808 c 0
 853 808 852 807 852 806 c 5
 786 742 l 5
 756 718 741 705 740 702 c 5
 757 675 765 643 765 606 c 0
 765 586 763 564 758 541 c 6
 643 0 l 5
 546 0 l 5
 549 14 551 35 551 63 c 0
 551 81 550 102 549 125 c 4
 543 183 532 239 516 294 c 4
 502 349 481 397 453 440 c 4
 428 478 396 497 359 497 c 5
 290 490 245 433 222 324 c 5
 212 252 l 5
 216 256 224 260 235 263 c 4
 247 269 263 271 284 271 c 4
 327 271 358 257 379 229 c 4
 392 210 398 188 398 163 c 0
 398 152 397 141 395 130 c 4
 385 87 365 53 336 28 c 4
 304 0 266 -14 223 -14 c 4
 177 -14 145 1 127 31 c 4
 110 57 102 87 102 118 c 0
 102 123 102 127 102 132 c 4
 107 195 118 261 135 329 c 4
 148 392 176 449 217 499 c 4
 258 545 306 572 362 579 c 5
 410 579 443 573 462 560 c 5
 473 558 l 5
 496 553 l 5
 505 548 l 6
EndSplineSet
EndChar
StartChar: uni0E2B
Encoding: 203 3627 172
Width: 880
Flags: W
HStem: 0 21G<187 284 666 761> 512 69<251 268> 725 72<292 312 772 788>
VStem: 135 72<624 642> 355 73<669 694> 609 76<616 642> 751 97<415 436> 832 74<672 690>
DStem: 297 519 423 653 187 0 346 294 745 373 840 373 666 0 761 0
Fore
187 0 m 5
 297 519 l 5
 284 514 270 512 252 512 c 4
 206 512 175 527 157 556 c 5
 142 576 135 598 135 624 c 0
 135 634 136 645 138 656 c 4
 146 693 166 726 199 755 c 4
 230 783 268 797 312 797 c 4
 337 797 361 790 382 778 c 4
 401 766 414 749 423 727 c 4
 426 718 428 707 428 694 c 0
 428 682 426 668 423 653 c 6
 346 294 l 5
 386 358 438 412 501 456 c 4
 567 502 613 531 640 541 c 5
 619 559 609 585 609 616 c 0
 609 627 610 640 613 653 c 4
 621 690 641 724 673 755 c 4
 705 783 743 797 788 797 c 4
 834 797 866 783 886 755 c 4
 900 736 906 715 906 690 c 0
 906 680 905 668 902 656 c 4
 897 631 886 607 868 583 c 4
 848 558 825 541 801 530 c 5
 815 525 826 510 835 486 c 5
 843 473 848 456 848 434 c 0
 848 416 845 396 840 373 c 6
 761 0 l 5
 666 0 l 5
 745 373 l 6
 749 392 751 409 751 423 c 0
 751 441 748 456 741 466 c 5
 727 484 716 494 710 497 c 5
 598 447 505 376 431 285 c 5
 354 197 308 112 291 31 c 6
 284 0 l 5
 187 0 l 5
774 727 m 4
 752 727 733 720 719 706 c 4
 701 691 690 674 686 656 c 4
 685 651 685 646 685 642 c 0
 685 629 689 617 698 607 c 5
 705 591 720 583 743 583 c 4
 768 583 788 591 802 607 c 5
 817 621 826 637 830 656 c 4
 832 662 832 667 832 672 c 0
 832 684 829 696 823 706 c 4
 814 720 799 727 774 727 c 4
297 725 m 4
 272 725 254 718 239 704 c 4
 223 688 213 671 209 653 c 4
 208 649 207 644 207 640 c 0
 207 628 211 616 218 605 c 5
 225 589 241 581 266 581 c 4
 290 581 310 589 325 605 c 5
 340 619 349 635 353 653 c 4
 354 659 355 664 355 669 c 0
 355 681 352 693 346 704 c 4
 337 718 321 725 297 725 c 4
EndSplineSet
EndChar
StartChar: uni0E2C
Encoding: 204 3628 173
Width: 940
Flags: W
HStem: 0 21G<173 270 723 820> 513 69<238 255> 657 67<855 863> 725 72<281 298> 845 62<883 903>
VStem: 122 72<624 641> 341 73<670 696> 741 70<753 769> 932 67<795 811>
DStem: 283 519 409 654 173 0 324 252 620 556 662 752 731 97 777 252 662 752 620 556 324 252 309 97 863 657 964 676 777 252 820 0
Fore
173 0 m 1
 283 519 l 1
 271 515 256 513 238 513 c 0
 193 513 161 527 143 557 c 1
 129 577 122 599 122 624 c 0
 122 635 123 645 125 656 c 0
 134 694 154 727 186 756 c 0
 218 784 254 797 298 797 c 0
 324 797 348 791 369 778 c 0
 388 766 401 749 410 727 c 0
 413 718 414 708 414 696 c 0
 414 684 412 669 409 654 c 2
 324 252 l 1
 662 752 l 1
 777 252 l 1
 863 657 l 1
 815 657 780 670 761 694 c 0
 748 711 741 730 741 753 c 0
 741 764 743 774 745 786 c 0
 753 821 771 850 800 872 c 0
 831 896 865 907 903 907 c 0
 938 907 963 895 981 870 c 0
 993 852 999 831 999 807 c 0
 999 797 998 785 995 773 c 1
 1007 777 1024 789 1046 808 c 0
 1067 825 1087 850 1104 883 c 1
 1163 845 l 1
 1139 801 1108 765 1067 735 c 0
 1022 703 987 683 964 676 c 1
 820 0 l 1
 723 0 l 2
 723 0 722 1 722 2 c 0
 722 5 723 10 725 18 c 1
 730 60 l 1
 731 97 l 1
 620 556 l 1
 309 97 l 1
 299 81 291 64 285 46 c 1
 270 0 l 1
 173 0 l 1
283 725 m 0
 259 725 240 718 226 705 c 0
 209 688 200 671 196 654 c 0
 195 649 194 644 194 639 c 0
 194 627 198 616 205 605 c 1
 212 590 228 582 253 582 c 0
 278 582 297 590 311 605 c 1
 326 620 335 636 339 654 c 0
 340 660 341 665 341 670 c 0
 341 682 338 694 332 705 c 0
 324 718 307 725 283 725 c 0
857 724 m 0
 876 724 892 730 907 742 c 1
 919 755 926 769 930 784 c 0
 931 791 932 797 932 803 c 0
 932 813 930 821 925 828 c 1
 916 839 903 845 883 845 c 0
 866 845 850 839 837 826 c 0
 824 815 816 801 813 784 c 0
 812 779 811 774 811 769 c 0
 811 759 814 750 819 742 c 0
 826 730 839 724 857 724 c 0
EndSplineSet
EndChar
StartChar: uni0E2D
Encoding: 205 3629 174
Width: 784
Flags: W
HStem: 0 84<246 526> 280 71<290 305> 493 72<330 350> 727 75<493 526>
VStem: 107 102<83 120> 391 74<439 457> 688 98<582 601>
DStem: 173 421 242 289 116 150 213 150 683 541 780 541 600 150 697 150
Fore
242 289 m 5
 213 150 l 6
 210 138 209 128 209 120 c 0
 209 109 211 101 216 97 c 5
 221 88 239 84 270 84 c 6
 513 84 l 6
 544 84 565 88 576 97 c 4
 585 104 594 122 600 150 c 6
 683 541 l 6
 686 556 688 571 688 584 c 0
 688 622 675 652 651 676 c 4
 615 710 567 727 505 727 c 4
 502 727 500 727 498 727 c 0
 399 727 309 684 229 599 c 5
 180 647 l 5
 210 686 256 722 320 755 c 5
 385 786 452 802 524 802 c 4
 583 802 634 791 679 771 c 4
 720 750 751 721 770 682 c 5
 781 656 786 629 786 599 c 0
 786 581 784 561 780 541 c 6
 697 150 l 6
 684 88 664 48 638 28 c 4
 612 9 565 0 495 0 c 6
 252 0 l 6
 206 0 172 4 148 11 c 4
 126 19 114 33 111 53 c 5
 109 61 107 71 107 83 c 0
 107 101 110 124 116 150 c 6
 173 421 l 6
 178 441 187 461 200 481 c 5
 212 504 231 523 257 539 c 4
 281 556 312 565 350 565 c 4
 393 565 424 551 445 523 c 4
 458 504 465 482 465 457 c 0
 465 447 464 436 461 424 c 4
 452 383 433 349 402 322 c 4
 370 294 333 280 290 280 c 4
 279 280 263 283 242 289 c 5
303 351 m 4
 324 351 343 359 361 375 c 4
 375 387 385 403 388 421 c 4
 390 427 391 434 391 439 c 0
 391 452 387 462 381 472 c 4
 372 486 357 493 333 493 c 4
 309 493 290 487 275 475 c 4
 260 460 249 443 245 424 c 4
 244 418 243 413 243 407 c 0
 243 394 247 383 253 373 c 4
 264 359 281 351 303 351 c 4
EndSplineSet
EndChar
StartChar: uni0E2E
Encoding: 206 3630 175
Width: 778
Flags: W
HStem: 0 84<244 518> 203 70<265 287> 417 71<308 328> 526 79<420 456> 730 72<468 509>
VStem: 188 99<640 656> 367 75<362 381>
DStem: 685 584 789 614 593 150 690 150
Fore
110 150 m 2
 151 342 l 2
 157 373 174 405 202 439 c 0
 230 472 273 488 328 488 c 0
 371 488 403 474 422 446 c 0
 435 427 442 406 442 381 c 0
 442 371 440 359 438 347 c 0
 430 310 411 276 379 245 c 1
 347 217 309 203 267 203 c 0
 248 203 233 206 220 212 c 1
 207 150 l 2
 204 137 203 126 203 117 c 0
 203 107 205 101 209 97 c 1
 214 88 232 84 264 84 c 2
 507 84 l 2
 538 84 559 88 570 97 c 0
 579 104 587 121 593 150 c 2
 685 584 l 1
 664 569 629 556 580 544 c 0
 523 532 476 526 437 526 c 0
 367 526 306 538 254 561 c 0
 210 581 188 607 188 640 c 0
 188 646 189 652 190 658 c 0
 197 692 217 719 251 739 c 0
 286 760 326 777 369 787 c 0
 413 797 455 802 495 802 c 0
 551 802 600 795 642 783 c 0
 675 773 704 758 730 739 c 2
 757 716 l 1
 757 716 l 1
 798 750 832 780 857 806 c 1
 913 753 l 1
 879 716 854 691 836 679 c 0
 814 661 796 649 782 641 c 1
 787 638 789 631 789 620 c 0
 789 614 l 1
 690 150 l 2
 677 88 658 47 632 28 c 0
 606 9 558 0 489 0 c 2
 246 0 l 2
 200 0 166 3 142 11 c 0
 120 18 107 32 105 53 c 1
 103 61 101 71 101 83 c 0
 101 101 104 123 110 150 c 2
454 605 m 0
 493 605 531 610 566 619 c 1
 600 626 628 633 649 641 c 0
 669 650 679 656 680 658 c 1
 669 673 649 688 623 705 c 1
 589 721 542 730 480 730 c 0
 433 730 391 724 354 714 c 0
 314 702 293 685 288 663 c 0
 287 660 287 658 287 656 c 0
 287 622 342 605 454 605 c 0
279 273 m 0
 303 273 323 280 336 293 c 0
 352 310 362 327 365 344 c 0
 366 350 367 357 367 362 c 0
 367 375 364 385 358 395 c 0
 349 409 334 417 310 417 c 0
 289 417 269 409 252 395 c 0
 237 384 227 367 222 344 c 0
 221 338 220 333 220 327 c 0
 220 315 223 303 230 293 c 0
 242 280 257 273 279 273 c 0
EndSplineSet
EndChar
StartChar: uni0E2F
Encoding: 207 3631 176
Width: 730
Flags: W
HStem: 354 86<351 374> 522 67<312 326> 730 72<347 366> 767 20G<681 778>
VStem: 412 69<675 696>
DStem: 624 517 778 787 568 255 663 246
Fore
364 802 m 4
 409 802 442 789 460 762 c 4
 474 743 481 721 481 696 c 0
 481 685 479 674 477 663 c 4
 469 627 449 594 418 566 c 4
 388 536 353 522 314 522 c 4
 292 522 276 525 265 531 c 6
 243 542 l 5
 248 514 261 490 283 471 c 5
 302 450 332 440 372 440 c 4
 415 440 458 456 499 489 c 4
 542 522 580 565 614 617 c 5
 646 670 669 727 681 787 c 5
 778 787 l 5
 663 246 l 6
 646 167 615 107 566 65 c 4
 519 24 449 -8 357 -30 c 5
 352 58 l 5
 423 75 475 97 507 124 c 5
 535 150 555 194 568 255 c 6
 624 517 l 5
 589 461 549 421 505 396 c 4
 454 368 405 354 357 354 c 4
 305 354 261 369 224 398 c 4
 184 429 161 468 156 517 c 4
 156 532 l 0
 156 555 158 577 163 600 c 4
 175 658 197 706 229 743 c 4
 263 782 308 802 364 802 c 4
324 589 m 4
 348 589 367 595 382 610 c 4
 397 624 406 641 410 661 c 4
 412 666 412 670 412 675 c 0
 412 687 408 699 401 709 c 4
 392 723 376 730 354 730 c 4
 331 730 313 723 299 709 c 4
 283 693 274 677 270 661 c 4
 269 655 268 648 268 643 c 0
 268 630 272 620 278 610 c 4
 285 595 301 589 324 589 c 4
EndSplineSet
EndChar
StartChar: uni0E30
Encoding: 208 3632 177
Width: 605
Flags: W
HStem: 0 21G<191 258> 223 62<187 212> 516 88<279 336> 738 63<306 323> 766 20G<591 688>
VStem: 43 74<124 143> 152 74<636 658> 253 75<175 187> 362 76<687 704>
Fore
336 516 m 0
 264 516 214 531 186 560 c 1
 164 582 152 607 152 636 c 0
 152 645 153 654 155 664 c 0
 163 701 183 733 215 762 c 0
 247 788 282 801 321 801 c 0
 369 801 402 789 419 764 c 0
 432 746 438 725 438 702 c 0
 438 693 437 683 435 673 c 0
 429 645 413 618 390 592 c 1
 415 592 450 604 496 627 c 1
 543 653 574 706 591 786 c 1
 688 786 l 1
 676 728 654 679 622 638 c 1
 585 596 544 565 500 546 c 0
 454 526 400 516 336 516 c 0
226 0 m 0
 156 0 106 15 76 44 c 0
 54 68 43 95 43 124 c 0
 43 132 44 140 45 148 c 0
 53 183 72 214 105 243 c 0
 136 271 169 285 204 285 c 0
 207 285 209 285 212 285 c 0
 241 285 266 278 288 263 c 0
 303 253 315 238 323 218 c 0
 327 207 328 196 328 185 c 0
 328 176 327 167 325 157 c 0
 319 128 303 101 280 77 c 1
 307 77 344 89 387 113 c 0
 433 137 464 190 482 271 c 1
 579 271 l 1
 566 212 545 163 512 123 c 0
 477 80 436 49 390 30 c 0
 345 10 290 0 226 0 c 0
198 223 m 0
 178 223 161 216 145 203 c 0
 131 190 122 174 118 155 c 0
 117 151 117 147 117 143 c 0
 117 132 120 121 127 108 c 0
 136 95 150 88 170 88 c 0
 191 88 209 94 224 106 c 0
 237 119 246 135 250 155 c 0
 252 163 253 170 253 177 c 0
 253 188 250 197 244 203 c 0
 235 216 219 223 198 223 c 0
308 738 m 0
 287 738 270 732 255 720 c 0
 241 706 232 690 228 671 c 0
 227 667 226 662 226 658 c 0
 226 647 230 636 237 625 c 0
 246 611 259 604 279 604 c 0
 301 604 320 611 334 625 c 0
 347 635 355 651 360 671 c 0
 361 679 362 686 362 693 c 0
 362 723 344 738 308 738 c 0
EndSplineSet
EndChar
StartChar: uni0E31
Encoding: 209 3633 178
Width: 0
Flags: W
HStem: 850 124<-130 2> 1108 67<-103 -87>
VStem: -256 71<1005 1027> -49 76<1057 1072>
Fore
-255 1022 m 1
 -245 1068 -225 1104 -197 1131 c 1
 -168 1160 -132 1175 -87 1175 c 0
 -46 1175 -15 1161 5 1135 c 0
 19 1115 27 1094 27 1070 c 0
 27 1061 26 1051 23 1042 c 0
 15 1004 -7 971 -42 943 c 1
 -36 941 -23 938 -3 936 c 2
 38 932 l 1
 82 934 127 944 172 962 c 0
 223 983 265 1008 297 1038 c 1
 333 1070 363 1108 385 1152 c 1
 457 1113 l 1
 434 1069 400 1026 353 985 c 1
 309 948 257 916 196 890 c 0
 135 864 75 850 17 850 c 0
 2 850 l 0
 -66 850 -128 863 -183 890 c 0
 -232 915 -256 954 -256 1005 c 0
 -256 1010 -255 1016 -255 1022 c 1
-130 974 m 0
 -111 974 -94 980 -78 992 c 1
 -64 1005 -56 1021 -52 1040 c 0
 -50 1048 -49 1055 -49 1062 c 0
 -49 1073 -52 1082 -58 1089 c 0
 -69 1102 -83 1108 -101 1108 c 0
 -121 1108 -139 1102 -155 1089 c 0
 -170 1077 -179 1061 -184 1040 c 0
 -185 1036 -185 1031 -185 1027 c 0
 -185 1016 -182 1005 -175 994 c 0
 -167 980 -151 974 -130 974 c 0
EndSplineSet
EndChar
StartChar: uni0E32
Encoding: 210 3634 179
Width: 650
Flags: W
HStem: 0 21G<434 531> 729 72<415 436>
VStem: 561 98<607 629>
DStem: 556 574 652 569 434 0 531 0
Fore
129 627 m 5
 171 684 216 727 261 757 c 4
 307 786 364 801 432 801 c 4
 512 801 572 781 613 740 c 4
 643 712 659 674 659 627 c 0
 659 609 656 590 652 569 c 6
 531 0 l 5
 434 0 l 5
 556 574 l 6
 559 589 561 602 561 615 c 0
 561 646 552 671 533 689 c 4
 508 716 470 729 417 729 c 4
 371 729 329 716 291 691 c 4
 252 667 219 633 193 592 c 5
 162 611 l 5
 129 627 l 5
EndSplineSet
EndChar
StartChar: uni0E33
Encoding: 211 3635 180
Width: 670
Flags: W
HStem: 0 21G<453 550> 729 72<421 456> 908 63<8 24> 1129 62<53 71>
VStem: -106 65<1018 1033> 120 64<1067 1086> 580 98<607 630>
DStem: 575 574 671 570 453 0 550 0
Fore
9 908 m 0
 -34 908 -66 922 -86 950 c 0
 -100 971 -106 993 -106 1018 c 0
 -106 1028 -105 1039 -103 1050 c 0
 -94 1090 -75 1123 -46 1149 c 0
 -15 1177 24 1191 69 1191 c 0
 113 1191 145 1177 165 1149 c 0
 178 1131 184 1110 184 1086 c 0
 184 1075 183 1063 180 1050 c 0
 172 1010 153 977 123 950 c 0
 91 922 53 908 9 908 c 0
149 627 m 1
 191 684 236 727 281 757 c 0
 327 787 384 801 452 801 c 0
 531 801 592 781 633 740 c 0
 663 712 678 675 678 628 c 0
 678 610 676 591 671 570 c 2
 550 0 l 1
 453 0 l 1
 575 574 l 2
 578 589 580 604 580 617 c 0
 580 647 571 671 553 689 c 0
 528 716 489 729 437 729 c 0
 391 729 348 717 311 692 c 0
 271 667 239 634 213 592 c 1
 182 611 l 1
 149 627 l 1
56 1129 m 0
 31 1129 10 1121 -7 1105 c 0
 -24 1089 -34 1071 -39 1050 c 0
 -40 1044 -41 1037 -41 1031 c 0
 -41 1018 -37 1005 -31 994 c 0
 -19 979 -2 971 22 971 c 0
 37 971 52 975 67 983 c 0
 79 989 90 999 101 1013 c 0
 109 1023 115 1035 118 1050 c 0
 120 1056 120 1062 120 1068 c 0
 120 1082 117 1094 110 1105 c 0
 99 1121 82 1129 56 1129 c 0
EndSplineSet
EndChar
StartChar: uni0E34
Encoding: 212 3636 181
Width: 0
Flags: W
HStem: 921 67<-361 -268> 1099 72<-184 -150>
DStem: -268 990 -268 990 -361 988 -189 988
Fore
-150 1171 m 5
 -52 1157 14 1118 44 1052 c 4
 73 985 87 915 87 844 c 0
 87 844 87 843 87 842 c 5
 -26 882 l 6
 -65 894 -121 905 -192 914 c 4
 -233 919 -274 921 -317 921 c 6
 -455 917 l 5
 -545 904 l 5
 -528 950 -499 994 -457 1036 c 5
 -419 1079 -373 1111 -319 1134 c 5
 -267 1158 -211 1171 -150 1171 c 5
-184 1099 m 5
 -233 1099 -279 1087 -321 1062 c 5
 -367 1038 -396 1012 -408 983 c 5
 -361 988 l 5
 -268 990 l 5
 -189 988 l 5
 -131 983 -86 974 -54 961 c 4
 -29 951 -9 941 7 930 c 5
 -17 1027 -81 1083 -184 1099 c 5
EndSplineSet
EndChar
StartChar: uni0E35
Encoding: 213 3637 182
Width: 0
Flags: W
HStem: 916 67<-362 -269> 1093 73<-186 -151>
DStem: -269 985 -269 985 -362 983 -190 983 60 1258 147 1258 21 1075 79 936
Fore
21 1075 m 5
 60 1258 l 5
 147 1258 l 5
 79 936 l 5
 79 936 l 5
 84 911 l 5
 86 837 l 5
 -27 876 l 6
 -66 889 -122 900 -193 909 c 4
 -233 914 -275 916 -318 916 c 6
 -456 911 l 5
 -546 899 l 5
 -529 945 -500 989 -458 1031 c 5
 -421 1072 -374 1105 -320 1131 c 4
 -267 1154 -211 1166 -151 1166 c 5
 -115 1161 -84 1152 -58 1137 c 4
 -38 1128 -19 1116 -1 1101 c 5
 21 1075 l 5
-186 1093 m 5
 -218 1093 -250 1087 -283 1075 c 4
 -315 1062 -341 1048 -361 1031 c 5
 -381 1018 -396 1000 -409 978 c 5
 -362 983 l 5
 -269 985 l 5
 -190 983 l 5
 -132 978 -87 969 -56 955 c 4
 -30 946 -10 935 6 925 c 5
 -3 966 -21 1002 -48 1033 c 4
 -76 1067 -122 1086 -186 1093 c 5
EndSplineSet
EndChar
StartChar: uni0E36
Encoding: 214 3638 183
Width: 0
Flags: W
HStem: 915 67<-362 -269> 1092 77<-195 -186> 1209 62<45 65>
VStem: 100 66<1156 1173>
DStem: -269 984 -269 984 -362 982 -190 982
Fore
164 1147 m 4
 157 1116 143 1089 124 1068 c 4
 103 1044 78 1030 52 1026 c 5
 58 1015 65 990 75 952 c 4
 83 927 87 898 87 867 c 0
 87 857 87 847 86 836 c 5
 -26 876 l 6
 -66 888 -121 899 -192 908 c 4
 -234 913 -276 915 -319 915 c 6
 -456 911 l 5
 -546 898 l 5
 -525 950 -495 996 -457 1037 c 4
 -420 1077 -376 1109 -325 1134 c 4
 -276 1158 -232 1169 -190 1169 c 5
 -140 1165 l 5
 -100 1156 l 5
 -86 1149 l 5
 -79 1180 -61 1207 -33 1231 c 5
 -8 1258 25 1271 63 1271 c 4
 104 1271 133 1259 149 1236 c 4
 160 1217 166 1195 166 1171 c 0
 166 1163 165 1155 164 1147 c 4
52 1209 m 4
 31 1209 16 1203 4 1192 c 5
 -9 1181 -18 1168 -21 1151 c 4
 -22 1147 -23 1143 -23 1139 c 0
 -23 1128 -19 1119 -13 1112 c 4
 -2 1099 11 1092 27 1092 c 4
 42 1092 57 1099 72 1112 c 4
 85 1122 94 1135 98 1151 c 4
 99 1157 100 1162 100 1168 c 0
 100 1177 98 1185 93 1192 c 5
 84 1203 71 1209 52 1209 c 4
-186 1092 m 5
 -218 1092 -250 1086 -283 1074 c 4
 -315 1062 -341 1047 -361 1030 c 5
 -380 1017 -397 999 -409 977 c 5
 -362 982 l 5
 -269 984 l 5
 -190 982 l 5
 -132 977 -87 968 -55 955 c 4
 -30 945 -9 935 5 924 c 5
 -1 961 -19 996 -49 1030 c 4
 -76 1063 -122 1083 -186 1092 c 5
EndSplineSet
EndChar
StartChar: uni0E37
Encoding: 215 3639 184
Width: 0
Flags: W
HStem: 916 67<-362 -269> 1093 77<-195 -183>
DStem: -269 985 -269 985 -362 983 -190 983 -114 1258 -26 1258 -134 1163 -52 1135 60 1258 147 1258 21 1073 79 934
Fore
79 934 m 5
 82 934 84 902 86 837 c 5
 -27 876 l 6
 -66 889 -122 900 -193 909 c 4
 -233 914 -275 916 -318 916 c 6
 -456 911 l 5
 -546 899 l 5
 -530 946 -500 992 -457 1036 c 4
 -415 1079 -371 1112 -325 1133 c 5
 -278 1158 -230 1170 -183 1170 c 4
 -165 1170 -149 1168 -134 1163 c 5
 -114 1258 l 5
 -26 1258 l 5
 -52 1135 l 5
 -20 1122 5 1102 21 1073 c 5
 60 1258 l 5
 147 1258 l 5
 79 934 l 5
-186 1093 m 5
 -235 1093 -280 1081 -323 1057 c 4
 -369 1032 -397 1006 -409 978 c 5
 -362 983 l 5
 -269 985 l 5
 -190 983 l 5
 -132 978 -87 969 -56 955 c 4
 -30 946 -10 935 6 925 c 5
 -18 1021 -82 1077 -186 1093 c 5
EndSplineSet
EndChar
StartChar: uni0E38
Encoding: 216 3640 185
Width: 0
Flags: W
HStem: -316 72<-335 -314> -104 72<-287 -269>
VStem: -446 71<-210 -191> -226 73<-157 -136>
DStem: -285 -309 -157 -170 -328 -513 -230 -513
Fore
-230 -513 m 5
 -328 -513 l 5
 -285 -309 l 5
 -299 -314 -316 -316 -335 -316 c 4
 -379 -316 -410 -302 -427 -274 c 4
 -440 -255 -446 -234 -446 -210 c 0
 -446 -199 -445 -187 -442 -175 c 4
 -434 -136 -415 -103 -385 -73 c 5
 -354 -45 -315 -32 -269 -32 c 4
 -227 -32 -196 -44 -177 -69 c 4
 -161 -87 -153 -109 -153 -136 c 0
 -153 -147 -155 -158 -157 -170 c 6
 -230 -513 l 5
-314 -244 m 4
 -294 -244 -274 -237 -256 -223 c 4
 -242 -211 -232 -195 -228 -175 c 4
 -227 -169 -226 -162 -226 -157 c 0
 -226 -144 -229 -134 -235 -124 c 4
 -244 -110 -261 -104 -284 -104 c 4
 -307 -104 -328 -111 -345 -126 c 4
 -360 -141 -369 -157 -373 -175 c 4
 -374 -181 -375 -186 -375 -191 c 0
 -375 -203 -371 -214 -363 -223 c 4
 -352 -237 -336 -244 -314 -244 c 4
EndSplineSet
EndChar
StartChar: uni0E39
Encoding: 217 3641 186
Width: 0
Flags: W
HStem: -534 78<-391 -368> -317 72<-548 -528> -104 72<-503 -485>
VStem: -662 73<-202 -188> -522 99<-425 -409> -442 73<-161 -136>
DStem: -226 -41 -128 -41 -302 -398 -204 -398
Fore
-519 -398 m 6
 -500 -310 l 5
 -515 -315 -530 -317 -548 -317 c 4
 -591 -317 -622 -302 -640 -273 c 4
 -655 -251 -662 -227 -662 -202 c 0
 -662 -193 -661 -183 -659 -173 c 4
 -651 -138 -631 -105 -598 -74 c 4
 -568 -46 -530 -32 -485 -32 c 4
 -443 -32 -413 -45 -394 -69 c 5
 -378 -87 -369 -109 -369 -136 c 0
 -369 -147 -371 -158 -373 -171 c 6
 -422 -398 l 6
 -422 -402 -423 -406 -423 -409 c 0
 -423 -420 -419 -430 -412 -439 c 4
 -404 -450 -391 -456 -374 -456 c 4
 -357 -456 -342 -450 -328 -439 c 4
 -314 -427 -305 -413 -302 -398 c 6
 -226 -41 l 5
 -128 -41 l 5
 -204 -398 l 6
 -212 -437 -235 -471 -271 -498 c 4
 -306 -522 -346 -534 -391 -534 c 4
 -432 -534 -465 -521 -491 -495 c 4
 -512 -476 -522 -452 -522 -425 c 0
 -522 -416 -521 -407 -519 -398 c 6
-530 -245 m 4
 -506 -245 -488 -238 -473 -224 c 4
 -456 -209 -447 -193 -443 -176 c 4
 -442 -171 -442 -166 -442 -161 c 0
 -442 -149 -445 -138 -452 -127 c 5
 -460 -112 -476 -104 -500 -104 c 4
 -525 -104 -544 -111 -559 -125 c 4
 -574 -139 -583 -156 -587 -176 c 4
 -588 -181 -589 -185 -589 -190 c 0
 -589 -203 -585 -214 -577 -224 c 5
 -569 -238 -553 -245 -530 -245 c 4
EndSplineSet
EndChar
StartChar: uni0E3A
Encoding: 218 3642 187
Width: 0
Flags: W
Fore
-187 -73 m 5
 -163 -73 -146 -79 -137 -93 c 5
 -131 -105 -128 -118 -128 -130 c 0
 -128 -136 -129 -141 -130 -147 c 4
 -134 -163 -143 -180 -159 -198 c 5
 -174 -212 -193 -218 -217 -218 c 4
 -240 -218 -256 -212 -266 -198 c 4
 -273 -186 -277 -174 -277 -162 c 0
 -277 -157 -276 -152 -275 -147 c 4
 -272 -131 -262 -113 -246 -95 c 5
 -230 -82 -210 -75 -187 -73 c 5
EndSplineSet
EndChar
StartChar: dottedcircle
Encoding: 221 9676 188
Width: 1269
VWidth: 1000
Flags: W
HStem: 6 50<661 672> 56 50<472 483> 70 50<847 858> 178 50<366 376> 194 50<983 994> 368 50<1068 1079> 377 50<359 370> 548 50<1058 1069> 556 50<456 467> 668 50<958 969> 678 50<618 629> 724 50<812 823>
VStem: 641 51<26 36> 963 51<214 224> 1038 51<568 578> 1048 51<388 398>
Fore
451 603 m 2
613 725 m 2
467 103 m 2
361 225 m 2
842 117 m 2
978 241 m 2
1053 595 m 2
953 715 m 2
1063 415 m 2
354 424 m 2
807 771 m 2
467 606 m 0
 479 606 487 598 487 586 c 0
 487 585 487 583 486 581 c 0
 484 567 470 556 456 556 c 0
 444 556 436 564 436 576 c 0
 436 577 436 579 436 581 c 0
 439 595 453 606 467 606 c 0
629 728 m 0
 641 728 649 720 649 708 c 0
 649 707 649 705 648 703 c 0
 645 689 632 678 618 678 c 0
 606 678 598 686 598 698 c 0
 598 699 598 701 598 703 c 0
 601 717 615 728 629 728 c 0
483 106 m 0
 495 106 503 98 503 86 c 0
 503 85 503 83 502 81 c 0
 499 67 486 56 472 56 c 0
 460 56 452 64 452 76 c 0
 452 77 452 79 452 81 c 0
 455 95 469 106 483 106 c 0
376 228 m 0
 389 228 397 220 397 208 c 0
 397 207 397 205 396 203 c 0
 393 189 380 178 366 178 c 0
 354 178 346 186 346 198 c 0
 346 199 346 201 346 203 c 0
 349 217 362 228 376 228 c 0
858 120 m 0
 870 120 878 112 878 100 c 0
 878 99 878 97 877 95 c 0
 874 81 861 70 847 70 c 0
 835 70 827 78 827 90 c 0
 827 91 827 93 827 95 c 0
 830 109 844 120 858 120 c 0
994 244 m 0
 1006 244 1014 236 1014 224 c 0
 1014 223 1014 221 1014 219 c 0
 1011 205 997 194 983 194 c 0
 971 194 963 202 963 214 c 0
 963 215 963 217 964 219 c 0
 967 233 980 244 994 244 c 0
1069 598 m 0
 1081 598 1089 590 1089 578 c 0
 1089 577 1089 575 1089 573 c 0
 1086 559 1072 548 1058 548 c 0
 1046 548 1038 556 1038 568 c 0
 1038 569 1038 571 1039 573 c 0
 1042 587 1055 598 1069 598 c 0
969 718 m 0
 981 718 989 710 989 698 c 0
 989 697 989 695 988 693 c 0
 985 679 972 668 958 668 c 0
 946 668 938 676 938 688 c 0
 938 689 938 691 938 693 c 0
 941 707 955 718 969 718 c 0
1079 418 m 0
 1091 418 1099 410 1099 398 c 0
 1099 397 1099 395 1099 393 c 0
 1096 379 1082 368 1068 368 c 0
 1056 368 1048 376 1048 388 c 0
 1048 389 1048 391 1049 393 c 0
 1052 407 1065 418 1079 418 c 0
370 427 m 0
 382 427 390 419 390 407 c 0
 390 406 390 404 389 402 c 0
 386 388 373 377 359 377 c 0
 347 377 339 385 339 397 c 0
 339 398 339 400 339 402 c 0
 342 416 356 427 370 427 c 0
672 56 m 0
 684 56 692 48 692 36 c 0
 692 35 692 33 692 31 c 0
 689 17 675 6 661 6 c 0
 649 6 641 14 641 26 c 0
 641 27 641 29 642 31 c 0
 645 45 658 56 672 56 c 0
823 774 m 0
 835 774 843 766 843 754 c 0
 843 753 843 751 842 749 c 0
 839 735 826 724 812 724 c 0
 800 724 792 732 792 744 c 0
 792 745 792 747 792 749 c 0
 795 763 809 774 823 774 c 0
EndSplineSet
EndChar
StartChar: uni0E3F
Encoding: 223 3647 189
Width: 842
Flags: W
HStem: 0 94<227 344 458 555> 430 96<319 435 542 578> 834 94<310 521 615 642> 834 206<565 645.268>
VStem: 744 92<306 325> 787 102<716 752>
DStem: 310 928 384 834 113 0 319 526 310 928 298 430 113 0 227 94 344 0 438 0 317 -125 411 -125 435 430 529 430 364 94 458 94 521 834 615 834 456 526 550 526 565 1040 659 1040 541 928 635 928
Fore
456 526 m 5
 521 834 l 5
 384 834 l 5
 319 526 l 5
 456 526 l 5
364 94 m 5
 435 430 l 5
 298 430 l 5
 227 94 l 5
 364 94 l 5
529 430 m 5
 458 94 l 5
 534 94 l 6
 646 94 714 151 739 266 c 4
 742 283 744 298 744 312 c 0
 744 354 728 384 696 403 c 4
 665 421 614 430 542 430 c 6
 529 430 l 5
615 834 m 5
 550 526 l 5
 573 526 l 6
 621 526 664 538 702 562 c 4
 745 589 772 625 782 672 c 4
 785 688 787 702 787 716 c 0
 787 795 730 834 615 834 c 5
565 1040 m 5
 659 1040 l 5
 635 928 l 5
 699 928 l 6
 751 928 796 912 834 879 c 4
 871 847 889 805 889 752 c 0
 889 734 887 715 883 694 c 4
 863 604 805 537 707 492 c 5
 757 463 l 6
 810 434 836 387 836 323 c 0
 836 304 834 283 829 260 c 4
 812 178 769 111 701 59 c 4
 649 20 600 0 553 0 c 6
 438 0 l 5
 411 -125 l 5
 317 -125 l 5
 344 0 l 5
 113 0 l 5
 310 928 l 5
 541 928 l 5
 565 1040 l 5
EndSplineSet
EndChar
StartChar: uni0E40
Encoding: 224 3648 190
Width: 430
Flags: W
HStem: -14 71<239 256> 198 72<281 301> 767 20G<266 363>
VStem: 122 74<92 112> 342 72<144 164>
DStem: 266 787 363 787 126 125 252 263
Fore
266 787 m 1
 363 787 l 1
 252 263 l 1
 264 268 280 270 301 270 c 0
 344 270 377 257 397 229 c 1
 409 210 414 188 414 164 c 0
 414 153 413 140 410 127 c 0
 402 88 383 55 352 28 c 0
 320 0 283 -14 239 -14 c 0
 197 -14 167 -2 148 22 c 0
 130 41 122 65 122 92 c 0
 122 103 123 114 126 125 c 2
 266 787 l 1
284 198 m 0
 262 198 244 192 229 178 c 1
 212 164 201 148 197 129 c 0
 196 123 196 118 196 112 c 0
 196 100 199 89 206 79 c 0
 217 64 232 57 254 57 c 0
 278 57 298 64 312 79 c 0
 327 93 336 110 340 129 c 0
 341 134 342 139 342 144 c 0
 342 155 339 167 333 178 c 1
 322 192 305 198 284 198 c 0
EndSplineSet
EndChar
StartChar: uni0E41
Encoding: 225 3649 191
Width: 782
Flags: W
HStem: -14 71<218 235 587 604> 198 72<259 280 630 650> 767 20G<244 341 616 713>
VStem: 100 74<93 114> 321 72<144 163> 472 73<94 113> 694 71<141 163>
DStem: 244 787 341 787 104 125 230 263 616 787 713 787 476 125 602 263
Fore
244 787 m 1
 341 787 l 5
 230 263 l 1
 242 268 258 270 280 270 c 0
 323 270 356 257 376 229 c 1
 387 209 393 187 393 163 c 0
 393 152 392 140 389 127 c 0
 381 88 362 55 331 28 c 0
 299 0 261 -14 218 -14 c 0
 176 -14 145 -2 126 22 c 0
 109 42 100 66 100 93 c 0
 100 103 101 114 104 125 c 2
 244 787 l 1
616 787 m 1
 713 787 l 1
 602 263 l 1
 617 268 632 270 650 270 c 0
 693 270 726 257 747 229 c 1
 759 209 765 187 765 163 c 0
 765 151 764 139 761 127 c 0
 753 90 733 58 701 30 c 0
 670 1 632 -14 587 -14 c 0
 547 -14 518 -2 498 22 c 0
 481 43 472 66 472 94 c 0
 472 104 473 114 476 125 c 2
 616 787 l 1
632 198 m 0
 610 198 592 192 577 178 c 0
 560 162 550 145 546 129 c 0
 545 124 545 118 545 113 c 0
 545 102 548 91 554 81 c 0
 565 65 580 57 602 57 c 0
 626 57 647 65 663 81 c 0
 678 95 689 111 692 129 c 0
 693 133 694 137 694 141 c 0
 694 153 690 166 681 178 c 0
 671 192 654 198 632 198 c 0
263 198 m 0
 240 198 222 192 208 178 c 1
 191 164 179 148 175 129 c 0
 174 124 174 119 174 114 c 0
 174 101 178 89 185 79 c 0
 195 64 211 57 233 57 c 0
 257 57 277 64 291 79 c 0
 306 93 315 110 319 129 c 0
 320 134 321 139 321 144 c 0
 321 155 318 167 312 178 c 1
 301 192 284 198 263 198 c 0
EndSplineSet
EndChar
StartChar: uni0E42
Encoding: 226 3650 192
Width: 471
Flags: W
HStem: -14 71<307 324> 198 72<348 370> 1293 81<641 657> 1351 81<438 457>
VStem: 190 74<92 113> 403 98<1136 1151> 410 72<144 164>
DStem: 394 1066 492 1071 194 125 320 263
Fore
194 125 m 2
 394 1066 l 2
 400 1094 403 1118 403 1138 c 0
 403 1146 402 1153 401 1159 c 1
 396 1177 379 1196 350 1216 c 0
 324 1236 269 1266 186 1307 c 1
 211 1331 247 1357 296 1386 c 0
 347 1417 401 1432 457 1432 c 4
 491 1432 528 1423 566 1404 c 0
 605 1384 634 1374 655 1374 c 0
 679 1374 707 1384 740 1404 c 1
 766 1337 l 1
 722 1308 680 1293 641 1293 c 0
 620 1293 587 1303 540 1323 c 1
 501 1341 468 1351 440 1351 c 0
 418 1351 397 1347 377 1340 c 0
 364 1334 352 1328 342 1320 c 1
 455 1251 l 1
 473 1239 488 1218 497 1189 c 0
 500 1178 501 1164 501 1149 c 0
 501 1127 498 1101 492 1071 c 2
 320 263 l 1
 332 268 348 270 370 270 c 0
 414 270 446 257 463 229 c 0
 476 211 482 189 482 164 c 0
 482 152 481 140 478 127 c 0
 469 86 450 53 420 28 c 0
 389 0 352 -14 307 -14 c 0
 267 -14 237 -2 218 22 c 1
 199 41 190 64 190 92 c 0
 190 103 191 113 194 125 c 2
352 198 m 0
 330 198 312 191 297 178 c 0
 279 162 269 146 265 129 c 0
 264 123 264 118 264 113 c 0
 264 100 267 89 274 78 c 0
 282 64 298 57 322 57 c 0
 346 57 366 64 380 78 c 0
 395 93 404 110 408 129 c 0
 410 134 410 139 410 144 c 0
 410 156 407 167 399 178 c 0
 391 191 375 198 352 198 c 0
EndSplineSet
EndChar
StartChar: uni0E43
Encoding: 227 3651 193
Width: 474
Flags: W
HStem: -14 71<310 331> 198 72<349 372> 1090 55<249 268> 1256 55<279 286> 1369 68<365 388>
VStem: 158 57<1168 1200> 192 74<93 113> 329 56<1211 1225> 413 72<142 162> 441 97<1297 1315>
DStem: 436 1256 532 1253 196 125 322 262
Fore
196 125 m 6
 436 1256 l 6
 439 1272 441 1287 441 1300 c 0
 441 1346 419 1369 374 1369 c 4
 344 1369 322 1362 308 1348 c 4
 294 1333 284 1321 279 1311 c 5
 319 1311 347 1300 367 1279 c 4
 379 1264 385 1246 385 1225 c 0
 385 1217 384 1209 382 1200 c 4
 375 1168 359 1141 333 1119 c 4
 309 1099 282 1090 251 1090 c 4
 227 1090 206 1096 187 1110 c 4
 169 1120 160 1140 158 1168 c 4
 158 1173 158 1179 158 1185 c 0
 158 1202 159 1221 164 1242 c 4
 175 1296 201 1342 240 1381 c 4
 278 1418 327 1437 386 1437 c 4
 439 1437 481 1421 510 1390 c 5
 529 1368 538 1340 538 1306 c 0
 538 1290 536 1272 532 1253 c 6
 322 262 l 5
 334 268 350 270 372 270 c 4
 416 270 447 256 465 228 c 4
 478 209 485 187 485 162 c 0
 485 151 484 139 481 127 c 4
 472 86 452 53 423 27 c 4
 392 -1 354 -14 310 -14 c 4
 269 -14 240 -2 220 22 c 5
 201 40 192 64 192 93 c 0
 192 103 193 114 196 125 c 6
284 1256 m 4
 263 1256 249 1250 241 1240 c 5
 227 1229 219 1215 216 1200 c 4
 215 1195 215 1191 215 1187 c 0
 215 1177 218 1168 224 1161 c 5
 227 1150 239 1145 260 1145 c 4
 278 1145 293 1150 305 1161 c 4
 316 1172 324 1185 327 1200 c 4
 328 1205 329 1209 329 1213 c 0
 329 1223 326 1232 322 1240 c 4
 315 1250 302 1256 284 1256 c 4
355 198 m 4
 332 198 314 191 300 178 c 4
 281 162 271 146 267 129 c 4
 266 124 266 118 266 113 c 0
 266 101 269 89 276 78 c 4
 285 64 300 57 325 57 c 4
 349 57 368 64 383 78 c 4
 398 93 407 109 411 129 c 4
 412 133 413 138 413 142 c 0
 413 155 409 167 401 178 c 4
 393 191 377 198 355 198 c 4
EndSplineSet
EndChar
StartChar: uni0E44
Encoding: 228 3652 194
Width: 550
Flags: W
HStem: -14 71<386 403> 198 72<429 450> 1344 88<524 556>
VStem: 270 72<93 115> 489 74<144 162>
DStem: 231 1326 303 1351 246 1041 316 1085 443 1355 509 1333 316 1085 361 1036 529 1326 627 1333 274 125 400 262
Fore
274 125 m 6
 529 1326 l 6
 530 1330 530 1333 530 1335 c 0
 530 1341 528 1344 524 1344 c 4
 518 1344 513 1340 509 1333 c 6
 361 1036 l 5
 341 997 317 978 290 978 c 4
 263 978 248 999 246 1041 c 6
 231 1326 l 5
 227 1358 217 1377 199 1383 c 5
 259 1436 l 5
 287 1425 301 1397 303 1351 c 5
 316 1085 l 5
 443 1355 l 6
 467 1406 505 1432 556 1432 c 4
 584 1432 605 1423 618 1406 c 5
 627 1396 631 1382 631 1364 c 0
 631 1355 630 1345 627 1333 c 6
 400 262 l 5
 412 268 428 270 450 270 c 4
 493 270 525 256 545 228 c 5
 557 208 563 186 563 162 c 0
 563 152 562 140 559 129 c 4
 551 88 531 54 501 27 c 4
 469 -1 431 -14 386 -14 c 4
 345 -14 315 -2 296 22 c 4
 279 42 270 65 270 93 c 0
 270 103 271 114 274 125 c 6
431 198 m 4
 410 198 392 191 376 178 c 4
 357 161 347 145 343 129 c 4
 342 124 342 119 342 115 c 0
 342 102 346 90 355 80 c 5
 362 65 377 57 401 57 c 4
 425 57 444 64 459 78 c 4
 474 93 483 109 487 129 c 4
 488 134 489 139 489 144 c 0
 489 155 486 167 480 178 c 5
 468 191 451 198 431 198 c 4
EndSplineSet
EndChar
StartChar: uni0E45
Encoding: 229 3653 195
Width: 650
Flags: W
HStem: 730 72<401 434>
VStem: 561 98<611 633>
DStem: 556 575 652 571 347 -408 444 -408
Fore
130 629 m 5
 172 685 216 728 261 759 c 4
 307 788 364 802 432 802 c 4
 512 802 572 782 614 742 c 4
 644 713 659 676 659 629 c 0
 659 611 657 592 652 571 c 6
 444 -408 l 5
 347 -408 l 5
 556 575 l 6
 559 590 561 604 561 616 c 0
 561 647 552 672 534 691 c 4
 508 717 470 730 417 730 c 4
 371 730 330 718 291 693 c 4
 252 668 219 635 193 594 c 5
 162 613 l 5
 130 629 l 5
EndSplineSet
EndChar
StartChar: uni0E46
Encoding: 230 3654 196
Width: 861
Flags: W
HStem: 334 67<435 454> 526 62<468 491> 743 21G<628 628>
VStem: 293 105<449 492> 529 63<480 493> 771 100<624 646>
DStem: 762 556 862 570 637 -35 732 -44
Fore
733 801 m 5
 770 794 802 779 828 757 c 4
 850 737 863 711 868 678 c 4
 870 668 871 657 871 644 c 0
 871 623 868 598 862 570 c 6
 732 -44 l 6
 721 -95 703 -140 677 -178 c 4
 654 -214 621 -242 580 -263 c 5
 544 -285 494 -304 428 -319 c 5
 421 -231 l 5
 492 -215 543 -193 574 -166 c 4
 602 -140 624 -96 637 -35 c 6
 762 556 l 6
 768 585 771 609 771 631 c 0
 771 642 771 651 769 660 c 4
 765 684 747 704 716 720 c 5
 611 662 l 5
 611 662 l 5
 575 683 l 5
 515 720 l 5
 479 707 450 686 426 656 c 4
 405 626 390 590 381 546 c 5
 420 572 l 6
 438 583 461 588 489 588 c 4
 529 588 558 575 576 551 c 4
 587 533 592 514 592 493 c 0
 592 484 591 474 589 464 c 4
 581 429 565 399 538 373 c 5
 509 347 474 334 435 334 c 4
 396 334 366 345 343 366 c 4
 321 386 305 414 296 449 c 5
 294 463 293 477 293 492 c 0
 293 515 296 540 301 565 c 4
 313 623 341 673 387 718 c 4
 431 762 480 789 534 801 c 5
 593 766 l 6
 617 753 628 745 628 743 c 0
 628 743 l 5
 733 801 l 5
476 526 m 4
 458 526 443 520 428 508 c 4
 412 493 403 479 400 464 c 4
 398 459 398 454 398 449 c 0
 398 439 401 430 407 422 c 5
 416 407 429 401 449 401 c 4
 470 401 488 407 501 420 c 4
 514 430 523 445 527 464 c 4
 528 471 529 477 529 482 c 0
 529 493 526 503 520 510 c 4
 513 520 498 526 476 526 c 4
EndSplineSet
EndChar
StartChar: uni0E47
Encoding: 231 3655 197
Width: 0
Flags: W
HStem: 849 55<-49 -32> 967 73<-252 -237> 1016 51<-18 -2> 1120 69<-83 -45> 1127 71<-226 -188>
VStem: -449 80<1002 1022> 30 58<970 985>
Fore
-49 849 m 4
 -75 849 -94 854 -107 864 c 4
 -131 881 -149 896 -160 908 c 4
 -179 929 -194 944 -209 953 c 4
 -225 962 -239 967 -252 967 c 4
 -287 965 -314 949 -334 919 c 4
 -353 890 -366 865 -373 844 c 5
 -399 857 -420 884 -434 925 c 4
 -444 951 -449 976 -449 1002 c 0
 -449 1016 -447 1029 -444 1043 c 4
 -441 1059 -433 1078 -421 1101 c 4
 -381 1165 -311 1198 -210 1198 c 5
 -148 1195 l 5
 -112 1191 -79 1189 -47 1189 c 4
 -1 1189 33 1197 58 1212 c 4
 82 1227 98 1254 106 1295 c 5
 183 1295 l 5
 170 1231 142 1186 102 1162 c 4
 59 1134 -2 1120 -81 1120 c 4
 -114 1120 -150 1122 -188 1127 c 5
 -244 1127 -286 1121 -311 1111 c 4
 -341 1099 -360 1078 -366 1047 c 4
 -368 1039 -369 1031 -369 1022 c 0
 -369 1007 -367 990 -362 972 c 5
 -358 980 -343 995 -318 1016 c 4
 -298 1032 -271 1040 -237 1040 c 4
 -209 1040 -185 1035 -167 1023 c 4
 -145 1008 -131 997 -125 988 c 5
 -113 1013 -97 1032 -76 1045 c 4
 -54 1060 -29 1067 -2 1067 c 4
 31 1067 56 1057 73 1036 c 5
 83 1021 88 1004 88 985 c 0
 88 977 87 968 85 959 c 4
 78 928 63 902 40 881 c 5
 14 860 -16 849 -49 849 c 4
-37 904 m 4
 -19 904 -4 910 7 921 c 4
 18 932 25 945 28 959 c 4
 29 964 30 970 30 975 c 0
 30 984 28 992 23 999 c 4
 17 1010 5 1016 -13 1016 c 4
 -29 1016 -43 1010 -56 999 c 4
 -67 988 -75 974 -78 959 c 4
 -79 956 -79 952 -79 949 c 0
 -79 940 -77 931 -72 923 c 4
 -65 910 -53 904 -37 904 c 4
EndSplineSet
EndChar
StartChar: uni0E48
Encoding: 232 3656 198
Width: 0
Flags: W
DStem: 126 1569 213 1569 68 1298 155 1298
Fore
68 1298 m 5
 126 1569 l 5
 213 1569 l 5
 155 1298 l 5
 68 1298 l 5
EndSplineSet
EndChar
StartChar: uni0E49
Encoding: 233 3657 199
Width: 0
Flags: W
HStem: 1295 67<30 59> 1404 53<3 10> 1570 60<18 41>
VStem: -109 67<1482 1502> 73 71<1526 1538>
Fore
141 1508 m 4
 132 1469 119 1437 101 1411 c 4
 82 1385 67 1369 57 1362 c 5
 124 1362 179 1379 224 1413 c 4
 259 1439 283 1468 297 1501 c 4
 313 1535 326 1575 336 1621 c 5
 422 1621 l 5
 391 1477 321 1380 212 1332 c 4
 159 1307 98 1295 30 1295 c 5
 -43 1299 l 5
 -85 1309 l 5
 -73 1315 -59 1324 -39 1336 c 5
 -20 1352 -4 1375 10 1404 c 5
 6 1404 3 1403 -0 1401 c 5
 -22 1399 l 5
 -51 1404 l 5
 -89 1417 -109 1443 -109 1482 c 0
 -109 1492 -107 1503 -105 1515 c 4
 -100 1538 -91 1558 -77 1573 c 5
 -64 1591 -47 1605 -25 1617 c 4
 -8 1626 13 1630 39 1630 c 4
 81 1630 110 1618 124 1593 c 5
 137 1577 144 1558 144 1536 c 0
 144 1527 143 1518 141 1508 c 4
27 1570 m 4
 7 1570 -8 1565 -18 1555 c 4
 -30 1543 -38 1529 -41 1515 c 4
 -42 1510 -42 1506 -42 1502 c 0
 -42 1492 -40 1484 -35 1476 c 4
 -28 1463 -15 1457 3 1457 c 4
 19 1457 34 1463 49 1476 c 5
 60 1484 68 1497 72 1515 c 4
 73 1519 73 1524 73 1528 c 0
 73 1538 71 1547 66 1555 c 4
 59 1565 46 1570 27 1570 c 4
EndSplineSet
EndChar
